LibreFranklin-ExtraBold.ufo
<glyph name="exclam" format="2">
  <advance width="270.8125"/>
  <unicode hex="0021"/>
  <outline>
    <contour>
      <point x="228.075" y="26.525" type="curve"/>
      <point x="228.075" y="162.425" type="line"/>
      <point x="228.075" y="174.4625"/>
      <point x="222.625" y="180.775"/>
      <point x="211.5875" y="180.775" type="curve"/>
      <point x="55.775" y="180.775" type="line" smooth="yes"/>
      <point x="45.7375" y="180.775"/>
      <point x="38.425" y="174.4625"/>
      <point x="38.425" y="160.5625" type="curve"/>
      <point x="38.425" y="22.9375" type="line" smooth="yes"/>
      <point x="38.425" y="7.3125"/>
      <point x="44.7375" y="0.0"/>
      <point x="63.0875" y="0.0" type="curve"/>
      <point x="197.825" y="0.0" type="line" smooth="yes"/>
      <point x="219.9" y="0.0"/>
      <point x="228.075" y="7.3125"/>
    </contour>
    <contour>
      <point x="192.375" y="275.025" type="curve"/>
      <point x="235.28750000000002" y="723.0625" type="line"/>
      <point x="236.15" y="734.6875"/>
      <point x="228.97500000000002" y="742.0"/>
      <point x="218.9375" y="742.0" type="curve"/>
      <point x="50.15" y="742.0" type="line" smooth="yes"/>
      <point x="39.387499999999996" y="742.0"/>
      <point x="31.349999999999994" y="734.825"/>
      <point x="33.074999999999996" y="721.2" type="curve"/>
      <point x="77.575" y="272.3" type="line" smooth="yes"/>
      <point x="79.3" y="256.95"/>
      <point x="83.025" y="249.775"/>
      <point x="101.1" y="249.775" type="curve"/>
      <point x="162.5375" y="249.775" type="line" smooth="yes"/>
      <point x="183.3375" y="249.775"/>
      <point x="190.65" y="256.95"/>
    </contour>
  </outline>
</glyph>
<glyph name="numbersign" format="2">
  <advance width="603.0"/>
  <unicode hex="0023"/>
  <outline>
    <contour>
      <point x="187.1125" y="27.700000000000003" type="curve"/>
      <point x="287.9" y="717.5125" type="line"/>
      <point x="289.7625" y="729.6875"/>
      <point x="282.5875" y="735.275"/>
      <point x="272.275" y="736.275" type="curve"/>
      <point x="216.3625" y="742.0" type="line" smooth="yes"/>
      <point x="206.4625" y="743.0"/>
      <point x="201.7375" y="733.9625"/>
      <point x="199.0125" y="720.475" type="curve"/>
      <point x="96.5" y="26.3875" type="line" smooth="yes"/>
      <point x="94.775" y="9.5875"/>
      <point x="104.4" y="7.5875"/>
      <point x="122.3375" y="4.8625" type="curve"/>
      <point x="158.4125" y="0.0" type="line" smooth="yes"/>
      <point x="180.525" y="-2.725"/>
      <point x="184.3875" y="6.175000000000001"/>
    </contour>
    <contour>
      <point x="408.225" y="27.700000000000003" type="curve"/>
      <point x="509.0125" y="717.5125" type="line"/>
      <point x="510.875" y="729.6875"/>
      <point x="503.7" y="735.275"/>
      <point x="493.3875" y="736.275" type="curve"/>
      <point x="437.475" y="742.0" type="line" smooth="yes"/>
      <point x="427.575" y="743.0"/>
      <point x="422.85" y="733.9625"/>
      <point x="420.125" y="720.475" type="curve"/>
      <point x="317.6125" y="26.3875" type="line" smooth="yes"/>
      <point x="315.8875" y="9.5875"/>
      <point x="325.5125" y="7.5875"/>
      <point x="343.45" y="4.8625" type="curve"/>
      <point x="379.525" y="0.0" type="line" smooth="yes"/>
      <point x="401.6375" y="-2.725"/>
      <point x="405.5" y="6.175000000000001"/>
    </contour>
    <contour>
      <point x="559.5" y="251.1" type="curve"/>
      <point x="559.5" y="295.8" type="line"/>
      <point x="559.5" y="306.7"/>
      <point x="553.05" y="313.875"/>
      <point x="543.0125" y="313.875" type="curve"/>
      <point x="27.575" y="313.875" type="line" smooth="yes"/>
      <point x="16.8125" y="313.875"/>
      <point x="10.5" y="306.7"/>
      <point x="10.5" y="293.075" type="curve"/>
      <point x="10.5" y="248.375" type="line" smooth="yes"/>
      <point x="10.5" y="233.025"/>
      <point x="15.95" y="225.85"/>
      <point x="34.025" y="225.85" type="curve"/>
      <point x="529.6625" y="225.85" type="line" smooth="yes"/>
      <point x="550.4625" y="225.85"/>
      <point x="559.5" y="233.025"/>
    </contour>
    <contour>
      <point x="592.5" y="461.1" type="curve"/>
      <point x="592.5" y="505.8" type="line"/>
      <point x="592.5" y="516.7"/>
      <point x="586.05" y="523.875"/>
      <point x="576.0125" y="523.875" type="curve"/>
      <point x="60.575" y="523.875" type="line" smooth="yes"/>
      <point x="49.8125" y="523.875"/>
      <point x="43.5" y="516.7"/>
      <point x="43.5" y="503.075" type="curve"/>
      <point x="43.5" y="458.375" type="line" smooth="yes"/>
      <point x="43.5" y="443.025"/>
      <point x="48.95" y="435.85"/>
      <point x="67.025" y="435.85" type="curve"/>
      <point x="562.6625" y="435.85" type="line" smooth="yes"/>
      <point x="583.4625" y="435.85"/>
      <point x="592.5" y="443.025"/>
    </contour>
  </outline>
</glyph>
<glyph name="dollar" format="2">
  <advance width="671.4625"/>
  <unicode hex="0024"/>
  <outline>
    <contour>
      <point x="638.3625" y="224.5125" type="curve"/>
      <point x="638.3625" y="224.5125" type="line"/>
      <point x="638.3625" y="326.4125"/>
      <point x="566.2875" y="404.8"/>
      <point x="465.225" y="432.1" type="curve"/>
      <point x="403.725" y="447.55" type="line" smooth="yes"/>
      <point x="393.8625" y="449.825"/>
      <point x="391.0" y="452.6875"/>
      <point x="391.0" y="459.9625" type="curve"/>
      <point x="391.0" y="600.675" type="line" smooth="yes"/>
      <point x="391.0" y="606.675"/>
      <point x="395.5875" y="611.4"/>
      <point x="404.3125" y="608.675" type="curve"/>
      <point x="438.9875" y="598.0875"/>
      <point x="469.25" y="579.4375"/>
      <point x="488.3125" y="561.0" type="curve"/>
      <point x="502.9375" y="547.825"/>
      <point x="510.975" y="551.1375"/>
      <point x="519.425" y="561.175" type="curve"/>
      <point x="579.5125" y="639.4125" type="line"/>
      <point x="588.1" y="650.45"/>
      <point x="585.2375" y="660.625"/>
      <point x="575.2" y="666.35" type="curve"/>
      <point x="529.375" y="697.925"/>
      <point x="474.825" y="720.7125"/>
      <point x="406.625" y="737.2" type="curve"/>
      <point x="396.45" y="739.7875"/>
      <point x="391.8625" y="741.925"/>
      <point x="391.8625" y="747.65" type="curve"/>
      <point x="391.8625" y="784.4" type="line" smooth="yes"/>
      <point x="391.8625" y="800.025"/>
      <point x="384.6875" y="804.75"/>
      <point x="371.7875" y="804.75" type="curve"/>
      <point x="295.175" y="804.75" type="line" smooth="yes"/>
      <point x="288.5875" y="804.75"/>
      <point x="281.4125" y="800.025"/>
      <point x="281.4125" y="789.9875" type="curve"/>
      <point x="281.4125" y="755.55" type="line" smooth="yes"/>
      <point x="281.4125" y="744.65"/>
      <point x="268.0625" y="738.2"/>
      <point x="259.75" y="736.475" type="curve"/>
      <point x="117.9125" y="708.5"/>
      <point x="41.9875" y="625.7375"/>
      <point x="41.9875" y="521.05" type="curve"/>
      <point x="41.9875" y="417.425"/>
      <point x="98.8875" y="329.125"/>
      <point x="268.0375" y="298.4875" type="curve"/>
      <point x="279.45" y="294.9375"/>
      <point x="281.55" y="291.25"/>
      <point x="281.55" y="280.1125" type="curve"/>
      <point x="280.6875" y="134.0125" type="line" smooth="yes"/>
      <point x="280.6875" y="123.8375"/>
      <point x="276.1" y="121.8375"/>
      <point x="264.2" y="123.5625" type="curve"/>
      <point x="208.4625" y="133.91250000000002"/>
      <point x="164.0875" y="161.28750000000002"/>
      <point x="128.6125" y="197.375" type="curve"/>
      <point x="117.85" y="207.41250000000002"/>
      <point x="108.125" y="208.275"/>
      <point x="96.225" y="194.925" type="curve"/>
      <point x="27.6125" y="118.5125" type="line" smooth="yes"/>
      <point x="17.4375" y="107.75"/>
      <point x="21.6125" y="95.85"/>
      <point x="39.4125" y="82.8125" type="curve"/>
      <point x="101.625" y="32.8625"/>
      <point x="167.9" y="3.8000000000000007"/>
      <point x="262.75" y="-2.2375" type="curve"/>
      <point x="275.375" y="-2.2375"/>
      <point x="278.9625" y="-5.824999999999999"/>
      <point x="278.9625" y="-19.45" type="curve"/>
      <point x="278.9625" y="-52.637499999999996" type="line" smooth="yes"/>
      <point x="278.9625" y="-67.7125"/>
      <point x="285.275" y="-75.75"/>
      <point x="303.2125" y="-75.75" type="curve"/>
      <point x="364.3" y="-75.75" type="line" smooth="yes"/>
      <point x="383.9625" y="-75.75"/>
      <point x="392.0" y="-67.7125"/>
      <point x="392.0" y="-49.637499999999996" type="curve"/>
      <point x="392.0" y="-21.175" type="line" smooth="yes"/>
      <point x="392.0" y="-6.824999999999999"/>
      <point x="394.0" y="-3.9624999999999995"/>
      <point x="411.2125" y="-2.2375" type="curve"/>
      <point x="550.1875" y="13.287500000000001"/>
      <point x="638.3625" y="102.95"/>
    </contour>
    <contour>
      <point x="281.4125" y="601.8125" type="curve"/>
      <point x="281.4125" y="488.0" type="line"/>
      <point x="281.4125" y="471.55"/>
      <point x="275.0" y="465.9625"/>
      <point x="261.4125" y="468.375" type="curve"/>
      <point x="211.1" y="480.7"/>
      <point x="188.45" y="504.45"/>
      <point x="188.45" y="541.6125" type="curve"/>
      <point x="188.45" y="574.45"/>
      <point x="213.6375" y="603.4"/>
      <point x="267.9625" y="614.85" type="curve"/>
      <point x="277.4125" y="616.7125"/>
      <point x="281.4125" y="611.9875"/>
    </contour>
    <contour>
      <point x="391.1375" y="129.5625" type="curve"/>
      <point x="391.1375" y="129.5625" type="line"/>
      <point x="391.1375" y="266.3875" type="line" smooth="yes"/>
      <point x="391.1375" y="277.3875"/>
      <point x="394.6875" y="278.3875"/>
      <point x="402.9625" y="276.975" type="curve"/>
      <point x="465.425" y="264.025"/>
      <point x="490.175" y="234.9625"/>
      <point x="490.175" y="195.7375" type="curve"/>
      <point x="490.175" y="160.0"/>
      <point x="459.3625" y="131.325"/>
      <point x="405.0375" y="122.7" type="curve"/>
      <point x="396.5875" y="120.97500000000001"/>
      <point x="391.1375" y="122.97500000000001"/>
    </contour>
  </outline>
</glyph>
<glyph name="percent" format="2">
  <advance width="954.0625"/>
  <unicode hex="0025"/>
  <outline>
    <contour>
      <point x="229.0" y="753.0" type="curve"/>
      <point x="229.0" y="753.0" type="line"/>
      <point x="120.0625" y="753.0"/>
      <point x="34.8125" y="654.125"/>
      <point x="34.8125" y="541.0" type="curve"/>
      <point x="34.8125" y="428.4625"/>
      <point x="118.3375" y="333.0375"/>
      <point x="229.0" y="333.0375" type="curve"/>
      <point x="338.6625" y="333.0375"/>
      <point x="421.1875" y="428.4625"/>
      <point x="421.1875" y="541.0" type="curve"/>
      <point x="421.1875" y="654.125"/>
      <point x="336.9375" y="753.0"/>
    </contour>
    <contour>
      <point x="228.0" y="421.6875" type="curve"/>
      <point x="228.0" y="421.6875" type="line"/>
      <point x="181.9125" y="421.6875"/>
      <point x="164.6875" y="464.325"/>
      <point x="164.6875" y="540.0" type="curve"/>
      <point x="164.6875" y="619.125"/>
      <point x="182.775" y="665.2125"/>
      <point x="228.0" y="665.2125" type="curve"/>
      <point x="273.225" y="665.2125"/>
      <point x="291.3125" y="620.125"/>
      <point x="291.3125" y="540.0" type="curve"/>
      <point x="291.3125" y="464.1875"/>
      <point x="274.95" y="421.6875"/>
    </contour>
    <contour>
      <point x="727.0625" y="409.9625" type="curve"/>
      <point x="727.0625" y="409.9625" type="line"/>
      <point x="618.125" y="409.9625"/>
      <point x="532.875" y="311.0875"/>
      <point x="532.875" y="197.9625" type="curve"/>
      <point x="532.875" y="85.425"/>
      <point x="616.4" y="-10.0"/>
      <point x="727.0625" y="-10.0" type="curve"/>
      <point x="836.725" y="-10.0"/>
      <point x="919.25" y="85.425"/>
      <point x="919.25" y="197.9625" type="curve"/>
      <point x="919.25" y="311.0875"/>
      <point x="835.0" y="409.9625"/>
    </contour>
    <contour>
      <point x="726.0625" y="78.65" type="curve"/>
      <point x="726.0625" y="78.65" type="line"/>
      <point x="680.3875" y="78.65"/>
      <point x="662.75" y="121.7"/>
      <point x="662.75" y="196.9625" type="curve"/>
      <point x="662.75" y="275.675"/>
      <point x="681.25" y="322.175"/>
      <point x="726.0625" y="322.175" type="curve"/>
      <point x="770.875" y="322.175"/>
      <point x="789.375" y="276.675"/>
      <point x="789.375" y="196.9625" type="curve"/>
      <point x="789.375" y="121.5625"/>
      <point x="772.6" y="78.65"/>
    </contour>
    <component base="fraction" xOffset="356.0125"/>
  </outline>
</glyph>
<glyph name="ampersand" format="2">
  <advance width="859.025"/>
  <unicode hex="0026"/>
  <outline>
    <contour>
      <point x="388.175" y="753.0" type="curve"/>
      <point x="388.175" y="753.0" type="line"/>
      <point x="251.1625" y="753.0"/>
      <point x="150.775" y="675.5875"/>
      <point x="150.775" y="569.725" type="curve"/>
      <point x="150.775" y="522.625"/>
      <point x="173.6375" y="470.5875"/>
      <point x="212.7375" y="427.7625" type="curve"/>
      <point x="224.875" y="413.7625"/>
      <point x="223.875" y="409.9"/>
      <point x="210.875" y="402.7625" type="curve"/>
      <point x="90.2125" y="336.0375"/>
      <point x="39.1375" y="272.9"/>
      <point x="39.1375" y="193.9" type="curve"/>
      <point x="39.1375" y="67.6875"/>
      <point x="130.4875" y="-5.0"/>
      <point x="291.125" y="-5.0" type="curve"/>
      <point x="388.5125" y="-5.0"/>
      <point x="462.5125" y="17.65"/>
      <point x="529.6875" y="67.025" type="curve"/>
      <point x="541.5875" y="75.475"/>
      <point x="546.45" y="75.475"/>
      <point x="558.35" y="68.025" type="curve"/>
      <point x="622.15" y="23.4375"/>
      <point x="700.6875" y="0.0"/>
      <point x="799.7375" y="0.0" type="curve"/>
      <point x="814.4625" y="0.0"/>
      <point x="822.6375" y="9.9"/>
      <point x="822.6375" y="26.9375" type="curve"/>
      <point x="822.6375" y="129.91250000000002" type="line" smooth="yes"/>
      <point x="822.6375" y="143.8125"/>
      <point x="816.1875" y="149.4"/>
      <point x="801.15" y="150.2625" type="curve"/>
      <point x="756.575" y="152.85000000000002"/>
      <point x="717.15" y="164.5625"/>
      <point x="689.225" y="183.8625" type="curve"/>
      <point x="678.05" y="190.72500000000002"/>
      <point x="677.9125" y="193.0"/>
      <point x="687.225" y="204.9" type="curve"/>
      <point x="736.3875" y="267.8625"/>
      <point x="764.3625" y="310.45"/>
      <point x="785.95" y="358.7875" type="curve"/>
      <point x="790.4" y="370.55"/>
      <point x="783.0875" y="384.9"/>
      <point x="770.4625" y="388.625" type="curve"/>
      <point x="681.0125" y="417.1875" type="line" smooth="yes"/>
      <point x="669.1125" y="420.9125"/>
      <point x="660.525" y="418.1875"/>
      <point x="655.075" y="407.0125" type="curve"/>
      <point x="640.6625" y="369.95"/>
      <point x="616.5875" y="332.8875"/>
      <point x="589.775" y="300.725" type="curve"/>
      <point x="580.775" y="289.275"/>
      <point x="575.6" y="289.275"/>
      <point x="567.0125" y="298.0" type="curve"/>
      <point x="478.20000000000005" y="391.7625" type="line" smooth="yes"/>
      <point x="470.3375" y="399.9"/>
      <point x="471.20000000000005" y="403.7625"/>
      <point x="481.20000000000005" y="408.625" type="curve"/>
      <point x="566.1375" y="449.7875"/>
      <point x="624.9" y="528.55"/>
      <point x="624.9" y="591.6125" type="curve"/>
      <point x="624.9" y="687.925"/>
      <point x="526.75" y="753.0"/>
    </contour>
    <contour>
      <point x="396.8" y="648.45" type="curve"/>
      <point x="396.8" y="648.45" type="line"/>
      <point x="440.2375" y="648.45"/>
      <point x="471.0875" y="623.2125"/>
      <point x="471.0875" y="582.4" type="curve"/>
      <point x="471.0875" y="545.45"/>
      <point x="447.1" y="514.875"/>
      <point x="404.9375" y="493.4125" type="curve"/>
      <point x="398.8" y="490.4125"/>
      <point x="390.07500000000005" y="488.825"/>
      <point x="384.4875" y="494.55" type="curve"/>
      <point x="349.4125" y="536.8" type="line" smooth="yes"/>
      <point x="335.8375" y="551.7875"/>
      <point x="326.2875" y="570.9875"/>
      <point x="326.2875" y="585.975" type="curve"/>
      <point x="326.2875" y="617.4"/>
      <point x="352.6875" y="648.45"/>
    </contour>
    <contour>
      <point x="320.0375" y="304.9375" type="curve"/>
      <point x="320.0375" y="304.9375" type="line"/>
      <point x="430.375" y="183.75" type="line" smooth="yes"/>
      <point x="439.825" y="172.3"/>
      <point x="435.5125" y="166.1625"/>
      <point x="427.375" y="159.025" type="curve"/>
      <point x="403.525" y="139.175"/>
      <point x="362.2625" y="125.28750000000001"/>
      <point x="330.4875" y="125.28750000000001" type="curve"/>
      <point x="275.025" y="125.28750000000001"/>
      <point x="230.76250000000002" y="168.03750000000002"/>
      <point x="230.76250000000002" y="215.775" type="curve"/>
      <point x="230.76250000000002" y="251.2375"/>
      <point x="254.8875" y="286.4625"/>
      <point x="292.9" y="309.075" type="curve"/>
      <point x="302.45" y="315.075"/>
      <point x="309.45" y="316.6625"/>
    </contour>
  </outline>
</glyph>
<glyph name="quotesingle" format="2">
  <advance width="250.525"/>
  <unicode hex="0027"/>
  <outline>
    <contour>
      <point x="174.675" y="456.3625" type="curve"/>
      <point x="211.925" y="723.925" type="line"/>
      <point x="213.65" y="735.6875"/>
      <point x="206.475" y="742.0"/>
      <point x="195.575" y="742.0" type="curve"/>
      <point x="61.849999999999994" y="742.0" type="line" smooth="yes"/>
      <point x="51.95" y="742.0"/>
      <point x="42.9125" y="735.6875"/>
      <point x="44.637499999999996" y="722.2" type="curve"/>
      <point x="81.75" y="452.6375" type="line" smooth="yes"/>
      <point x="83.6125" y="437.2875"/>
      <point x="88.0625" y="430.1125"/>
      <point x="106.1375" y="430.1125" type="curve"/>
      <point x="144.8375" y="430.1125" type="line" smooth="yes"/>
      <point x="166.5" y="430.1125"/>
      <point x="171.95" y="437.425"/>
    </contour>
  </outline>
</glyph>
<glyph name="parenleft" format="2">
  <advance width="323.2"/>
  <unicode hex="0028"/>
  <outline>
    <contour>
      <point x="296.3375" y="742.0" type="curve"/>
      <point x="296.3375" y="742.0" type="line"/>
      <point x="204.8125" y="742.0" type="line" smooth="yes"/>
      <point x="192.775" y="742.0"/>
      <point x="185.4625" y="737.4125"/>
      <point x="179.0125" y="729.1" type="curve"/>
      <point x="96.01249999999999" y="604.1"/>
      <point x="41.1875" y="451.0"/>
      <point x="41.1875" y="285.0" type="curve"/>
      <point x="41.1875" y="114.0"/>
      <point x="97.225" y="-12.1"/>
      <point x="179.225" y="-153.1" type="curve"/>
      <point x="184.8125" y="-161.4125"/>
      <point x="189.4" y="-165.0"/>
      <point x="198.575" y="-165.0" type="curve"/>
      <point x="293.9625" y="-165.0" type="line" smooth="yes"/>
      <point x="305.1375" y="-165.0"/>
      <point x="307.8625" y="-156.6875"/>
      <point x="304.1375" y="-149.375" type="curve"/>
      <point x="234.1375" y="0.625"/>
      <point x="196.275" y="133.0"/>
      <point x="196.275" y="284.0" type="curve"/>
      <point x="196.275" y="443.0"/>
      <point x="239.65" y="597.1"/>
      <point x="305.65" y="728.1" type="curve"/>
      <point x="309.375" y="734.55"/>
      <point x="307.5125" y="742.0"/>
    </contour>
  </outline>
</glyph>
<glyph name="asterisk" format="2">
  <advance width="494.32500000000005"/>
  <unicode hex="002A"/>
  <outline>
    <contour>
      <point x="253.8" y="441.7625" type="curve"/>
      <point x="326.525" y="319.4125" type="line"/>
      <point x="330.975" y="312.23749999999995"/>
      <point x="342.7375" y="309.5125"/>
      <point x="355.3625" y="318.54999999999995" type="curve"/>
      <point x="409.13750000000005" y="355.975" type="line" smooth="yes"/>
      <point x="422.625" y="365.0125"/>
      <point x="423.625" y="375.775"/>
      <point x="417.175" y="383.225" type="curve"/>
      <point x="328.82500000000005" y="487.4" type="line" smooth="yes"/>
      <point x="324.2375" y="492.125"/>
      <point x="324.375" y="498.4375"/>
      <point x="330.82500000000005" y="500.3" type="curve"/>
      <point x="457.8" y="535.7125" type="line" smooth="yes"/>
      <point x="468.5625" y="538.4375"/>
      <point x="472.875" y="546.475"/>
      <point x="469.2875" y="557.5125" type="curve"/>
      <point x="448.4875" y="623.3625" type="line" smooth="yes"/>
      <point x="444.9" y="635.85"/>
      <point x="437.0" y="639.4375"/>
      <point x="426.1" y="634.85" type="curve"/>
      <point x="300.125" y="578.6375" type="line" smooth="yes"/>
      <point x="292.95" y="575.9125"/>
      <point x="290.0875" y="578.6375"/>
      <point x="290.95" y="586.0875" type="curve"/>
      <point x="303.7125" y="727.5125" type="line" smooth="yes"/>
      <point x="304.575" y="733.9625"/>
      <point x="300.125" y="742.0"/>
      <point x="290.0875" y="742.0" type="curve"/>
      <point x="208.3375" y="742.0" type="line" smooth="yes"/>
      <point x="198.1625" y="742.0"/>
      <point x="193.575" y="733.825"/>
      <point x="194.4375" y="727.5125" type="curve"/>
      <point x="205.75" y="586.95" type="line" smooth="yes"/>
      <point x="206.6125" y="579.5"/>
      <point x="201.1625" y="576.775"/>
      <point x="193.85" y="580.3625" type="curve"/>
      <point x="70.875" y="635.6125" type="line" smooth="yes"/>
      <point x="60.837500000000006" y="640.2"/>
      <point x="55.3875" y="635.75"/>
      <point x="51.8" y="626.7125" type="curve"/>
      <point x="27.4125" y="559.8625" type="line" smooth="yes"/>
      <point x="22.9625" y="548.1"/>
      <point x="26.4125" y="539.2"/>
      <point x="35.45" y="536.475" type="curve"/>
      <point x="165.15" y="501.025" type="line" smooth="yes"/>
      <point x="173.4625" y="499.1625"/>
      <point x="174.325" y="492.85"/>
      <point x="170.7375" y="488.2625" type="curve"/>
      <point x="78.525" y="379.675" type="line" smooth="yes"/>
      <point x="71.2125" y="370.5"/>
      <point x="72.075" y="365.05"/>
      <point x="81.975" y="357.875" type="curve"/>
      <point x="143.65" y="314.4125" type="line" smooth="yes"/>
      <point x="153.55" y="307.23749999999995"/>
      <point x="164.45" y="308.9625"/>
      <point x="168.9" y="316.1375" type="curve"/>
      <point x="243.03750000000002" y="441.7625" type="line" smooth="yes"/>
      <point x="245.7625" y="446.2125"/>
      <point x="251.075" y="446.2125"/>
    </contour>
  </outline>
</glyph>
<glyph name="comma" format="2">
  <advance width="266.35"/>
  <unicode hex="002C"/>
  <outline>
    <contour>
      <point x="55.175" y="-160.7375" type="curve"/>
      <point x="55.175" y="-160.7375" type="line"/>
      <point x="75.1125" y="-160.7375" type="line" smooth="yes"/>
      <point x="88.875" y="-160.7375"/>
      <point x="106.5375" y="-153.5625"/>
      <point x="116.30000000000001" y="-140.075" type="curve"/>
      <point x="222.4625" y="15.2125" type="line" smooth="yes"/>
      <point x="225.1875" y="19.9375"/>
      <point x="226.1875" y="23.075000000000003"/>
      <point x="226.1875" y="29.8" type="curve"/>
      <point x="226.1875" y="163.5625" type="line" smooth="yes"/>
      <point x="226.1875" y="175.325"/>
      <point x="220.7375" y="181.6375"/>
      <point x="209.8375" y="181.6375" type="curve"/>
      <point x="53.75" y="181.6375" type="line" smooth="yes"/>
      <point x="43.7125" y="181.6375"/>
      <point x="36.537499999999994" y="175.325"/>
      <point x="36.537499999999994" y="161.8375" type="curve"/>
      <point x="36.537499999999994" y="22.525" type="line" smooth="yes"/>
      <point x="36.537499999999994" y="7.3125"/>
      <point x="42.849999999999994" y="0.0"/>
      <point x="60.925" y="0.0" type="curve"/>
      <point x="81.1375" y="0.0" type="line" smooth="yes"/>
      <point x="96.175" y="0.0"/>
      <point x="98.175" y="-10.7625"/>
      <point x="90.0" y="-28.975" type="curve"/>
      <point x="40.9625" y="-137.8" type="line" smooth="yes"/>
      <point x="36.2375" y="-149.1125"/>
      <point x="43.4125" y="-160.7375"/>
    </contour>
  </outline>
</glyph>
<glyph name="hyphen" format="2">
  <advance width="380.1375"/>
  <unicode hex="002D"/>
  <outline>
    <contour>
      <point x="335.15" y="225.5375" type="curve"/>
      <point x="335.15" y="308.4625" type="line"/>
      <point x="335.15" y="319.3625"/>
      <point x="328.7" y="326.5375"/>
      <point x="318.6625" y="326.5375" type="curve"/>
      <point x="62.0625" y="326.4" type="line" smooth="yes"/>
      <point x="51.3" y="326.4"/>
      <point x="44.9875" y="319.225"/>
      <point x="44.9875" y="305.6" type="curve"/>
      <point x="44.9875" y="222.675" type="line" smooth="yes"/>
      <point x="44.9875" y="207.325"/>
      <point x="50.4375" y="200.15"/>
      <point x="68.5125" y="200.15" type="curve"/>
      <point x="305.3125" y="200.2875" type="line" smooth="yes"/>
      <point x="326.1125" y="200.2875"/>
      <point x="335.15" y="207.4625"/>
    </contour>
  </outline>
</glyph>
<glyph name="period" format="2">
  <advance width="265.6625"/>
  <unicode hex="002E"/>
  <outline>
    <contour>
      <point x="225.5" y="26.525" type="curve"/>
      <point x="225.5" y="165.875" type="line"/>
      <point x="225.5" y="177.91250000000002"/>
      <point x="220.05" y="184.22500000000002"/>
      <point x="209.0125" y="184.22500000000002" type="curve"/>
      <point x="53.2" y="184.22500000000002" type="line" smooth="yes"/>
      <point x="43.162499999999994" y="184.22500000000002"/>
      <point x="35.849999999999994" y="177.91250000000002"/>
      <point x="35.849999999999994" y="164.0125" type="curve"/>
      <point x="35.849999999999994" y="22.9375" type="line" smooth="yes"/>
      <point x="35.849999999999994" y="7.3125"/>
      <point x="42.162499999999994" y="0.0"/>
      <point x="60.5125" y="0.0" type="curve"/>
      <point x="195.25" y="0.0" type="line" smooth="yes"/>
      <point x="217.325" y="0.0"/>
      <point x="225.5" y="7.3125"/>
    </contour>
  </outline>
</glyph>
<glyph name="slash" format="2">
  <advance width="372.85"/>
  <unicode hex="002F"/>
  <outline>
    <contour>
      <point x="17.6875" y="-8.25" type="curve"/>
      <point x="17.6875" y="-8.25" type="line"/>
      <point x="93.2625" y="-8.25" type="line" smooth="yes"/>
      <point x="108.61250000000001" y="-8.25"/>
      <point x="118.65" y="-2.799999999999997"/>
      <point x="124.9625" y="15.275000000000006" type="curve"/>
      <point x="366.925" y="712.1625" type="line" smooth="yes"/>
      <point x="374.1" y="732.9625"/>
      <point x="369.65" y="742.0"/>
      <point x="351.575" y="742.0" type="curve"/>
      <point x="276.0" y="742.0" type="line" smooth="yes"/>
      <point x="265.1" y="742.0"/>
      <point x="256.0625" y="735.6875"/>
      <point x="252.475" y="725.65" type="curve"/>
      <point x="3.1999999999999993" y="8.825000000000003" type="line" smooth="yes"/>
      <point x="-0.3874999999999993" y="-1.9375"/>
      <point x="4.0625" y="-8.25"/>
    </contour>
  </outline>
</glyph>
<glyph name="zero" format="2">
  <advance width="715.5375"/>
  <unicode hex="0030"/>
  <outline>
    <contour>
      <point x="358.7" y="752.8625" type="curve"/>
      <point x="358.7" y="752.8625" type="line"/>
      <point x="173.1625" y="752.8625"/>
      <point x="37.599999999999994" y="595.0875"/>
      <point x="37.599999999999994" y="368.725" type="curve"/>
      <point x="37.599999999999994" y="143.775"/>
      <point x="170.3" y="-8.275"/>
      <point x="358.5625" y="-8.275" type="curve"/>
      <point x="545.9625" y="-8.275"/>
      <point x="677.9375" y="143.9125"/>
      <point x="677.9375" y="369.0" type="curve"/>
      <point x="677.9375" y="595.225"/>
      <point x="543.375" y="752.8625"/>
    </contour>
    <contour>
      <point x="357.975" y="132.05" type="curve"/>
      <point x="357.975" y="132.05" type="line"/>
      <point x="278.1" y="132.05"/>
      <point x="242.575" y="196.825"/>
      <point x="242.575" y="368.1375" type="curve"/>
      <point x="242.575" y="544.0375"/>
      <point x="278.9625" y="614.2625"/>
      <point x="357.8375" y="614.2625" type="curve"/>
      <point x="436.7125" y="614.2625"/>
      <point x="472.9625" y="545.0375"/>
      <point x="472.9625" y="368.1375" type="curve"/>
      <point x="472.9625" y="195.825"/>
      <point x="438.7125" y="132.05"/>
    </contour>
  </outline>
</glyph>
<glyph name="one" format="2">
  <advance width="523.3875"/>
  <unicode hex="0031"/>
  <outline>
    <contour>
      <point x="471.975" y="147.22500000000002" type="curve"/>
      <point x="471.975" y="147.22500000000002" type="line"/>
      <point x="377.3" y="147.22500000000002" type="line" smooth="yes"/>
      <point x="370.85" y="147.22500000000002"/>
      <point x="367.125" y="150.95"/>
      <point x="367.125" y="158.4" type="curve"/>
      <point x="367.125" y="722.65" type="line" smooth="yes"/>
      <point x="367.125" y="734.6875"/>
      <point x="360.675" y="742.0"/>
      <point x="350.5" y="742.0" type="curve"/>
      <point x="273.475" y="742.0" type="line" smooth="yes"/>
      <point x="255.9875" y="742.0"/>
      <point x="246.675" y="738.4125"/>
      <point x="227.325" y="729.1" type="curve"/>
      <point x="53.2375" y="642.125" type="line" smooth="yes"/>
      <point x="40.475" y="635.675"/>
      <point x="36.8875" y="631.3625"/>
      <point x="36.8875" y="615.875" type="curve"/>
      <point x="36.8875" y="540.125" type="line" smooth="yes"/>
      <point x="36.8875" y="522.05"/>
      <point x="45.0625" y="515.6"/>
      <point x="61.275" y="519.325" type="curve"/>
      <point x="149.525" y="542.55" type="line" smooth="yes"/>
      <point x="161.425" y="545.4125"/>
      <point x="165.0125" y="541.55"/>
      <point x="165.0125" y="530.5125" type="curve"/>
      <point x="165.0125" y="155.53750000000002" type="line" smooth="yes"/>
      <point x="165.0125" y="149.95"/>
      <point x="159.425" y="147.22500000000002"/>
      <point x="153.8375" y="147.22500000000002" type="curve"/>
      <point x="57.6875" y="147.22500000000002" type="line" smooth="yes"/>
      <point x="45.0625" y="147.22500000000002"/>
      <point x="37.8875" y="142.6375"/>
      <point x="37.8875" y="130.0125" type="curve"/>
      <point x="37.8875" y="18.9375" type="line" smooth="yes"/>
      <point x="37.8875" y="7.3125"/>
      <point x="44.2" y="0.0"/>
      <point x="59.4125" y="0.0" type="curve"/>
      <point x="470.25" y="0.0" type="line" smooth="yes"/>
      <point x="485.6" y="0.0"/>
      <point x="492.775" y="9.175"/>
      <point x="492.775" y="19.8" type="curve"/>
      <point x="492.775" y="130.0125" type="line" smooth="yes"/>
      <point x="492.775" y="142.6375"/>
      <point x="484.7375" y="147.22500000000002"/>
    </contour>
  </outline>
</glyph>
<glyph name="two" format="2">
  <advance width="658.975"/>
  <unicode hex="0032"/>
  <outline>
    <contour>
      <point x="262.325" y="324.7" type="curve"/>
      <point x="85.6625" y="171.95" type="line"/>
      <point x="35.849999999999994" y="130.7625"/>
      <point x="32.849999999999994" y="121.175"/>
      <point x="32.849999999999994" y="111.35000000000001" type="curve"/>
      <point x="32.849999999999994" y="23.2125" type="line" smooth="yes"/>
      <point x="32.849999999999994" y="4.725"/>
      <point x="39.3" y="0.0"/>
      <point x="57.7875" y="0.0" type="curve"/>
      <point x="598.775" y="0.0" type="line" smooth="yes"/>
      <point x="614.2625" y="0.0"/>
      <point x="621.4375" y="9.037500000000001"/>
      <point x="621.4375" y="20.075000000000003" type="curve"/>
      <point x="621.4375" y="147.85000000000002" type="line" smooth="yes"/>
      <point x="621.4375" y="160.75"/>
      <point x="613.4" y="165.3375"/>
      <point x="600.3625" y="165.3375" type="curve"/>
      <point x="302.7125" y="165.3375" type="line" smooth="yes"/>
      <point x="286.675" y="165.3375"/>
      <point x="287.9875" y="171.2"/>
      <point x="296.7125" y="177.3375" type="curve"/>
      <point x="476.8" y="307.95" type="line" smooth="yes"/>
      <point x="578.375" y="382.3375"/>
      <point x="614.3" y="442.3"/>
      <point x="614.3" y="521.225" type="curve"/>
      <point x="614.3" y="661.3625"/>
      <point x="502.2625" y="752.0"/>
      <point x="330.9875" y="752.0" type="curve"/>
      <point x="204.55" y="752.0"/>
      <point x="111.6875" y="699.1625"/>
      <point x="40.3" y="584.35" type="curve"/>
      <point x="31.849999999999998" y="571.3125"/>
      <point x="33.4375" y="556.375"/>
      <point x="48.3375" y="548.5125" type="curve"/>
      <point x="153.03750000000002" y="495.8375" type="line" smooth="yes"/>
      <point x="167.8" y="488.1125"/>
      <point x="178.1125" y="491.1125"/>
      <point x="182.8375" y="499.425" type="curve"/>
      <point x="227.1125" y="578.6375"/>
      <point x="267.4375" y="607.3625"/>
      <point x="319.675" y="607.3625" type="curve"/>
      <point x="378.25" y="607.3625"/>
      <point x="418.225" y="572.1625"/>
      <point x="418.225" y="520.325" type="curve"/>
      <point x="418.225" y="467.5125"/>
      <point x="395.375" y="437.1875"/>
    </contour>
  </outline>
</glyph>
<glyph name="three" format="2">
  <advance width="676.6125"/>
  <unicode hex="0033"/>
  <outline>
    <contour>
      <point x="61.575" y="621.7125" type="curve"/>
      <point x="61.575" y="621.7125" type="line"/>
      <point x="146.8875" y="542.1625" type="line" smooth="yes"/>
      <point x="156.3375" y="533.575"/>
      <point x="160.3375" y="533.575"/>
      <point x="169.7875" y="543.025" type="curve"/>
      <point x="224.1" y="594.6125"/>
      <point x="267.5375" y="615.125"/>
      <point x="326.7375" y="615.125" type="curve"/>
      <point x="381.2625" y="615.125"/>
      <point x="422.625" y="583.3125"/>
      <point x="422.625" y="542.9875" type="curve"/>
      <point x="422.625" y="492.525"/>
      <point x="375.925" y="456.575"/>
      <point x="305.225" y="453.125" type="curve"/>
      <point x="237.4" y="449.675" type="line" smooth="yes"/>
      <point x="225.5" y="447.95"/>
      <point x="218.05" y="443.225"/>
      <point x="218.05" y="434.05" type="curve"/>
      <point x="218.05" y="326.1125" type="line" smooth="yes"/>
      <point x="218.05" y="315.075"/>
      <point x="224.5" y="310.4875"/>
      <point x="237.4" y="310.4875" type="curve"/>
      <point x="322.225" y="308.7625" type="line" smooth="yes"/>
      <point x="392.275" y="307.0375"/>
      <point x="443.9" y="270.6"/>
      <point x="443.9" y="214.1125" type="curve"/>
      <point x="443.9" y="163.825"/>
      <point x="401.125" y="130.325"/>
      <point x="328.675" y="130.325" type="curve"/>
      <point x="254.85" y="130.325"/>
      <point x="214.0" y="154.775"/>
      <point x="153.1375" y="216.775" type="curve"/>
      <point x="147.55" y="223.22500000000002"/>
      <point x="140.375" y="223.6375"/>
      <point x="128.3375" y="215.91250000000002" type="curve"/>
      <point x="38.3375" y="152.7875" type="line" smooth="yes"/>
      <point x="25.4375" y="145.0625"/>
      <point x="22.987499999999997" y="132.125"/>
      <point x="31.299999999999997" y="119.5" type="curve"/>
      <point x="84.9125" y="42.7375"/>
      <point x="198.7625" y="-10.0"/>
      <point x="317.6375" y="-10.0" type="curve"/>
      <point x="535.3125" y="-10.0"/>
      <point x="642.5625" y="69.6125"/>
      <point x="642.5625" y="217.975" type="curve"/>
      <point x="642.5625" y="294.9625"/>
      <point x="587.675" y="359.375"/>
      <point x="503.95" y="387.275" type="curve"/>
      <point x="488.95" y="392.1375"/>
      <point x="489.8125" y="401.9"/>
      <point x="504.8125" y="406.9" type="curve"/>
      <point x="580.6375" y="430.725"/>
      <point x="619.5625" y="496.0375"/>
      <point x="619.5625" y="555.925" type="curve"/>
      <point x="619.5625" y="672.725"/>
      <point x="511.45" y="752.0"/>
      <point x="329.9125" y="752.0" type="curve"/>
      <point x="219.45" y="752.0"/>
      <point x="112.1875" y="709.475"/>
      <point x="61.575" y="645.7875" type="curve"/>
      <point x="55.125" y="635.8875"/>
      <point x="54.9875" y="629.1625"/>
    </contour>
  </outline>
</glyph>
<glyph name="four" format="2">
  <advance width="703.2125"/>
  <unicode hex="0034"/>
  <outline>
    <contour>
      <point x="355.2875" y="719.75" type="curve"/>
      <point x="355.2875" y="719.75" type="line"/>
      <point x="61.0" y="335.65" type="line" smooth="yes"/>
      <point x="40.2" y="308.4"/>
      <point x="31.299999999999997" y="294.6375"/>
      <point x="31.299999999999997" y="280.875" type="curve"/>
      <point x="31.299999999999997" y="186.9125" type="line" smooth="yes"/>
      <point x="31.299999999999997" y="174.6"/>
      <point x="38.75" y="166.5625"/>
      <point x="54.375" y="166.5625" type="curve"/>
      <point x="346.6625" y="166.5625" type="line" smooth="yes"/>
      <point x="354.3875" y="166.5625"/>
      <point x="359.8375" y="163.7"/>
      <point x="359.8375" y="157.1125" type="curve"/>
      <point x="358.975" y="22.8" type="line" smooth="yes"/>
      <point x="358.975" y="7.45"/>
      <point x="365.425" y="0.0"/>
      <point x="383.3625" y="0.0" type="curve"/>
      <point x="534.7" y="0.0" type="line" smooth="yes"/>
      <point x="555.5" y="0.0"/>
      <point x="564.5375" y="7.3125"/>
      <point x="564.5375" y="26.25" type="curve"/>
      <point x="564.5375" y="154.1125" type="line" smooth="yes"/>
      <point x="564.5375" y="163.7"/>
      <point x="569.2625" y="166.5625"/>
      <point x="575.9875" y="166.5625" type="curve"/>
      <point x="651.1125" y="166.5625" type="line" smooth="yes"/>
      <point x="666.7375" y="166.5625"/>
      <point x="673.1875" y="174.875"/>
      <point x="673.1875" y="186.9125" type="curve"/>
      <point x="673.1875" y="285.225" type="line" smooth="yes"/>
      <point x="673.1875" y="297.9875"/>
      <point x="665.7375" y="302.575"/>
      <point x="652.8375" y="302.575" type="curve"/>
      <point x="574.9875" y="302.575" type="line" smooth="yes"/>
      <point x="568.2625" y="302.575"/>
      <point x="564.5375" y="307.3"/>
      <point x="564.5375" y="314.025" type="curve"/>
      <point x="564.5375" y="722.65" type="line" smooth="yes"/>
      <point x="564.5375" y="734.6875"/>
      <point x="558.0875" y="742.0"/>
      <point x="546.9125" y="742.0" type="curve"/>
      <point x="401.2" y="742.0" type="line" smooth="yes"/>
      <point x="376.95" y="742.0"/>
      <point x="370.225" y="738.275"/>
    </contour>
    <contour>
      <point x="352.875" y="302.575" type="curve"/>
      <point x="197.525" y="302.575" type="line"/>
      <point x="184.9375" y="302.575"/>
      <point x="184.525" y="307.575"/>
      <point x="190.525" y="315.575" type="curve"/>
      <point x="347.875" y="533.25" type="line" smooth="yes"/>
      <point x="358.6" y="547.8375"/>
      <point x="361.875" y="547.5625"/>
      <point x="361.875" y="529.25" type="curve"/>
      <point x="361.875" y="309.575" type="line" smooth="yes"/>
      <point x="361.875" y="305.575"/>
      <point x="357.875" y="302.575"/>
    </contour>
  </outline>
</glyph>
<glyph name="five" format="2">
  <advance width="683.2625"/>
  <unicode hex="0035"/>
  <outline>
    <contour>
      <point x="567.5" y="742.0" type="curve"/>
      <point x="139.45" y="742.0" type="line"/>
      <point x="107.3375" y="742.0"/>
      <point x="100.575" y="735.9625"/>
      <point x="98.85" y="715.025" type="curve"/>
      <point x="70.125" y="400.3875" type="line" smooth="yes"/>
      <point x="68.2625" y="381.9375"/>
      <point x="67.575" y="373.275"/>
      <point x="82.025" y="365.4125" type="curve"/>
      <point x="187.6875" y="308.2875" type="line" smooth="yes"/>
      <point x="201.5875" y="300.8375"/>
      <point x="202.03750000000002" y="300.425"/>
      <point x="215.4875" y="306.425" type="curve"/>
      <point x="260.9" y="327.9375"/>
      <point x="290.5375" y="339.475"/>
      <point x="329.1" y="339.475" type="curve"/>
      <point x="409.2625" y="339.475"/>
      <point x="451.2375" y="293.375"/>
      <point x="451.2375" y="235.9625" type="curve"/>
      <point x="451.2375" y="176.5125"/>
      <point x="404.775" y="130.05"/>
      <point x="320.4625" y="130.05" type="curve"/>
      <point x="245.125" y="130.05"/>
      <point x="207.475" y="168.0875"/>
      <point x="164.72500000000002" y="215.775" type="curve"/>
      <point x="156.55" y="224.8125"/>
      <point x="146.5125" y="227.675"/>
      <point x="134.8875" y="219.5" type="curve"/>
      <point x="39.125" y="153.7875" type="line" smooth="yes"/>
      <point x="21.9125" y="142.6125"/>
      <point x="27.95" y="129.5375"/>
      <point x="37.2625" y="115.9125" type="curve"/>
      <point x="90.32499999999999" y="41.425"/>
      <point x="204.5125" y="-10.0"/>
      <point x="342.2625" y="-10.0" type="curve"/>
      <point x="526.5875" y="-10.0"/>
      <point x="649.9" y="83.0"/>
      <point x="649.9" y="242.1375" type="curve"/>
      <point x="649.9" y="395.9625"/>
      <point x="533.625" y="481.25"/>
      <point x="378.125" y="481.25" type="curve"/>
      <point x="328.0375" y="481.25"/>
      <point x="295.2875" y="471.225"/>
      <point x="242.97500000000002" y="455.3" type="curve"/>
      <point x="233.525" y="452.1625"/>
      <point x="225.9375" y="457.3"/>
      <point x="227.8" y="468.75" type="curve"/>
      <point x="237.5875" y="564.35" type="line" smooth="yes"/>
      <point x="238.45" y="576.3875"/>
      <point x="245.03750000000002" y="580.975"/>
      <point x="256.9375" y="580.975" type="curve"/>
      <point x="563.775" y="580.975" type="line" smooth="yes"/>
      <point x="581.5375" y="580.975"/>
      <point x="588.025" y="586.15"/>
      <point x="589.025" y="601.775" type="curve"/>
      <point x="594.6125" y="715.75" type="line" smooth="yes"/>
      <point x="595.6125" y="737.4125"/>
      <point x="593.6125" y="742.0"/>
    </contour>
  </outline>
</glyph>
<glyph name="six" format="2">
  <advance width="693.4375"/>
  <unicode hex="0036"/>
  <outline>
    <contour>
      <point x="372.3125" y="750.275" type="curve"/>
      <point x="372.3125" y="750.275" type="line"/>
      <point x="173.65" y="750.275"/>
      <point x="37.599999999999994" y="601.55"/>
      <point x="37.599999999999994" y="353.5125" type="curve"/>
      <point x="37.599999999999994" y="134.2125"/>
      <point x="161.75" y="-8.275"/>
      <point x="361.1125" y="-8.275" type="curve"/>
      <point x="530.2" y="-8.275"/>
      <point x="661.35" y="94.8"/>
      <point x="661.35" y="237.25" type="curve"/>
      <point x="661.35" y="366.15"/>
      <point x="555.3375" y="457.5625"/>
      <point x="400.475" y="457.5625" type="curve"/>
      <point x="340.075" y="457.5625"/>
      <point x="303.8125" y="442.95"/>
      <point x="261.6125" y="425.3" type="curve"/>
      <point x="241.575" y="417.3"/>
      <point x="237.9875" y="420.7125"/>
      <point x="237.9875" y="445.3" type="curve"/>
      <point x="237.9875" y="544.5375"/>
      <point x="288.2875" y="611.675"/>
      <point x="372.45" y="611.675" type="curve"/>
      <point x="421.2375" y="611.675"/>
      <point x="442.9875" y="586.3625"/>
      <point x="466.225" y="550.5" type="curve"/>
      <point x="469.3625" y="544.6375"/>
      <point x="475.225" y="534.875"/>
      <point x="486.9875" y="538.7375" type="curve"/>
      <point x="613.625" y="577.3" type="line" smooth="yes"/>
      <point x="626.525" y="581.3"/>
      <point x="626.1125" y="592.2"/>
      <point x="623.975" y="602.1" type="curve"/>
      <point x="607.9875" y="662.4875"/>
      <point x="514.275" y="750.275"/>
    </contour>
    <contour>
      <point x="356.175" y="327.5875" type="curve"/>
      <point x="356.175" y="327.5875" type="line"/>
      <point x="412.9375" y="327.5875"/>
      <point x="461.825" y="292.3"/>
      <point x="461.825" y="229.35" type="curve"/>
      <point x="461.825" y="166.75"/>
      <point x="414.4625" y="121.7"/>
      <point x="354.625" y="121.7" type="curve"/>
      <point x="283.5625" y="121.7"/>
      <point x="239.9875" y="184.1"/>
      <point x="239.9875" y="266.9875" type="curve"/>
      <point x="239.9875" y="286.225"/>
      <point x="242.4" y="290.9125"/>
      <point x="251.91250000000002" y="297.875" type="curve"/>
      <point x="272.5875" y="312.4875"/>
      <point x="319.325" y="327.5875"/>
    </contour>
  </outline>
</glyph>
<glyph name="seven" format="2">
  <advance width="625.8125"/>
  <unicode hex="0037"/>
  <outline>
    <contour>
      <point x="563.5" y="742.0" type="curve"/>
      <point x="69.4875" y="742.0" type="line"/>
      <point x="53.0" y="742.0"/>
      <point x="43.2375" y="736.6875"/>
      <point x="42.2375" y="726.375" type="curve"/>
      <point x="29.75" y="603.5" type="line" smooth="yes"/>
      <point x="28.8875" y="589.875"/>
      <point x="35.0625" y="580.975"/>
      <point x="53.725" y="580.975" type="curve"/>
      <point x="374.4" y="580.975" type="line" smooth="yes"/>
      <point x="389.7125" y="580.975"/>
      <point x="388.85" y="573.3875"/>
      <point x="382.9875" y="563.8" type="curve"/>
      <point x="227.3" y="315.8"/>
      <point x="170.15" y="174.8"/>
      <point x="127.525" y="26.8" type="curve"/>
      <point x="122.9375" y="10.175"/>
      <point x="129.3875" y="0.0"/>
      <point x="146.0125" y="0.0" type="curve"/>
      <point x="331.9875" y="0.0" type="line" smooth="yes"/>
      <point x="346.75" y="0.0"/>
      <point x="354.0625" y="9.3125"/>
      <point x="355.0625" y="30.3875" type="curve"/>
      <point x="363.8125" y="165.525"/>
      <point x="448.2375" y="416.3125"/>
      <point x="564.225" y="593.125" type="curve"/>
      <point x="575.5375" y="610.025"/>
      <point x="592.0625" y="642.625"/>
      <point x="592.925" y="655.9375" type="curve"/>
      <point x="596.375" y="717.025" type="line" smooth="yes"/>
      <point x="597.2375" y="730.375"/>
      <point x="585.75" y="742.0"/>
    </contour>
  </outline>
</glyph>
<glyph name="eight" format="2">
  <advance width="688.325"/>
  <unicode hex="0038"/>
  <outline>
    <contour>
      <point x="337.9" y="752.0" type="curve"/>
      <point x="337.9" y="752.0" type="line"/>
      <point x="159.6375" y="752.0"/>
      <point x="54.1875" y="645.025"/>
      <point x="54.1875" y="519.2625" type="curve"/>
      <point x="54.1875" y="435.4625"/>
      <point x="102.7125" y="395.4"/>
      <point x="151.6375" y="359.3625" type="curve"/>
      <point x="162.7375" y="351.225"/>
      <point x="160.15" y="348.0875"/>
      <point x="149.9125" y="342.9875" type="curve"/>
      <point x="61.425" y="295.8875"/>
      <point x="34.1875" y="246.7875"/>
      <point x="34.1875" y="182.4125" type="curve"/>
      <point x="34.1875" y="57.825"/>
      <point x="156.925" y="-10.0"/>
      <point x="332.45" y="-10.0" type="curve"/>
      <point x="523.0875" y="-10.0"/>
      <point x="655.55" y="71.5875"/>
      <point x="655.55" y="214.7375" type="curve"/>
      <point x="655.55" y="285.075"/>
      <point x="626.1125" y="337.1375"/>
      <point x="527.0375" y="393.4625" type="curve"/>
      <point x="515.45" y="401.6375"/>
      <point x="518.0375" y="407.3625"/>
      <point x="528.0375" y="412.6375" type="curve"/>
      <point x="590.1" y="445.4875"/>
      <point x="622.55" y="490.7625"/>
      <point x="622.55" y="544.6875" type="curve"/>
      <point x="622.55" y="662.5125"/>
      <point x="500.775" y="752.0"/>
    </contour>
    <contour>
      <point x="341.35" y="621.1625" type="curve"/>
      <point x="341.35" y="621.1625" type="line"/>
      <point x="414.125" y="621.1625"/>
      <point x="454.075" y="582.45"/>
      <point x="454.075" y="538.475" type="curve"/>
      <point x="454.075" y="495.05"/>
      <point x="410.375" y="440.825"/>
      <point x="372.2375" y="453.1375" type="curve"/>
      <point x="300.95" y="475.55" type="line" smooth="yes"/>
      <point x="262.9375" y="487.375"/>
      <point x="242.5" y="511.8125"/>
      <point x="242.5" y="544.275" type="curve"/>
      <point x="242.5" y="591.5625"/>
      <point x="285.825" y="621.1625"/>
    </contour>
    <contour>
      <point x="344.6625" y="120.8375" type="curve"/>
      <point x="344.6625" y="120.8375" type="line"/>
      <point x="244.4375" y="120.8375"/>
      <point x="204.3875" y="156.275"/>
      <point x="204.3875" y="213.6" type="curve"/>
      <point x="204.3875" y="272.3"/>
      <point x="261.325" y="314.8"/>
      <point x="300.325" y="301.4875" type="curve"/>
      <point x="382.4625" y="275.25" type="line" smooth="yes"/>
      <point x="440.45" y="256.3875"/>
      <point x="455.1625" y="230.6375"/>
      <point x="455.1625" y="197.9" type="curve"/>
      <point x="455.1625" y="150.925"/>
      <point x="415.15" y="120.8375"/>
    </contour>
  </outline>
</glyph>
<glyph name="nine" format="2">
  <advance width="692.75"/>
  <unicode hex="0039"/>
  <outline>
    <contour>
      <point x="321.2625" y="-8.275" type="curve"/>
      <point x="321.2625" y="-8.275" type="line"/>
      <point x="519.375" y="-8.275"/>
      <point x="655.15" y="140.45"/>
      <point x="655.15" y="388.4875" type="curve"/>
      <point x="655.15" y="607.7875"/>
      <point x="531.275" y="750.275"/>
      <point x="332.4625" y="750.275" type="curve"/>
      <point x="163.375" y="750.275"/>
      <point x="32.225" y="647.2"/>
      <point x="32.225" y="504.75" type="curve"/>
      <point x="32.225" y="375.85"/>
      <point x="138.375" y="284.4375"/>
      <point x="292.825" y="284.4375" type="curve"/>
      <point x="353.225" y="284.4375"/>
      <point x="389.2125" y="299.05"/>
      <point x="431.1375" y="316.7" type="curve"/>
      <point x="451.175" y="324.7"/>
      <point x="454.7625" y="321.2875"/>
      <point x="454.7625" y="296.7" type="curve"/>
      <point x="454.7625" y="197.4625"/>
      <point x="404.6" y="130.325"/>
      <point x="321.2625" y="130.325" type="curve"/>
      <point x="271.5125" y="130.325"/>
      <point x="249.2125" y="155.6375"/>
      <point x="225.97500000000002" y="191.5" type="curve"/>
      <point x="222.8375" y="197.3625"/>
      <point x="216.97500000000002" y="207.125"/>
      <point x="205.2125" y="203.2625" type="curve"/>
      <point x="78.575" y="164.7" type="line" smooth="yes"/>
      <point x="65.675" y="160.7"/>
      <point x="66.0875" y="149.8"/>
      <point x="68.225" y="139.9" type="curve"/>
      <point x="84.4875" y="79.5125"/>
      <point x="178.6125" y="-8.275"/>
    </contour>
    <contour>
      <point x="336.9875" y="414.4125" type="curve"/>
      <point x="336.9875" y="414.4125" type="line"/>
      <point x="280.775" y="414.4125"/>
      <point x="231.75" y="449.7"/>
      <point x="231.75" y="512.7875" type="curve"/>
      <point x="231.75" y="575.3875"/>
      <point x="279.1125" y="620.3"/>
      <point x="338.95" y="620.3" type="curve"/>
      <point x="409.6" y="620.3"/>
      <point x="453.0375" y="558.45"/>
      <point x="453.0375" y="475.975" type="curve"/>
      <point x="453.0375" y="456.7375"/>
      <point x="450.625" y="452.05"/>
      <point x="441.1125" y="445.0875" type="curve"/>
      <point x="420.575" y="429.925"/>
      <point x="374.3875" y="414.4125"/>
    </contour>
  </outline>
</glyph>
<glyph name="colon" format="2">
  <advance width="265.6625"/>
  <unicode hex="003A"/>
  <outline>
    <contour>
      <point x="225.5" y="367.3125" type="curve"/>
      <point x="225.5" y="503.2125" type="line"/>
      <point x="225.5" y="515.25"/>
      <point x="220.05" y="521.5625"/>
      <point x="209.0125" y="521.5625" type="curve"/>
      <point x="53.2" y="521.5625" type="line" smooth="yes"/>
      <point x="43.162499999999994" y="521.5625"/>
      <point x="35.849999999999994" y="515.25"/>
      <point x="35.849999999999994" y="501.35" type="curve"/>
      <point x="35.849999999999994" y="364.5875" type="line" smooth="yes"/>
      <point x="35.849999999999994" y="348.9625"/>
      <point x="42.162499999999994" y="340.7875"/>
      <point x="60.5125" y="340.7875" type="curve"/>
      <point x="195.25" y="340.7875" type="line" smooth="yes"/>
      <point x="217.325" y="340.7875"/>
      <point x="225.5" y="348.9625"/>
    </contour>
    <contour>
      <point x="225.5" y="29.525" type="curve"/>
      <point x="225.5" y="165.425" type="line"/>
      <point x="225.5" y="177.4625"/>
      <point x="220.05" y="183.775"/>
      <point x="209.0125" y="183.775" type="curve"/>
      <point x="53.2" y="183.775" type="line" smooth="yes"/>
      <point x="43.162499999999994" y="183.775"/>
      <point x="35.849999999999994" y="177.4625"/>
      <point x="35.849999999999994" y="163.5625" type="curve"/>
      <point x="35.849999999999994" y="26.8" type="line" smooth="yes"/>
      <point x="35.849999999999994" y="11.175"/>
      <point x="42.162499999999994" y="3.0"/>
      <point x="60.5125" y="3.0" type="curve"/>
      <point x="195.25" y="3.0" type="line" smooth="yes"/>
      <point x="217.325" y="3.0"/>
      <point x="225.5" y="11.175"/>
    </contour>
  </outline>
</glyph>
<glyph name="semicolon" format="2">
  <advance width="269.5125"/>
  <unicode hex="003B"/>
  <outline>
    <contour>
      <point x="55.175" y="-164.1875" type="curve"/>
      <point x="55.175" y="-164.1875" type="line"/>
      <point x="75.1125" y="-164.1875" type="line" smooth="yes"/>
      <point x="88.875" y="-164.1875"/>
      <point x="106.5375" y="-157.0125"/>
      <point x="116.30000000000001" y="-143.525" type="curve"/>
      <point x="222.4625" y="15.2125" type="line" smooth="yes"/>
      <point x="225.1875" y="19.9375"/>
      <point x="226.1875" y="23.075000000000003"/>
      <point x="226.1875" y="29.8" type="curve"/>
      <point x="226.1875" y="163.5625" type="line" smooth="yes"/>
      <point x="226.1875" y="175.325"/>
      <point x="220.7375" y="181.6375"/>
      <point x="209.8375" y="181.6375" type="curve"/>
      <point x="53.75" y="181.6375" type="line" smooth="yes"/>
      <point x="43.7125" y="181.6375"/>
      <point x="36.537499999999994" y="175.325"/>
      <point x="36.537499999999994" y="161.8375" type="curve"/>
      <point x="36.537499999999994" y="22.525" type="line" smooth="yes"/>
      <point x="36.537499999999994" y="7.3125"/>
      <point x="42.849999999999994" y="0.0"/>
      <point x="60.925" y="0.0" type="curve"/>
      <point x="81.1375" y="0.0" type="line" smooth="yes"/>
      <point x="96.175" y="0.0"/>
      <point x="97.3125" y="-10.7625"/>
      <point x="90.0" y="-28.975" type="curve"/>
      <point x="40.9625" y="-141.25" type="line" smooth="yes"/>
      <point x="36.2375" y="-152.5625"/>
      <point x="43.4125" y="-164.1875"/>
    </contour>
    <contour>
      <point x="60.5125" y="334.75" type="curve"/>
      <point x="60.5125" y="334.75" type="line"/>
      <point x="195.25" y="334.75" type="line" smooth="yes"/>
      <point x="217.325" y="334.75"/>
      <point x="225.5" y="342.0625"/>
      <point x="225.5" y="361.275" type="curve"/>
      <point x="225.5" y="500.625" type="line" smooth="yes"/>
      <point x="225.5" y="512.6625"/>
      <point x="220.05" y="518.975"/>
      <point x="209.0125" y="518.975" type="curve"/>
      <point x="53.2" y="518.975" type="line" smooth="yes"/>
      <point x="43.162499999999994" y="518.975"/>
      <point x="35.849999999999994" y="512.6625"/>
      <point x="35.849999999999994" y="498.7625" type="curve"/>
      <point x="35.849999999999994" y="357.6875" type="line" smooth="yes"/>
      <point x="35.849999999999994" y="342.0625"/>
      <point x="42.162499999999994" y="334.75"/>
    </contour>
  </outline>
</glyph>
<glyph name="less" format="2">
  <advance width="588.55"/>
  <unicode hex="003C"/>
  <outline>
    <contour>
      <point x="531.35" y="125.1375" type="curve"/>
      <point x="531.35" y="210.825" type="line"/>
      <point x="531.35" y="232.4875"/>
      <point x="519.5875" y="241.525"/>
      <point x="490.75" y="252.425" type="curve"/>
      <point x="228.8125" y="349.375" type="line"/>
      <point x="490.8875" y="448.775" type="line" smooth="yes"/>
      <point x="518.8625" y="459.675"/>
      <point x="531.4875" y="471.3"/>
      <point x="531.4875" y="491.1" type="curve"/>
      <point x="531.4875" y="577.475" type="line" smooth="yes"/>
      <point x="531.4875" y="595.2375"/>
      <point x="516.1375" y="607.8625"/>
      <point x="497.2375" y="600.275" type="curve"/>
      <point x="63.6875" y="432.4375" type="line" smooth="yes"/>
      <point x="48.3375" y="426.9875"/>
      <point x="38.4375" y="418.0875"/>
      <point x="38.4375" y="400.0125" type="curve"/>
      <point x="38.4375" y="299.4625" type="line" smooth="yes"/>
      <point x="38.4375" y="283.25"/>
      <point x="49.2" y="274.2125"/>
      <point x="63.6875" y="268.7625" type="curve"/>
      <point x="496.375" y="102.0625" type="line" smooth="yes"/>
      <point x="515.725" y="94.6125"/>
      <point x="531.35" y="101.19999999999999"/>
    </contour>
  </outline>
</glyph>
<glyph name="equal" format="2">
  <advance width="591.8875"/>
  <unicode hex="003D"/>
  <outline>
    <contour>
      <point x="549.4875" y="431.8125" type="curve"/>
      <point x="549.4875" y="515.325" type="line"/>
      <point x="549.4875" y="526.225"/>
      <point x="543.0375" y="533.4"/>
      <point x="533.0" y="533.4" type="curve"/>
      <point x="61.2" y="533.2625" type="line" smooth="yes"/>
      <point x="50.4375" y="533.2625"/>
      <point x="44.125" y="526.0875"/>
      <point x="44.125" y="512.4625" type="curve"/>
      <point x="44.125" y="428.95" type="line" smooth="yes"/>
      <point x="44.125" y="413.6"/>
      <point x="49.575" y="406.425"/>
      <point x="67.65" y="406.425" type="curve"/>
      <point x="519.65" y="406.5625" type="line" smooth="yes"/>
      <point x="540.45" y="406.5625"/>
      <point x="549.4875" y="413.7375"/>
    </contour>
    <contour>
      <point x="549.4875" y="193.7" type="curve"/>
      <point x="549.4875" y="277.2125" type="line"/>
      <point x="549.4875" y="288.1125"/>
      <point x="543.0375" y="295.2875"/>
      <point x="533.0" y="295.2875" type="curve"/>
      <point x="61.2" y="295.15" type="line" smooth="yes"/>
      <point x="50.4375" y="295.15"/>
      <point x="44.125" y="287.975"/>
      <point x="44.125" y="274.35" type="curve"/>
      <point x="44.125" y="190.8375" type="line" smooth="yes"/>
      <point x="44.125" y="175.4875"/>
      <point x="49.575" y="168.3125"/>
      <point x="67.65" y="168.3125" type="curve"/>
      <point x="519.65" y="168.45" type="line" smooth="yes"/>
      <point x="540.45" y="168.45"/>
      <point x="549.4875" y="175.625"/>
    </contour>
  </outline>
</glyph>
<glyph name="greater" format="2">
  <advance width="588.55"/>
  <unicode hex="003E"/>
  <outline>
    <contour>
      <point x="57.2" y="210.825" type="curve"/>
      <point x="57.2" y="210.825" type="line"/>
      <point x="57.2" y="125.1375" type="line" smooth="yes"/>
      <point x="57.2" y="101.19999999999999"/>
      <point x="72.825" y="94.6125"/>
      <point x="92.175" y="102.0625" type="curve"/>
      <point x="524.8625" y="268.7625" type="line" smooth="yes"/>
      <point x="539.35" y="274.2125"/>
      <point x="550.1125" y="283.25"/>
      <point x="550.1125" y="299.4625" type="curve"/>
      <point x="550.1125" y="400.0125" type="line" smooth="yes"/>
      <point x="550.1125" y="418.0875"/>
      <point x="540.2125" y="426.9875"/>
      <point x="524.8625" y="432.4375" type="curve"/>
      <point x="91.3125" y="600.275" type="line" smooth="yes"/>
      <point x="72.4125" y="607.8625"/>
      <point x="57.0625" y="595.2375"/>
      <point x="57.0625" y="577.475" type="curve"/>
      <point x="57.0625" y="491.1" type="line" smooth="yes"/>
      <point x="57.0625" y="471.3"/>
      <point x="69.6875" y="459.675"/>
      <point x="97.6625" y="448.775" type="curve"/>
      <point x="359.7375" y="349.375" type="line"/>
      <point x="97.8" y="252.425" type="line" smooth="yes"/>
      <point x="68.9625" y="241.525"/>
      <point x="57.2" y="232.4875"/>
    </contour>
  </outline>
</glyph>
<glyph name="question" format="2">
  <advance width="541.6"/>
  <unicode hex="003F"/>
  <outline>
    <contour>
      <point x="345.725" y="26.525" type="curve"/>
      <point x="345.725" y="162.425" type="line"/>
      <point x="345.725" y="174.4625"/>
      <point x="339.4125" y="180.775"/>
      <point x="329.2375" y="180.775" type="curve"/>
      <point x="173.425" y="180.775" type="line" smooth="yes"/>
      <point x="162.3875" y="180.775"/>
      <point x="156.075" y="174.325"/>
      <point x="156.075" y="160.5625" type="curve"/>
      <point x="156.075" y="22.9375" type="line" smooth="yes"/>
      <point x="156.075" y="7.3125"/>
      <point x="161.6625" y="0.0"/>
      <point x="179.875" y="0.0" type="curve"/>
      <point x="315.475" y="0.0" type="line" smooth="yes"/>
      <point x="336.6875" y="0.0"/>
      <point x="345.725" y="7.3125"/>
    </contour>
    <contour>
      <point x="11.225000000000001" y="569.25" type="curve"/>
      <point x="11.225000000000001" y="569.25" type="line"/>
      <point x="125.75" y="543.175" type="line" smooth="yes"/>
      <point x="139.375" y="540.3125"/>
      <point x="143.825" y="542.3125"/>
      <point x="149.275" y="553.9375" type="curve"/>
      <point x="170.55" y="604.4875"/>
      <point x="215.6" y="634.1"/>
      <point x="262.4125" y="634.1" type="curve"/>
      <point x="306.35" y="634.1"/>
      <point x="341.1625" y="608.5625"/>
      <point x="341.1625" y="569.1375" type="curve"/>
      <point x="341.1625" y="485.625"/>
      <point x="181.6" y="449.0125"/>
      <point x="181.6" y="278.8875" type="curve"/>
      <point x="181.6" y="261.675"/>
      <point x="190.6375" y="252.6375"/>
      <point x="205.125" y="252.6375" type="curve"/>
      <point x="299.4" y="252.6375" type="line" smooth="yes"/>
      <point x="312.025" y="252.6375"/>
      <point x="321.925" y="262.675"/>
      <point x="321.925" y="274.4375" type="curve"/>
      <point x="321.925" y="413.3125"/>
      <point x="515.675" y="425.775"/>
      <point x="515.675" y="578.625" type="curve"/>
      <point x="515.675" y="672.375"/>
      <point x="415.5625" y="752.0"/>
      <point x="264.1375" y="752.0" type="curve"/>
      <point x="135.5" y="752.0"/>
      <point x="45.05" y="696.2375"/>
      <point x="2.1875" y="593.6375" type="curve"/>
      <point x="-1.5375000000000014" y="583.7375"/>
      <point x="-0.5375000000000014" y="572.1125"/>
    </contour>
  </outline>
</glyph>
<glyph name="at" format="2">
  <advance width="834.0"/>
  <unicode hex="0040"/>
  <outline>
    <contour>
      <point x="667.25" y="-46.0" type="curve"/>
      <point x="667.25" y="-46.0" type="line"/>
      <point x="674.975" y="-40.275"/>
      <point x="680.3875" y="-34.275"/>
      <point x="674.25" y="-26.0" type="curve"/>
      <point x="638.1" y="22.775" type="line" smooth="yes"/>
      <point x="634.1" y="28.637500000000003"/>
      <point x="627.9625" y="30.5"/>
      <point x="617.375" y="23.775" type="curve"/>
      <point x="571.6875" y="-4.912500000000001"/>
      <point x="532.4125" y="-27.599999999999994"/>
      <point x="445.55" y="-27.599999999999994" type="curve"/>
      <point x="259.125" y="-27.599999999999994"/>
      <point x="139.95" y="75.65"/>
      <point x="139.95" y="264.0375" type="curve"/>
      <point x="139.95" y="428.125"/>
      <point x="229.9625" y="567.975"/>
      <point x="449.725" y="567.975" type="curve"/>
      <point x="586.1375" y="567.975"/>
      <point x="713.3625" y="511.85"/>
      <point x="713.3625" y="332.275" type="curve"/>
      <point x="713.3625" y="225.25"/>
      <point x="668.475" y="176.6125"/>
      <point x="627.7" y="176.6125" type="curve"/>
      <point x="607.4" y="176.6125"/>
      <point x="593.125" y="189.2625"/>
      <point x="600.675" y="232.1125" type="curve"/>
      <point x="636.0875" y="441.275" type="line" smooth="yes"/>
      <point x="637.0875" y="447.0"/>
      <point x="634.0875" y="449.0"/>
      <point x="628.3625" y="449.0" type="curve"/>
      <point x="549.3375" y="449.0" type="line" smooth="yes"/>
      <point x="543.6125" y="449.0"/>
      <point x="539.8875" y="447.1375"/>
      <point x="538.8875" y="442.275" type="curve"/>
      <point x="536.65" y="432.7375" type="line" smooth="yes"/>
      <point x="534.7875" y="426.0125"/>
      <point x="530.7875" y="425.15"/>
      <point x="527.2" y="428.875" type="curve"/>
      <point x="504.2" y="453.0375"/>
      <point x="477.5875" y="475.0"/>
      <point x="421.8625" y="475.0" type="curve"/>
      <point x="294.8875" y="475.0"/>
      <point x="215.75" y="364.375"/>
      <point x="215.75" y="243.8625" type="curve"/>
      <point x="214.8875" y="136.0"/>
      <point x="282.3375" y="67.0"/>
      <point x="371.3125" y="67.0" type="curve"/>
      <point x="427.5125" y="67.0"/>
      <point x="473.1" y="91.1"/>
      <point x="503.1" y="125.3375" type="curve"/>
      <point x="509.1" y="132.475"/>
      <point x="510.375" y="133.3375"/>
      <point x="515.825" y="125.925" type="curve"/>
      <point x="527.4125" y="107.8"/>
      <point x="554.55" y="81.0"/>
      <point x="615.4875" y="81.0" type="curve"/>
      <point x="733.7" y="81.0"/>
      <point x="814.25" y="187.0"/>
      <point x="814.25" y="338.275" type="curve"/>
      <point x="814.25" y="564.8625"/>
      <point x="633.3875" y="661.0"/>
      <point x="449.8625" y="661.0" type="curve"/>
      <point x="194.3" y="661.0"/>
      <point x="35.75" y="477.0"/>
      <point x="35.75" y="261.8625" type="curve"/>
      <point x="35.75" y="55.0"/>
      <point x="182.2" y="-113.0"/>
      <point x="429.2375" y="-113.0" type="curve"/>
      <point x="536.7" y="-113.0"/>
      <point x="622.5" y="-80.375"/>
    </contour>
    <contour>
      <point x="336.475" y="256.075" type="curve"/>
      <point x="336.475" y="256.075" type="line"/>
      <point x="336.475" y="321.9875"/>
      <point x="380.125" y="373.2125"/>
      <point x="430.7625" y="373.2125" type="curve"/>
      <point x="475.6875" y="373.2125"/>
      <point x="502.9125" y="330.8375"/>
      <point x="500.4375" y="280.6625" type="curve"/>
      <point x="498.5125" y="224.85"/>
      <point x="457.8" y="168.7875"/>
      <point x="403.05" y="168.7875" type="curve"/>
      <point x="357.5375" y="168.7875"/>
      <point x="336.475" y="210.025"/>
    </contour>
  </outline>
</glyph>
<glyph name="A" format="2">
  <advance width="785.3875"/>
  <unicode hex="0041"/>
  <anchor x="731.2875" y="9.275" name="ogonek"/>
  <anchor x="393.125" y="0.0" name="bottom"/>
  <anchor x="388.8125" y="742.0" name="top"/>
  <outline>
    <contour>
      <point x="45.3375" y="0.0" type="curve"/>
      <point x="45.3375" y="0.0" type="line"/>
      <point x="179.875" y="0.0" type="line" smooth="yes"/>
      <point x="192.775" y="0.0"/>
      <point x="199.3625" y="6.3125"/>
      <point x="202.0875" y="13.9" type="curve"/>
      <point x="248.8625" y="146.475" type="line" smooth="yes"/>
      <point x="250.8625" y="153.2"/>
      <point x="255.45" y="156.925"/>
      <point x="263.175" y="156.925" type="curve"/>
      <point x="490.3" y="156.925" type="line" smooth="yes"/>
      <point x="499.75" y="156.925"/>
      <point x="501.75" y="152.33749999999998"/>
      <point x="504.6125" y="145.6125" type="curve"/>
      <point x="549.3875" y="15.7625" type="line" smooth="yes"/>
      <point x="553.1125" y="3.725"/>
      <point x="560.5625" y="0.0"/>
      <point x="570.15" y="0.0" type="curve"/>
      <point x="742.5" y="0.0" type="line" smooth="yes"/>
      <point x="756.4" y="0.0"/>
      <point x="760.2625" y="17.8"/>
      <point x="755.675" y="30.700000000000003" type="curve"/>
      <point x="512.65" y="717.3375" type="line" smooth="yes"/>
      <point x="507.2" y="732.1"/>
      <point x="495.1625" y="742.0"/>
      <point x="479.125" y="742.0" type="curve"/>
      <point x="304.675" y="742.0" type="line" smooth="yes"/>
      <point x="287.9125" y="742.0"/>
      <point x="282.1875" y="735.55"/>
      <point x="276.6" y="720.65" type="curve"/>
      <point x="31.4375" y="33.150000000000006" type="line" smooth="yes"/>
      <point x="24.2625" y="13.350000000000001"/>
      <point x="31.575" y="0.0"/>
    </contour>
    <contour>
      <point x="444.8375" y="309.05" type="curve"/>
      <point x="306.5" y="309.05" type="line"/>
      <point x="295.325" y="309.05"/>
      <point x="292.4625" y="316.0875"/>
      <point x="297.1875" y="328.2625" type="curve"/>
      <point x="369.7375" y="528.65" type="line" smooth="yes"/>
      <point x="372.15" y="536.6125"/>
      <point x="378.875" y="536.6125"/>
      <point x="382.15" y="528.7875" type="curve"/>
      <point x="453.5625" y="327.675" type="line" smooth="yes"/>
      <point x="457.2875" y="315.6375"/>
      <point x="455.425" y="309.05"/>
    </contour>
  </outline>
</glyph>
<glyph name="B" format="2">
  <advance width="731.4375"/>
  <unicode hex="0042"/>
  <outline>
    <contour>
      <point x="81.4625" y="0.0" type="curve"/>
      <point x="81.4625" y="0.0" type="line"/>
      <point x="382.75" y="0.0" type="line" smooth="yes"/>
      <point x="593.1125" y="0.0"/>
      <point x="696.1125" y="65.0"/>
      <point x="696.1125" y="201.3125" type="curve"/>
      <point x="696.1125" y="288.375"/>
      <point x="654.3625" y="340.475"/>
      <point x="547.1125" y="378.175" type="curve"/>
      <point x="543.7" y="379.175"/>
      <point x="543.7" y="384.3125"/>
      <point x="547.1125" y="385.45" type="curve"/>
      <point x="645.4625" y="428.8375"/>
      <point x="678.1125" y="475.625"/>
      <point x="678.1125" y="546.6875" type="curve"/>
      <point x="678.1125" y="675.0"/>
      <point x="569.9" y="742.0"/>
      <point x="368.5375" y="742.0" type="curve"/>
      <point x="83.32499999999999" y="742.0" type="line" smooth="yes"/>
      <point x="69.425" y="742.0"/>
      <point x="60.525" y="732.2375"/>
      <point x="60.525" y="718.2" type="curve"/>
      <point x="60.525" y="20.075000000000003" type="line" smooth="yes"/>
      <point x="60.525" y="9.037500000000001"/>
      <point x="68.69999999999999" y="0.0"/>
    </contour>
    <contour>
      <point x="377.75" y="134.875" type="curve"/>
      <point x="278.2625" y="134.875" type="line"/>
      <point x="266.3625" y="134.875"/>
      <point x="262.6375" y="141.325"/>
      <point x="262.6375" y="155.22500000000002" type="curve"/>
      <point x="262.6375" y="286.4875" type="line" smooth="yes"/>
      <point x="262.6375" y="300.3875"/>
      <point x="268.225" y="305.8375"/>
      <point x="283.9875" y="305.8375" type="curve"/>
      <point x="383.9875" y="305.8375" type="line" smooth="yes"/>
      <point x="444.3" y="305.8375"/>
      <point x="485.9625" y="273.9125"/>
      <point x="485.9625" y="222.05" type="curve"/>
      <point x="485.9625" y="173.425"/>
      <point x="449.5" y="134.875"/>
    </contour>
    <contour>
      <point x="383.9875" y="444.1625" type="curve"/>
      <point x="278.2625" y="444.1625" type="line"/>
      <point x="266.3625" y="444.1625"/>
      <point x="262.6375" y="450.6125"/>
      <point x="262.6375" y="464.5125" type="curve"/>
      <point x="262.6375" y="588.775" type="line" smooth="yes"/>
      <point x="262.6375" y="602.5375"/>
      <point x="268.225" y="607.125"/>
      <point x="283.7125" y="607.125" type="curve"/>
      <point x="375.75" y="607.125" type="line" smooth="yes"/>
      <point x="434.85" y="607.125"/>
      <point x="478.3125" y="576.375"/>
      <point x="478.3125" y="523.575" type="curve"/>
      <point x="478.3125" y="473.1625"/>
      <point x="437.3125" y="444.1625"/>
    </contour>
  </outline>
</glyph>
<glyph name="C" format="2">
  <advance width="731.225"/>
  <unicode hex="0043"/>
  <anchor x="383.625" y="742.0" name="top"/>
  <anchor x="382.725" y="0.0" name="bottom"/>
  <outline>
    <contour>
      <point x="383.625" y="752.0" type="curve"/>
      <point x="383.625" y="752.0" type="line"/>
      <point x="170.75" y="752.0"/>
      <point x="36.599999999999994" y="606.55"/>
      <point x="36.599999999999994" y="379.2125" type="curve"/>
      <point x="36.599999999999994" y="151.15"/>
      <point x="170.75" y="-10.0"/>
      <point x="382.725" y="-10.0" type="curve"/>
      <point x="598.6" y="-10.0"/>
      <point x="686.525" y="152.425"/>
      <point x="699.9625" y="214.125" type="curve"/>
      <point x="703.55" y="237.1"/>
      <point x="693.925" y="241.6875"/>
      <point x="687.6125" y="243.55" type="curve"/>
      <point x="575.125" y="266.4875" type="line" smooth="yes"/>
      <point x="560.9125" y="269.2125"/>
      <point x="552.875" y="266.4875"/>
      <point x="550.15" y="259.3125" type="curve"/>
      <point x="514.4625" y="168.97500000000002"/>
      <point x="461.4" y="137.22500000000002"/>
      <point x="389.3125" y="137.22500000000002" type="curve"/>
      <point x="295.6625" y="137.22500000000002"/>
      <point x="248.47500000000002" y="203.8875"/>
      <point x="248.47500000000002" y="375.7625" type="curve"/>
      <point x="248.47500000000002" y="547.0125"/>
      <point x="301.975" y="613.4"/>
      <point x="389.075" y="613.4" type="curve"/>
      <point x="459.8875" y="613.4"/>
      <point x="493.3125" y="565.925"/>
      <point x="505.9625" y="502.8375" type="curve"/>
      <point x="508.6875" y="489.9375"/>
      <point x="509.825" y="485.35"/>
      <point x="523.3125" y="485.4875" type="curve"/>
      <point x="679.2" y="495.525" type="line" smooth="yes"/>
      <point x="692.825" y="497.25"/>
      <point x="696.4125" y="501.8375"/>
      <point x="691.1" y="526.675" type="curve"/>
      <point x="667.025" y="655.55"/>
      <point x="546.1625" y="752.0"/>
    </contour>
  </outline>
</glyph>
<glyph name="D" format="2">
  <advance width="761.65"/>
  <unicode hex="0044"/>
  <anchor x="383.4" y="371.0" name="center"/>
  <anchor x="382.575" y="742.0" name="top"/>
  <outline>
    <contour>
      <point x="85.1875" y="742.0" type="curve"/>
      <point x="85.1875" y="742.0" type="line"/>
      <point x="66.975" y="742.0"/>
      <point x="60.525" y="736.275"/>
      <point x="60.525" y="719.0625" type="curve"/>
      <point x="60.525" y="27.25" type="line" smooth="yes"/>
      <point x="60.525" y="7.3125"/>
      <point x="68.69999999999999" y="0.0"/>
      <point x="86.775" y="0.0" type="curve"/>
      <point x="327.6375" y="0.0" type="line" smooth="yes"/>
      <point x="592.15" y="0.0"/>
      <point x="724.325" y="151.225"/>
      <point x="724.325" y="372.9625" type="curve"/>
      <point x="724.325" y="588.3625"/>
      <point x="599.075" y="732.9625"/>
      <point x="330.425" y="741.0" type="curve"/>
      <point x="279.025" y="742.725"/>
      <point x="143.3875" y="742.0"/>
    </contour>
    <contour>
      <point x="272.6375" y="600.95" type="curve"/>
      <point x="272.6375" y="600.95" type="line"/>
      <point x="300.625" y="600.95" type="line" smooth="yes"/>
      <point x="446.025" y="600.95"/>
      <point x="512.45" y="529.5"/>
      <point x="512.45" y="373.5875" type="curve"/>
      <point x="512.45" y="203.3125"/>
      <point x="432.2875" y="140.91250000000002"/>
      <point x="289.1375" y="140.91250000000002" type="curve"/>
      <point x="276.225" y="140.91250000000002" type="line" smooth="yes"/>
      <point x="265.6375" y="140.91250000000002"/>
      <point x="262.6375" y="143.91250000000002"/>
      <point x="262.6375" y="155.0875" type="curve"/>
      <point x="262.6375" y="586.95" type="line" smooth="yes"/>
      <point x="262.6375" y="597.5375"/>
      <point x="265.5" y="600.95"/>
    </contour>
  </outline>
</glyph>
<glyph name="E" format="2">
  <advance width="662.8875"/>
  <unicode hex="0045"/>
  <anchor x="601.6125" y="10.0" name="ogonek"/>
  <anchor x="339.85" y="0.0" name="bottom"/>
  <anchor x="337.2375" y="742.0" name="top"/>
  <outline>
    <contour>
      <point x="60.525" y="720.7875" type="curve"/>
      <point x="60.525" y="720.7875" type="line"/>
      <point x="60.525" y="22.9375" type="line" smooth="yes"/>
      <point x="60.525" y="7.175000000000001"/>
      <point x="66.8375" y="0.0"/>
      <point x="85.05" y="0.0" type="curve"/>
      <point x="605.6125" y="0.0" type="line" smooth="yes"/>
      <point x="620.9625" y="0.0"/>
      <point x="627.275" y="8.9"/>
      <point x="627.275" y="19.9375" type="curve"/>
      <point x="627.275" y="129.60000000000002" type="line" smooth="yes"/>
      <point x="627.275" y="142.5"/>
      <point x="620.1" y="146.95"/>
      <point x="607.2" y="146.95" type="curve"/>
      <point x="274.225" y="146.95" type="line" smooth="yes"/>
      <point x="265.5" y="146.95"/>
      <point x="262.6375" y="149.675"/>
      <point x="262.6375" y="160.2625" type="curve"/>
      <point x="262.6375" y="287.35" type="line" smooth="yes"/>
      <point x="262.6375" y="295.35"/>
      <point x="268.0875" y="300.6625"/>
      <point x="277.675" y="300.6625" type="curve"/>
      <point x="476.8375" y="300.6625" type="line" smooth="yes"/>
      <point x="488.875" y="300.6625"/>
      <point x="493.4625" y="307.7"/>
      <point x="493.4625" y="316.2875" type="curve"/>
      <point x="493.4625" y="426.8125" type="line" smooth="yes"/>
      <point x="493.4625" y="438.7125"/>
      <point x="487.15" y="445.025"/>
      <point x="474.3875" y="445.025" type="curve"/>
      <point x="279.4" y="445.025" type="line" smooth="yes"/>
      <point x="269.8125" y="445.025"/>
      <point x="262.6375" y="451.2"/>
      <point x="262.6375" y="464.1" type="curve"/>
      <point x="262.6375" y="577.425" type="line" smooth="yes"/>
      <point x="262.6375" y="589.7375"/>
      <point x="269.8125" y="595.05"/>
      <point x="283.7125" y="595.05" type="curve"/>
      <point x="593.0625" y="595.05" type="line" smooth="yes"/>
      <point x="609.4125" y="595.05"/>
      <point x="616.5875" y="604.675"/>
      <point x="616.5875" y="619.3" type="curve"/>
      <point x="617.45" y="722.925" type="line" smooth="yes"/>
      <point x="617.45" y="734.825"/>
      <point x="612.0" y="742.0"/>
      <point x="600.9625" y="742.0" type="curve"/>
      <point x="78.15" y="742.0" type="line" smooth="yes"/>
      <point x="66.8375" y="742.0"/>
      <point x="60.525" y="734.825"/>
    </contour>
  </outline>
</glyph>
<glyph name="F" format="2">
  <advance width="640.7875"/>
  <unicode hex="0046"/>
  <outline>
    <contour>
      <point x="60.525" y="720.7875" type="curve"/>
      <point x="60.525" y="720.7875" type="line"/>
      <point x="60.525" y="22.9375" type="line" smooth="yes"/>
      <point x="60.525" y="7.175000000000001"/>
      <point x="65.975" y="0.0"/>
      <point x="85.05" y="0.0" type="curve"/>
      <point x="233.2125" y="0.0" type="line" smooth="yes"/>
      <point x="253.7375" y="0.0"/>
      <point x="262.6375" y="7.175000000000001"/>
      <point x="262.6375" y="25.975" type="curve"/>
      <point x="262.6375" y="279.525" type="line" smooth="yes"/>
      <point x="262.6375" y="288.3875"/>
      <point x="268.0875" y="293.7"/>
      <point x="277.675" y="293.7" type="curve"/>
      <point x="479.9375" y="293.7" type="line" smooth="yes"/>
      <point x="492.8375" y="293.7"/>
      <point x="496.5625" y="299.875"/>
      <point x="496.5625" y="309.325" type="curve"/>
      <point x="496.5625" y="418.125" type="line" smooth="yes"/>
      <point x="496.5625" y="430.025"/>
      <point x="491.1125" y="436.3375"/>
      <point x="478.35" y="436.3375" type="curve"/>
      <point x="279.4" y="436.3375" type="line" smooth="yes"/>
      <point x="268.95" y="436.3375"/>
      <point x="262.6375" y="441.65"/>
      <point x="262.6375" y="454.55" type="curve"/>
      <point x="262.6375" y="577.425" type="line" smooth="yes"/>
      <point x="262.6375" y="589.7375"/>
      <point x="268.95" y="595.05"/>
      <point x="283.7125" y="595.05" type="curve"/>
      <point x="586.5125" y="595.05" type="line" smooth="yes"/>
      <point x="602.8625" y="595.05"/>
      <point x="609.175" y="604.675"/>
      <point x="609.175" y="619.3" type="curve"/>
      <point x="610.0375" y="722.925" type="line" smooth="yes"/>
      <point x="610.0375" y="734.825"/>
      <point x="604.5875" y="742.0"/>
      <point x="593.55" y="742.0" type="curve"/>
      <point x="78.15" y="742.0" type="line" smooth="yes"/>
      <point x="67.69999999999999" y="742.0"/>
      <point x="60.525" y="734.825"/>
    </contour>
  </outline>
</glyph>
<glyph name="G" format="2">
  <advance width="756.7375"/>
  <unicode hex="0047"/>
  <anchor x="380.9" y="742.0" name="top"/>
  <anchor x="381.5875" y="0.0" name="bottom"/>
  <outline>
    <contour>
      <point x="379.0375" y="-10.0" type="curve"/>
      <point x="379.0375" y="-10.0" type="line"/>
      <point x="496.075" y="-10.0"/>
      <point x="550.1" y="40.6875"/>
      <point x="586.5125" y="80.5" type="curve"/>
      <point x="591.375" y="86.63749999999999"/>
      <point x="594.5125" y="86.5"/>
      <point x="597.1" y="82.225" type="curve"/>
      <point x="631.6" y="17.625" type="line" smooth="yes"/>
      <point x="640.225" y="4.3125"/>
      <point x="649.5375" y="0.0"/>
      <point x="660.9875" y="0.0" type="curve"/>
      <point x="696.1" y="0.0" type="line" smooth="yes"/>
      <point x="705.6875" y="0.0"/>
      <point x="712.1375" y="7.175000000000001"/>
      <point x="712.1375" y="16.175" type="curve"/>
      <point x="712.1375" y="347.7125" type="line" smooth="yes"/>
      <point x="712.1375" y="363.7875"/>
      <point x="700.65" y="375.275"/>
      <point x="678.5375" y="375.275" type="curve"/>
      <point x="404.5875" y="377.0" type="line" smooth="yes"/>
      <point x="391.2375" y="377.0"/>
      <point x="385.7875" y="370.6875"/>
      <point x="385.7875" y="361.5125" type="curve"/>
      <point x="385.7875" y="275.55" type="line" smooth="yes"/>
      <point x="385.7875" y="260.3375"/>
      <point x="391.2375" y="255.75"/>
      <point x="404.0" y="255.75" type="curve"/>
      <point x="511.0625" y="255.75" type="line" smooth="yes"/>
      <point x="520.5125" y="255.75"/>
      <point x="523.7875" y="250.4375"/>
      <point x="520.3375" y="239.9875" type="curve"/>
      <point x="517.75" y="221.3625" type="line" smooth="yes"/>
      <point x="502.225" y="168.7625"/>
      <point x="463.0" y="130.325"/>
      <point x="392.975" y="130.325" type="curve"/>
      <point x="305.0125" y="130.325"/>
      <point x="248.47500000000002" y="187.5"/>
      <point x="248.47500000000002" y="374.0" type="curve"/>
      <point x="248.47500000000002" y="549.5"/>
      <point x="300.1125" y="612.5375"/>
      <point x="386.075" y="612.5375" type="curve"/>
      <point x="462.75" y="612.5375"/>
      <point x="504.625" y="559.7875"/>
      <point x="515.45" y="500.1125" type="curve"/>
      <point x="518.175" y="488.2125"/>
      <point x="519.45" y="481.9"/>
      <point x="533.6625" y="482.0375" type="curve"/>
      <point x="685.9625" y="505.2875" type="line" smooth="yes"/>
      <point x="700.45" y="507.15"/>
      <point x="703.9" y="511.875"/>
      <point x="698.725" y="536.575" type="curve"/>
      <point x="676.375" y="643.1625"/>
      <point x="562.55" y="752.0"/>
      <point x="390.3875" y="752.0" type="curve"/>
      <point x="180.925" y="752.0"/>
      <point x="36.599999999999994" y="601.0625"/>
      <point x="36.599999999999994" y="368.0" type="curve"/>
      <point x="36.599999999999994" y="142.8"/>
      <point x="171.6125" y="-10.0"/>
    </contour>
  </outline>
</glyph>
<glyph name="H" format="2">
  <advance width="756.9125"/>
  <unicode hex="0048"/>
  <anchor x="377.6625" y="742.0" name="top"/>
  <anchor x="375.9375" y="0.0" name="bottom"/>
  <outline>
    <contour>
      <point x="277.2625" y="306.4875" type="curve"/>
      <point x="479.5125" y="306.4875" type="line"/>
      <point x="488.825" y="306.4875"/>
      <point x="494.275" y="300.175"/>
      <point x="494.275" y="292.5875" type="curve"/>
      <point x="494.275" y="26.25" type="line" smooth="yes"/>
      <point x="494.275" y="7.175000000000001"/>
      <point x="503.3125" y="0.0"/>
      <point x="524.1125" y="0.0" type="curve"/>
      <point x="671.8625" y="0.0" type="line" smooth="yes"/>
      <point x="690.8" y="0.0"/>
      <point x="696.3875" y="7.3125"/>
      <point x="696.3875" y="22.9375" type="curve"/>
      <point x="696.3875" y="720.7875" type="line" smooth="yes"/>
      <point x="696.3875" y="734.825"/>
      <point x="689.2125" y="742.0"/>
      <point x="678.7625" y="742.0" type="curve"/>
      <point x="510.9" y="742.0" type="line" smooth="yes"/>
      <point x="500.5875" y="742.0"/>
      <point x="494.275" y="734.6875"/>
      <point x="494.275" y="722.65" type="curve"/>
      <point x="494.275" y="478.6875" type="line" smooth="yes"/>
      <point x="494.275" y="466.65"/>
      <point x="487.9625" y="460.3375"/>
      <point x="477.65" y="460.3375" type="curve"/>
      <point x="279.4" y="460.3375" type="line" smooth="yes"/>
      <point x="268.95" y="460.3375"/>
      <point x="262.6375" y="466.5125"/>
      <point x="262.6375" y="478.825" type="curve"/>
      <point x="262.6375" y="722.5125" type="line" smooth="yes"/>
      <point x="262.6375" y="734.825"/>
      <point x="256.325" y="742.0"/>
      <point x="245.875" y="742.0" type="curve"/>
      <point x="78.15" y="742.0" type="line" smooth="yes"/>
      <point x="67.69999999999999" y="742.0"/>
      <point x="60.525" y="734.825"/>
      <point x="60.525" y="720.7875" type="curve"/>
      <point x="60.525" y="22.9375" type="line" smooth="yes"/>
      <point x="60.525" y="7.3125"/>
      <point x="65.975" y="0.0"/>
      <point x="85.05" y="0.0" type="curve"/>
      <point x="232.8" y="0.0" type="line" smooth="yes"/>
      <point x="253.60000000000002" y="0.0"/>
      <point x="262.6375" y="7.3125"/>
      <point x="262.6375" y="26.25" type="curve"/>
      <point x="262.6375" y="292.725" type="line" smooth="yes"/>
      <point x="262.6375" y="300.0375"/>
      <point x="268.0875" y="306.4875"/>
    </contour>
  </outline>
</glyph>
<glyph name="I" format="2">
  <advance width="323.1625"/>
  <unicode hex="0049"/>
  <anchor x="233.525" y="10.0" name="ogonek"/>
  <anchor x="161.15" y="0.0" name="bottom"/>
  <anchor x="162.425" y="742.0" name="top"/>
  <outline>
    <contour>
      <point x="245.875" y="742.0" type="curve"/>
      <point x="78.15" y="742.0" type="line"/>
      <point x="67.69999999999999" y="742.0"/>
      <point x="60.525" y="734.825"/>
      <point x="60.525" y="720.7875" type="curve"/>
      <point x="60.525" y="22.9375" type="line" smooth="yes"/>
      <point x="60.525" y="7.175000000000001"/>
      <point x="65.975" y="0.0"/>
      <point x="85.32499999999999" y="0.0" type="curve"/>
      <point x="232.525" y="0.0" type="line" smooth="yes"/>
      <point x="253.7375" y="0.0"/>
      <point x="262.6375" y="7.175000000000001"/>
      <point x="262.6375" y="26.6625" type="curve"/>
      <point x="262.6375" y="722.5125" type="line" smooth="yes"/>
      <point x="262.6375" y="734.825"/>
      <point x="257.1875" y="742.0"/>
    </contour>
  </outline>
</glyph>
<glyph name="J" format="2">
  <advance width="457.65"/>
  <unicode hex="004A"/>
  <anchor x="246.1625" y="742.0" name="top"/>
  <outline>
    <contour>
      <point x="401.9875" y="202.65" type="curve"/>
      <point x="401.9875" y="202.65" type="line"/>
      <point x="401.9875" y="722.5125" type="line" smooth="yes"/>
      <point x="401.9875" y="734.6875"/>
      <point x="396.5375" y="742.0"/>
      <point x="385.3625" y="742.0" type="curve"/>
      <point x="218.225" y="742.0" type="line" smooth="yes"/>
      <point x="207.05" y="742.0"/>
      <point x="199.875" y="734.6875"/>
      <point x="199.875" y="720.925" type="curve"/>
      <point x="199.875" y="252.325" type="line" smooth="yes"/>
      <point x="199.875" y="180.8875"/>
      <point x="171.8375" y="155.6125"/>
      <point x="120.63749999999999" y="155.6125" type="curve"/>
      <point x="94.925" y="155.6125"/>
      <point x="77.2375" y="161.9875"/>
      <point x="60.55" y="165.0875" type="curve"/>
      <point x="46.2" y="167.0875"/>
      <point x="39.75" y="158.325"/>
      <point x="38.75" y="144.7" type="curve"/>
      <point x="29.75" y="42.1125" type="line" smooth="yes"/>
      <point x="27.8875" y="17.4125"/>
      <point x="36.7875" y="7.512499999999999"/>
      <point x="57.0375" y="3.7874999999999996" type="curve"/>
      <point x="96.8125" y="-3.8000000000000007"/>
      <point x="135.775" y="-10.0"/>
      <point x="178.7" y="-10.0" type="curve"/>
      <point x="326.5875" y="-10.0"/>
      <point x="401.9875" y="48.1375"/>
    </contour>
  </outline>
</glyph>
<glyph name="K" format="2">
  <advance width="758.525"/>
  <unicode hex="004B"/>
  <anchor x="371.275" y="742.0" name="top"/>
  <anchor x="367.15" y="0.0" name="bottom"/>
  <outline>
    <contour>
      <point x="728.225" y="27.700000000000003" type="curve"/>
      <point x="728.225" y="27.700000000000003" type="line"/>
      <point x="501.70000000000005" y="475.1875" type="line" smooth="yes"/>
      <point x="496.25" y="487.8125"/>
      <point x="497.1125" y="493.85"/>
      <point x="504.2875" y="503.6125" type="curve"/>
      <point x="681.35" y="715.8875" type="line" smooth="yes"/>
      <point x="693.1125" y="729.375"/>
      <point x="682.625" y="742.0"/>
      <point x="662.825" y="742.0" type="curve"/>
      <point x="526.5" y="742.0" type="line" smooth="yes"/>
      <point x="504.975" y="742.0"/>
      <point x="497.8" y="736.6875"/>
      <point x="487.9" y="723.3375" type="curve"/>
      <point x="276.5375" y="443.6125" type="line" smooth="yes"/>
      <point x="268.95" y="434.3"/>
      <point x="262.6375" y="433.4375"/>
      <point x="262.6375" y="448.0625" type="curve"/>
      <point x="262.6375" y="722.7875" type="line" smooth="yes"/>
      <point x="262.6375" y="734.825"/>
      <point x="257.05" y="742.0"/>
      <point x="246.0125" y="742.0" type="curve"/>
      <point x="78.01249999999999" y="742.0" type="line" smooth="yes"/>
      <point x="67.69999999999999" y="742.0"/>
      <point x="60.525" y="734.6875"/>
      <point x="60.525" y="721.0625" type="curve"/>
      <point x="60.525" y="22.8" type="line" smooth="yes"/>
      <point x="60.525" y="7.175000000000001"/>
      <point x="66.1125" y="0.0"/>
      <point x="85.1875" y="0.0" type="curve"/>
      <point x="232.8" y="0.0" type="line" smooth="yes"/>
      <point x="253.60000000000002" y="0.0"/>
      <point x="262.6375" y="7.3125"/>
      <point x="262.6375" y="26.25" type="curve"/>
      <point x="262.6375" y="189.075" type="line" smooth="yes"/>
      <point x="262.6375" y="198.8"/>
      <point x="263.775" y="204.3875"/>
      <point x="268.9125" y="210.3875" type="curve"/>
      <point x="348.3" y="308.95" type="line" smooth="yes"/>
      <point x="357.6125" y="320.85"/>
      <point x="363.2" y="322.7125"/>
      <point x="368.925" y="313.2625" type="curve"/>
      <point x="509.625" y="17.9375" type="line" smooth="yes"/>
      <point x="515.9375" y="4.5875"/>
      <point x="526.8375" y="0.0"/>
      <point x="542.1875" y="0.0" type="curve"/>
      <point x="715.7375" y="0.0" type="line" smooth="yes"/>
      <point x="733.5375" y="0.0"/>
      <point x="735.5375" y="13.350000000000001"/>
    </contour>
  </outline>
</glyph>
<glyph name="L" format="2">
  <advance width="635.3"/>
  <unicode hex="004C"/>
  <anchor x="163.7375" y="742.0" name="top"/>
  <anchor x="314.6875" y="0.0" name="bottom"/>
  <anchor x="498.0375" y="742.0" name="topright"/>
  <outline>
    <contour>
      <point x="60.525" y="720.7875" type="curve"/>
      <point x="60.525" y="720.7875" type="line"/>
      <point x="60.525" y="22.9375" type="line" smooth="yes"/>
      <point x="60.525" y="7.3125"/>
      <point x="65.975" y="0.0"/>
      <point x="85.05" y="0.0" type="curve"/>
      <point x="582.1625" y="0.0" type="line"/>
      <point x="597.5125" y="0.0"/>
      <point x="604.6875" y="8.9"/>
      <point x="604.6875" y="19.9375" type="curve"/>
      <point x="604.6875" y="129.60000000000002" type="line" smooth="yes"/>
      <point x="604.6875" y="142.5"/>
      <point x="596.65" y="146.95"/>
      <point x="583.75" y="146.95" type="curve"/>
      <point x="274.225" y="146.95" type="line" smooth="yes"/>
      <point x="265.5" y="146.95"/>
      <point x="262.6375" y="149.675"/>
      <point x="262.6375" y="160.2625" type="curve"/>
      <point x="262.6375" y="722.5125" type="line" smooth="yes"/>
      <point x="262.6375" y="734.825"/>
      <point x="257.1875" y="742.0"/>
      <point x="245.875" y="742.0" type="curve"/>
      <point x="78.15" y="742.0" type="line" smooth="yes"/>
      <point x="67.69999999999999" y="742.0"/>
      <point x="60.525" y="734.825"/>
    </contour>
  </outline>
</glyph>
<glyph name="M" format="2">
  <advance width="963.525"/>
  <unicode hex="004D"/>
  <outline>
    <contour>
      <point x="84.1875" y="0.0" type="curve"/>
      <point x="84.1875" y="0.0" type="line"/>
      <point x="202.3375" y="0.0" type="line" smooth="yes"/>
      <point x="218.825" y="0.0"/>
      <point x="222.6875" y="3.8625"/>
      <point x="222.6875" y="20.2125" type="curve"/>
      <point x="222.6875" y="485.725" type="line" smooth="yes"/>
      <point x="222.6875" y="497.48749999999995"/>
      <point x="229.0" y="500.8"/>
      <point x="233.45" y="486.5875" type="curve"/>
      <point x="391.2" y="16.9" type="line" smooth="yes"/>
      <point x="395.0625" y="5.5875"/>
      <point x="402.65" y="0.0"/>
      <point x="414.5125" y="0.0" type="curve"/>
      <point x="508.7875" y="0.0" type="line" smooth="yes"/>
      <point x="519.5125" y="0.0"/>
      <point x="527.825" y="6.45"/>
      <point x="531.6875" y="17.0375" type="curve"/>
      <point x="690.125" y="494.17499999999995" type="line" smooth="yes"/>
      <point x="693.7125" y="504.9375"/>
      <point x="700.8875" y="505.2125"/>
      <point x="700.8875" y="495.0375" type="curve"/>
      <point x="700.8875" y="22.8" type="line" smooth="yes"/>
      <point x="700.8875" y="7.175000000000001"/>
      <point x="706.475" y="0.0"/>
      <point x="724.6875" y="0.0" type="curve"/>
      <point x="874.1625" y="0.0" type="line" smooth="yes"/>
      <point x="894.825" y="0.0"/>
      <point x="903.0" y="7.3125"/>
      <point x="903.0" y="26.3875" type="curve"/>
      <point x="903.0" y="722.5125" type="line" smooth="yes"/>
      <point x="903.0" y="734.825"/>
      <point x="897.55" y="742.0"/>
      <point x="886.2375" y="742.0" type="curve"/>
      <point x="632.9875" y="742.0" type="line" smooth="yes"/>
      <point x="620.0875" y="742.0"/>
      <point x="612.775" y="732.2375"/>
      <point x="608.1875" y="716.025" type="curve"/>
      <point x="490.7125" y="359.1125" type="line" smooth="yes"/>
      <point x="487.3" y="349.425"/>
      <point x="481.4375" y="347.7"/>
      <point x="477.3" y="358.975" type="curve"/>
      <point x="350.88750000000005" y="725.375" type="line"/>
      <point x="346.3" y="738.275"/>
      <point x="340.7125" y="742.0"/>
      <point x="324.95000000000005" y="742.0" type="curve"/>
      <point x="79.875" y="742.0" type="line" smooth="yes"/>
      <point x="65.975" y="742.0"/>
      <point x="60.525" y="735.6875"/>
      <point x="60.525" y="720.7875" type="curve"/>
      <point x="60.525" y="25.525" type="line" smooth="yes"/>
      <point x="60.525" y="9.9"/>
      <point x="69.425" y="0.0"/>
    </contour>
  </outline>
</glyph>
<glyph name="N" format="2">
  <advance width="760.175"/>
  <unicode hex="004E"/>
  <anchor x="382.7875" y="742.0" name="top"/>
  <anchor x="377.975" y="0.0" name="bottom"/>
  <outline>
    <contour>
      <point x="685.475" y="742.0" type="curve"/>
      <point x="556.7" y="742.0" type="line"/>
      <point x="542.9375" y="742.0"/>
      <point x="536.625" y="734.6875"/>
      <point x="536.625" y="722.65" type="curve"/>
      <point x="536.625" y="354.5375" type="line" smooth="yes"/>
      <point x="536.625" y="339.9125"/>
      <point x="529.625" y="339.0875"/>
      <point x="520.9" y="350.8125" type="curve"/>
      <point x="255.1875" y="725.5125" type="line" smooth="yes"/>
      <point x="245.15" y="739.275"/>
      <point x="239.5625" y="742.0"/>
      <point x="223.8" y="742.0" type="curve"/>
      <point x="80.7375" y="742.0" type="line"/>
      <point x="66.8375" y="742.0"/>
      <point x="60.525" y="735.6875"/>
      <point x="60.525" y="720.7875" type="curve"/>
      <point x="60.525" y="18.625" type="line" smooth="yes"/>
      <point x="60.525" y="4.725"/>
      <point x="69.425" y="0.0"/>
      <point x="83.32499999999999" y="0.0" type="curve"/>
      <point x="204.0625" y="0.0" type="line" smooth="yes"/>
      <point x="220.55" y="0.0"/>
      <point x="227.0" y="5.5875"/>
      <point x="226.1375" y="20.2125" type="curve"/>
      <point x="226.1375" y="420.5125" type="line" smooth="yes"/>
      <point x="226.1375" y="427.65"/>
      <point x="231.1375" y="429.65"/>
      <point x="236.41250000000002" y="422.23749999999995" type="curve"/>
      <point x="532.45" y="13.7625" type="line" smooth="yes"/>
      <point x="541.7625" y="1.5875000000000004"/>
      <point x="547.7625" y="0.0"/>
      <point x="558.35" y="0.0" type="curve"/>
      <point x="678.575" y="0.0" type="line" smooth="yes"/>
      <point x="690.6125" y="0.0"/>
      <point x="699.65" y="6.45"/>
      <point x="699.65" y="16.9" type="curve"/>
      <point x="699.65" y="725.9625" type="line" smooth="yes"/>
      <point x="699.65" y="736.55"/>
      <point x="695.0625" y="742.0"/>
    </contour>
  </outline>
</glyph>
<glyph name="O" format="2">
  <advance width="776.975"/>
  <unicode hex="004F"/>
  <guideline x="-601.875" y="431.0" angle="90.0"/>
  <anchor x="388.4875" y="371.0" name="center"/>
  <anchor x="478.6" y="9.8625" name="ogonek"/>
  <anchor x="388.7625" y="742.0" name="top"/>
  <anchor x="573.0625" y="742.0" name="topright"/>
  <anchor x="20.0" y="742.0" name="topleft"/>
  <anchor x="390.4875" y="0.0" name="bottom"/>
  <outline>
    <contour>
      <point x="389.35" y="-10.0" type="curve"/>
      <point x="389.35" y="-10.0" type="line"/>
      <point x="603.225" y="-10.0"/>
      <point x="739.5125" y="136.6625"/>
      <point x="739.5125" y="369.0" type="curve"/>
      <point x="739.5125" y="603.3375"/>
      <point x="600.6375" y="752.0"/>
      <point x="389.4875" y="752.0" type="curve"/>
      <point x="176.475" y="752.0"/>
      <point x="37.4625" y="603.2"/>
      <point x="37.4625" y="368.725" type="curve"/>
      <point x="37.4625" y="135.6625"/>
      <point x="172.75" y="-10.0"/>
    </contour>
    <contour>
      <point x="389.625" y="130.325" type="curve"/>
      <point x="389.625" y="130.325" type="line"/>
      <point x="290.0375" y="130.325"/>
      <point x="249.3375" y="197.3375"/>
      <point x="249.3375" y="366.4125" type="curve"/>
      <point x="249.3375" y="540.075"/>
      <point x="291.7625" y="613.4"/>
      <point x="389.4875" y="613.4" type="curve"/>
      <point x="485.35" y="613.4"/>
      <point x="527.6375" y="540.2125"/>
      <point x="527.6375" y="366.4125" type="curve"/>
      <point x="527.6375" y="197.2"/>
      <point x="487.35" y="130.325"/>
    </contour>
  </outline>
</glyph>
<glyph name="P" format="2">
  <advance width="723.1625"/>
  <unicode hex="0050"/>
  <outline>
    <contour>
      <point x="690.35" y="505.675" type="curve"/>
      <point x="690.35" y="505.675" type="line"/>
      <point x="690.35" y="665.025"/>
      <point x="556.925" y="742.0"/>
      <point x="394.1625" y="742.0" type="curve"/>
      <point x="78.15" y="742.0" type="line" smooth="yes"/>
      <point x="66.8375" y="742.0"/>
      <point x="60.525" y="734.825"/>
      <point x="60.525" y="720.7875" type="curve"/>
      <point x="60.525" y="22.6625" type="line" smooth="yes"/>
      <point x="60.525" y="7.3125"/>
      <point x="66.1125" y="0.0"/>
      <point x="84.05" y="0.0" type="curve"/>
      <point x="233.075" y="0.0" type="line" smooth="yes"/>
      <point x="253.60000000000002" y="0.0"/>
      <point x="262.6375" y="7.3125"/>
      <point x="262.6375" y="26.25" type="curve"/>
      <point x="262.6375" y="263.6625" type="line" smooth="yes"/>
      <point x="262.6375" y="270.525"/>
      <point x="265.5" y="274.3875"/>
      <point x="274.0875" y="274.3875" type="curve"/>
      <point x="417.4125" y="274.3875" type="line" smooth="yes"/>
      <point x="578.7625" y="274.3875"/>
      <point x="690.35" y="359.4"/>
    </contour>
    <contour>
      <point x="483.65" y="508.675" type="curve"/>
      <point x="483.65" y="508.675" type="line"/>
      <point x="483.65" y="454.675"/>
      <point x="447.0875" y="417.8875"/>
      <point x="388.0875" y="417.8875" type="curve"/>
      <point x="278.2625" y="417.8875" type="line" smooth="yes"/>
      <point x="266.3625" y="417.8875"/>
      <point x="262.6375" y="424.3375"/>
      <point x="262.6375" y="438.2375" type="curve"/>
      <point x="262.6375" y="579.2875" type="line" smooth="yes"/>
      <point x="262.6375" y="593.05"/>
      <point x="268.225" y="598.5"/>
      <point x="283.7125" y="598.5" type="curve"/>
      <point x="381.95" y="598.5" type="line" smooth="yes"/>
      <point x="440.1875" y="598.5"/>
      <point x="483.65" y="567.125"/>
    </contour>
  </outline>
</glyph>
<glyph name="Q" format="2">
  <advance width="778.7"/>
  <unicode hex="0051"/>
  <outline>
    <contour>
      <point x="37.4625" y="369.0" type="curve"/>
      <point x="37.4625" y="369.0" type="line"/>
      <point x="37.4625" y="134.975"/>
      <point x="173.4375" y="-10.0"/>
      <point x="389.35" y="-10.0" type="curve"/>
      <point x="415.35" y="-10.0"/>
      <point x="437.5875" y="-8.725"/>
      <point x="461.725" y="-5.3125" type="curve"/>
      <point x="468.725" y="-4.175000000000001"/>
      <point x="473.725" y="-5.3125"/>
      <point x="476.725" y="-9.3125" type="curve"/>
      <point x="534.825" y="-85.65"/>
      <point x="606.0" y="-127.175"/>
      <point x="698.3" y="-127.175" type="curve"/>
      <point x="727.825" y="-127.175"/>
      <point x="739.0" y="-121.725"/>
      <point x="739.0" y="-98.65" type="curve"/>
      <point x="739.0" y="-0.75" type="line" smooth="yes"/>
      <point x="739.0" y="5.700000000000003"/>
      <point x="736.275" y="13.012500000000003"/>
      <point x="723.375" y="14.875" type="curve"/>
      <point x="675.975" y="21.42500000000001"/>
      <point x="626.225" y="51.1"/>
      <point x="626.225" y="69.475" type="curve"/>
      <point x="626.225" y="73.475"/>
      <point x="626.3625" y="75.475"/>
      <point x="628.775" y="77.61250000000001" type="curve"/>
      <point x="699.9" y="142.5125"/>
      <point x="740.375" y="240.75"/>
      <point x="740.375" y="369.0" type="curve"/>
      <point x="740.375" y="603.6125"/>
      <point x="601.5" y="752.0"/>
      <point x="389.35" y="752.0" type="curve"/>
      <point x="176.3375" y="752.0"/>
      <point x="37.4625" y="603.6125"/>
    </contour>
    <contour>
      <point x="249.3375" y="367.0" type="curve"/>
      <point x="249.3375" y="367.0" type="line"/>
      <point x="249.3375" y="540.25"/>
      <point x="291.35" y="613.4"/>
      <point x="389.35" y="613.4" type="curve"/>
      <point x="486.4875" y="613.4"/>
      <point x="528.5" y="540.25"/>
      <point x="528.5" y="367.275" type="curve"/>
      <point x="528.5" y="197.0625"/>
      <point x="487.8" y="130.325"/>
      <point x="389.35" y="130.325" type="curve"/>
      <point x="290.0375" y="130.325"/>
      <point x="249.3375" y="197.0625"/>
    </contour>
  </outline>
</glyph>
<glyph name="R" format="2">
  <advance width="730.75"/>
  <unicode hex="0052"/>
  <anchor x="354.7" y="742.0" name="top"/>
  <anchor x="364.2875" y="0.0" name="bottom"/>
  <outline>
    <contour>
      <point x="686.975" y="29.525" type="curve"/>
      <point x="686.975" y="29.525" type="line"/>
      <point x="558.225" y="318.4625" type="line"/>
      <point x="555.5" y="325.775"/>
      <point x="555.6375" y="333.0875"/>
      <point x="562.225" y="335.8125" type="curve"/>
      <point x="637.2625" y="363.3"/>
      <point x="696.1125" y="435.8625"/>
      <point x="696.1125" y="533.85" type="curve"/>
      <point x="696.1125" y="666.2"/>
      <point x="587.9625" y="742.0"/>
      <point x="401.7" y="742.0" type="curve"/>
      <point x="78.15" y="742.0" type="line" smooth="yes"/>
      <point x="66.8375" y="742.0"/>
      <point x="60.525" y="734.825"/>
      <point x="60.525" y="720.7875" type="curve"/>
      <point x="60.525" y="22.8" type="line" smooth="yes"/>
      <point x="60.525" y="7.3125"/>
      <point x="65.975" y="0.0"/>
      <point x="84.32499999999999" y="0.0" type="curve"/>
      <point x="232.8" y="0.0" type="line" smooth="yes"/>
      <point x="253.7375" y="0.0"/>
      <point x="262.6375" y="7.3125"/>
      <point x="262.6375" y="26.525" type="curve"/>
      <point x="262.6375" y="292.25" type="line" smooth="yes"/>
      <point x="262.6375" y="295.8"/>
      <point x="265.6375" y="303.25"/>
      <point x="274.6375" y="303.25" type="curve"/>
      <point x="344.0125" y="303.25" type="line" smooth="yes"/>
      <point x="362.1875" y="303.25"/>
      <point x="369.775" y="298.525"/>
      <point x="373.6375" y="288.075" type="curve"/>
      <point x="474.2375" y="19.35" type="line" smooth="yes"/>
      <point x="478.1" y="6.45"/>
      <point x="486.1375" y="0.0"/>
      <point x="499.175" y="0.0" type="curve"/>
      <point x="670.35" y="0.0" type="line" smooth="yes"/>
      <point x="685.1125" y="0.0"/>
      <point x="693.425" y="13.9"/>
    </contour>
    <contour>
      <point x="389.125" y="437.2625" type="curve"/>
      <point x="389.125" y="437.2625" type="line"/>
      <point x="278.2625" y="437.2625" type="line" smooth="yes"/>
      <point x="266.3625" y="437.2625"/>
      <point x="262.6375" y="442.85"/>
      <point x="262.6375" y="456.6125" type="curve"/>
      <point x="262.6375" y="590.5" type="line" smooth="yes"/>
      <point x="262.6375" y="604.2625"/>
      <point x="268.225" y="608.85"/>
      <point x="283.9875" y="608.85" type="curve"/>
      <point x="388.625" y="608.85" type="line" smooth="yes"/>
      <point x="444.075" y="608.85"/>
      <point x="486.825" y="578.825"/>
      <point x="486.825" y="520.8125" type="curve"/>
      <point x="486.825" y="468.325"/>
      <point x="452.775" y="437.2625"/>
    </contour>
  </outline>
</glyph>
<glyph name="S" format="2">
  <advance width="689.5875"/>
  <unicode hex="0053"/>
  <anchor x="350.05" y="742.0" name="top"/>
  <anchor x="350.6" y="0.0" name="bottom"/>
  <outline>
    <contour>
      <point x="494.825" y="554.55" type="curve"/>
      <point x="494.825" y="554.55" type="line"/>
      <point x="507.725" y="541.5125"/>
      <point x="513.175" y="540.375"/>
      <point x="522.4875" y="546.9625" type="curve"/>
      <point x="619.525" y="617.85" type="line" smooth="yes"/>
      <point x="631.5625" y="627.1625"/>
      <point x="625.25" y="637.3375"/>
      <point x="619.525" y="645.65" type="curve"/>
      <point x="572.0125" y="709.9625"/>
      <point x="465.3375" y="752.0"/>
      <point x="349.9125" y="752.0" type="curve"/>
      <point x="168.0625" y="752.0"/>
      <point x="52.3625" y="649.95"/>
      <point x="52.3625" y="520.6375" type="curve"/>
      <point x="52.3625" y="421.275"/>
      <point x="122.0375" y="336.475"/>
      <point x="240.3875" y="304.9625" type="curve"/>
      <point x="392.25" y="265.075" type="line" smooth="yes"/>
      <point x="444.325" y="250.675"/>
      <point x="464.7375" y="227.7875"/>
      <point x="464.7375" y="198.975" type="curve"/>
      <point x="464.7375" y="152.35000000000002"/>
      <point x="412.475" y="128.60000000000002"/>
      <point x="333.15" y="128.60000000000002" type="curve"/>
      <point x="250.3" y="128.60000000000002"/>
      <point x="210.0625" y="153.525"/>
      <point x="164.41250000000002" y="212.5875" type="curve"/>
      <point x="156.825" y="222.03750000000002"/>
      <point x="145.7875" y="225.625"/>
      <point x="128.8875" y="214.3125" type="curve"/>
      <point x="38.537499999999994" y="151.975" type="line" smooth="yes"/>
      <point x="25.0875" y="141.525"/>
      <point x="24.95" y="133.8"/>
      <point x="32.537499999999994" y="120.7625" type="curve"/>
      <point x="81.1875" y="41.075"/>
      <point x="206.625" y="-10.0"/>
      <point x="347.8125" y="-10.0" type="curve"/>
      <point x="538.4875" y="-10.0"/>
      <point x="657.3625" y="82.425"/>
      <point x="657.3625" y="226.85" type="curve"/>
      <point x="657.3625" y="327.2375"/>
      <point x="601.425" y="407.9375"/>
      <point x="477.3875" y="440.5875" type="curve"/>
      <point x="315.2375" y="484.55" type="line" smooth="yes"/>
      <point x="257.4" y="500.2625"/>
      <point x="243.2625" y="526.625"/>
      <point x="243.2625" y="547.5125" type="curve"/>
      <point x="243.2625" y="582.6875"/>
      <point x="276.725" y="612.5375"/>
      <point x="356.4" y="612.5375" type="curve"/>
      <point x="435.225" y="612.5375"/>
      <point x="468.625" y="583.4375"/>
    </contour>
  </outline>
</glyph>
<glyph name="T" format="2">
  <advance width="692.8625"/>
  <unicode hex="0054"/>
  <anchor x="348.0125" y="742.0" name="top"/>
  <anchor x="348.0125" y="0.0" name="bottom"/>
  <outline>
    <contour>
      <point x="30.6125" y="721.2" type="curve"/>
      <point x="30.6125" y="614.9875" type="line"/>
      <point x="30.6125" y="602.0875"/>
      <point x="38.65" y="597.6375"/>
      <point x="51.55" y="597.6375" type="curve"/>
      <point x="235.525" y="597.6375" type="line" smooth="yes"/>
      <point x="243.525" y="597.6375"/>
      <point x="246.3875" y="594.05"/>
      <point x="246.3875" y="584.325" type="curve"/>
      <point x="246.3875" y="18.625" type="line" smooth="yes"/>
      <point x="246.3875" y="6.3125"/>
      <point x="252.7" y="0.0"/>
      <point x="263.2875" y="0.0" type="curve"/>
      <point x="430.875" y="0.0" type="line" smooth="yes"/>
      <point x="441.325" y="0.0"/>
      <point x="448.5" y="6.3125"/>
      <point x="448.5" y="20.35" type="curve"/>
      <point x="448.5" y="587.775" type="line" smooth="yes"/>
      <point x="448.5" y="594.9125"/>
      <point x="452.225" y="597.6375"/>
      <point x="460.225" y="597.6375" type="curve"/>
      <point x="642.175" y="597.6375" type="line" smooth="yes"/>
      <point x="654.2125" y="597.6375"/>
      <point x="662.25" y="602.0875"/>
      <point x="662.25" y="614.9875" type="curve"/>
      <point x="662.25" y="721.2" type="line" smooth="yes"/>
      <point x="662.25" y="733.1"/>
      <point x="655.075" y="742.0"/>
      <point x="639.725" y="742.0" type="curve"/>
      <point x="53.1375" y="742.0" type="line" smooth="yes"/>
      <point x="37.7875" y="742.0"/>
      <point x="30.6125" y="733.1"/>
    </contour>
  </outline>
</glyph>
<glyph name="U" format="2">
  <advance width="724.425"/>
  <unicode hex="0055"/>
  <anchor x="468.7125" y="9.8625" name="ogonek"/>
  <anchor x="377.425" y="742.0" name="top"/>
  <anchor x="697.55" y="742.0" name="topright"/>
  <anchor x="362.2125" y="0.0" name="bottom"/>
  <outline>
    <contour>
      <point x="672.175" y="284.3375" type="curve"/>
      <point x="672.175" y="284.3375" type="line"/>
      <point x="672.175" y="722.65" type="line" smooth="yes"/>
      <point x="672.175" y="734.6875"/>
      <point x="666.725" y="742.0"/>
      <point x="655.55" y="742.0" type="curve"/>
      <point x="522.875" y="742.0" type="line" smooth="yes"/>
      <point x="511.7" y="742.0"/>
      <point x="505.3875" y="734.6875"/>
      <point x="505.3875" y="720.925" type="curve"/>
      <point x="505.3875" y="283.3375" type="line" smooth="yes"/>
      <point x="505.3875" y="169.45"/>
      <point x="449.6" y="132.91250000000002"/>
      <point x="377.15" y="132.91250000000002" type="curve"/>
      <point x="299.8" y="132.91250000000002"/>
      <point x="254.3625" y="174.4875"/>
      <point x="254.3625" y="280.3375" type="curve"/>
      <point x="254.3625" y="722.5125" type="line" smooth="yes"/>
      <point x="254.3625" y="734.825"/>
      <point x="248.91250000000002" y="742.0"/>
      <point x="237.4625" y="742.0" type="curve"/>
      <point x="69.7375" y="742.0" type="line" smooth="yes"/>
      <point x="59.425" y="742.0"/>
      <point x="52.25" y="734.6875"/>
      <point x="52.25" y="720.65" type="curve"/>
      <point x="52.25" y="303.65" type="line" smooth="yes"/>
      <point x="52.25" y="99.4625"/>
      <point x="132.975" y="-10.0"/>
      <point x="362.2125" y="-10.0" type="curve"/>
      <point x="549.775" y="-10.0"/>
      <point x="672.175" y="62.9625"/>
    </contour>
  </outline>
</glyph>
<glyph name="V" format="2">
  <advance width="742.6125"/>
  <unicode hex="0056"/>
  <outline>
    <contour>
      <point x="696.4125" y="742.0" type="curve"/>
      <point x="696.4125" y="742.0" type="line"/>
      <point x="564.4625" y="742.0" type="line" smooth="yes"/>
      <point x="553.2875" y="742.0"/>
      <point x="543.3875" y="734.825"/>
      <point x="540.525" y="722.925" type="curve"/>
      <point x="399.1625" y="253.025" type="line" smooth="yes"/>
      <point x="395.8875" y="242.47500000000002"/>
      <point x="391.6125" y="242.47500000000002"/>
      <point x="388.3375" y="252.025" type="curve"/>
      <point x="240.175" y="722.7875" type="line" smooth="yes"/>
      <point x="236.45000000000002" y="734.825"/>
      <point x="228.275" y="742.0"/>
      <point x="216.82500000000002" y="742.0" type="curve"/>
      <point x="47.2" y="742.0" type="line" smooth="yes"/>
      <point x="32.4375" y="742.0"/>
      <point x="24.2625" y="729.375"/>
      <point x="29.7125" y="715.6125" type="curve"/>
      <point x="264.875" y="22.9375" type="line" smooth="yes"/>
      <point x="269.4625" y="7.3125"/>
      <point x="280.6375" y="0.0"/>
      <point x="299.4" y="0.0" type="curve"/>
      <point x="443.525" y="0.0" type="line" smooth="yes"/>
      <point x="462.0125" y="0.0"/>
      <point x="472.9125" y="7.3125"/>
      <point x="477.6375" y="23.075000000000003" type="curve"/>
      <point x="713.7625" y="715.75" type="line" smooth="yes"/>
      <point x="718.35" y="729.375"/>
      <point x="711.0375" y="742.0"/>
    </contour>
  </outline>
</glyph>
<glyph name="W" format="2">
  <advance width="1096.9"/>
  <unicode hex="0057"/>
  <anchor x="550.0875" y="742.0" name="top"/>
  <outline>
    <contour>
      <point x="1039.35" y="742.0" type="curve"/>
      <point x="1039.35" y="742.0" type="line"/>
      <point x="935.8625" y="742.0" type="line" smooth="yes"/>
      <point x="916.925" y="742.0"/>
      <point x="909.3375" y="734.825"/>
      <point x="906.6125" y="722.925" type="curve"/>
      <point x="792.65" y="302.2875" type="line" smooth="yes"/>
      <point x="790.375" y="293.4625"/>
      <point x="783.7875" y="295.1875"/>
      <point x="781.5125" y="303.875" type="curve"/>
      <point x="661.2" y="722.7875" type="line" smooth="yes"/>
      <point x="657.475" y="734.825"/>
      <point x="651.1625" y="742.0"/>
      <point x="631.95" y="742.0" type="curve"/>
      <point x="507.7625" y="742.0" type="line" smooth="yes"/>
      <point x="488.4125" y="742.0"/>
      <point x="481.1" y="734.55"/>
      <point x="478.375" y="722.925" type="curve"/>
      <point x="361.825" y="308.32500000000005" type="line" smooth="yes"/>
      <point x="358.6875" y="296.9125"/>
      <point x="353.825" y="296.9125"/>
      <point x="349.825" y="311.63750000000005" type="curve"/>
      <point x="232.9625" y="722.7875" type="line" smooth="yes"/>
      <point x="229.2375" y="734.825"/>
      <point x="222.925" y="742.0"/>
      <point x="203.7125" y="742.0" type="curve"/>
      <point x="57.9625" y="742.0" type="line" smooth="yes"/>
      <point x="34.575" y="742.0"/>
      <point x="25.537499999999998" y="726.7875"/>
      <point x="30.987499999999997" y="706.125" type="curve"/>
      <point x="234.7125" y="22.9375" type="line" smooth="yes"/>
      <point x="240.1625" y="7.3125"/>
      <point x="249.6125" y="0.0"/>
      <point x="268.2375" y="0.0" type="curve"/>
      <point x="395.975" y="0.0" type="line" smooth="yes"/>
      <point x="415.4625" y="0.0"/>
      <point x="424.6375" y="7.3125"/>
      <point x="429.225" y="23.075000000000003" type="curve"/>
      <point x="543.5" y="413.9125" type="line" smooth="yes"/>
      <point x="549.675" y="431.7125"/>
      <point x="554.2625" y="429.98749999999995"/>
      <point x="557.85" y="415.6375" type="curve"/>
      <point x="672.4375" y="22.9375" type="line" smooth="yes"/>
      <point x="677.025" y="7.3125"/>
      <point x="687.3375" y="0.0"/>
      <point x="705.9625" y="0.0" type="curve"/>
      <point x="829.3875" y="0.0" type="line" smooth="yes"/>
      <point x="848.0125" y="0.0"/>
      <point x="857.1875" y="7.3125"/>
      <point x="862.6375" y="23.075000000000003" type="curve"/>
      <point x="1066.1875" y="706.2625" type="line" smooth="yes"/>
      <point x="1071.5" y="726.7875"/>
      <point x="1062.6" y="742.0"/>
    </contour>
  </outline>
</glyph>
<glyph name="X" format="2">
  <advance width="743.075"/>
  <unicode hex="0058"/>
  <outline>
    <contour>
      <point x="703.6" y="45.362500000000004" type="curve"/>
      <point x="703.6" y="45.362500000000004" type="line"/>
      <point x="483.6125" y="381.7625" type="line" smooth="yes"/>
      <point x="474.4375" y="395.525"/>
      <point x="473.7125" y="402.1125"/>
      <point x="482.025" y="415.0125" type="curve"/>
      <point x="677.2125" y="712.7125" type="line" smooth="yes"/>
      <point x="686.1125" y="726.0625"/>
      <point x="686.975" y="742.0"/>
      <point x="665.725" y="742.0" type="curve"/>
      <point x="526.4" y="742.0" type="line" smooth="yes"/>
      <point x="506.875" y="742.0"/>
      <point x="498.8375" y="735.825"/>
      <point x="491.6625" y="723.3375" type="curve"/>
      <point x="384.7125" y="542.2625" type="line" smooth="yes"/>
      <point x="378.575" y="531.4"/>
      <point x="369.4" y="531.5375"/>
      <point x="363.4" y="542.125" type="curve"/>
      <point x="256.45000000000005" y="723.3375" type="line" smooth="yes"/>
      <point x="249.275" y="735.825"/>
      <point x="240.51250000000002" y="742.0"/>
      <point x="220.7125" y="742.0" type="curve"/>
      <point x="52.3375" y="742.0" type="line" smooth="yes"/>
      <point x="31.95" y="742.0"/>
      <point x="29.225" y="724.0625"/>
      <point x="38.125" y="710.7125" type="curve"/>
      <point x="244.25" y="391.8625" type="line" smooth="yes"/>
      <point x="252.7" y="377.825"/>
      <point x="253.7" y="371.825"/>
      <point x="244.3875" y="357.925" type="curve"/>
      <point x="41.2" y="45.362500000000004" type="line" smooth="yes"/>
      <point x="18.0875" y="9.7625"/>
      <point x="27.849999999999998" y="0.0"/>
      <point x="52.825" y="0.0" type="curve"/>
      <point x="180.25" y="0.0" type="line" smooth="yes"/>
      <point x="197.91250000000002" y="0.0"/>
      <point x="211.2625" y="4.45"/>
      <point x="218.4375" y="17.8" type="curve"/>
      <point x="341.425" y="224.8125" type="line" smooth="yes"/>
      <point x="352.2875" y="243.2625"/>
      <point x="358.0125" y="242.2625"/>
      <point x="368.4625" y="224.3625" type="curve"/>
      <point x="493.5875" y="17.8" type="line" smooth="yes"/>
      <point x="500.7625" y="5.3125"/>
      <point x="512.975" y="0.0"/>
      <point x="530.775" y="0.0" type="curve"/>
      <point x="690.975" y="0.0" type="line" smooth="yes"/>
      <point x="715.95" y="0.0"/>
      <point x="725.9875" y="10.625"/>
    </contour>
  </outline>
</glyph>
<glyph name="Y" format="2">
  <advance width="755.3"/>
  <unicode hex="0059"/>
  <anchor x="390.7625" y="742.0" name="top"/>
  <anchor x="377.65" y="0.0" name="bottom"/>
  <anchor x="20.0" y="742.0" name="topleft"/>
  <outline>
    <contour>
      <point x="712.2375" y="742.0" type="curve"/>
      <point x="712.2375" y="742.0" type="line"/>
      <point x="573.25" y="742.0" type="line" smooth="yes"/>
      <point x="555.625" y="742.0"/>
      <point x="549.3125" y="738.4125"/>
      <point x="541.725" y="722.65" type="curve"/>
      <point x="408.625" y="480.95" type="line" smooth="yes"/>
      <point x="401.4875" y="468.8125"/>
      <point x="397.075" y="469.5375"/>
      <point x="390.6625" y="482.0875" type="curve"/>
      <point x="255.70000000000002" y="722.65" type="line" smooth="yes"/>
      <point x="247.38750000000002" y="737.4125"/>
      <point x="242.6625" y="742.0"/>
      <point x="224.175" y="742.0" type="curve"/>
      <point x="47.65" y="742.0" type="line" smooth="yes"/>
      <point x="28.162499999999998" y="742.0"/>
      <point x="21.849999999999998" y="730.9625"/>
      <point x="31.025" y="716.2" type="curve"/>
      <point x="266.4" y="329.6625" type="line" smooth="yes"/>
      <point x="274.7125" y="315.7625"/>
      <point x="279.1625" y="308.45"/>
      <point x="279.1625" y="288.9625" type="curve"/>
      <point x="279.1625" y="23.075000000000003" type="line" smooth="yes"/>
      <point x="279.1625" y="7.45"/>
      <point x="284.75" y="0.0"/>
      <point x="303.2375" y="0.0" type="curve"/>
      <point x="450.75" y="0.0" type="line" smooth="yes"/>
      <point x="472.1" y="0.0"/>
      <point x="481.275" y="7.45"/>
      <point x="481.275" y="26.8" type="curve"/>
      <point x="481.275" y="279.2625" type="line" smooth="yes"/>
      <point x="481.275" y="316.8625"/>
      <point x="482.13750000000005" y="326.0375"/>
      <point x="490.45000000000005" y="338.9375" type="curve"/>
      <point x="725.1375" y="720.65" type="line" smooth="yes"/>
      <point x="732.5875" y="732.6875"/>
      <point x="727.8625" y="742.0"/>
    </contour>
  </outline>
</glyph>
<glyph name="Z" format="2">
  <advance width="698.325"/>
  <unicode hex="005A"/>
  <anchor x="361.925" y="742.0" name="top"/>
  <anchor x="342.1875" y="0.0" name="bottom"/>
  <outline>
    <contour>
      <point x="53.5125" y="0.0" type="curve"/>
      <point x="53.5125" y="0.0" type="line"/>
      <point x="637.05" y="0.0" type="line" smooth="yes"/>
      <point x="652.4" y="0.0"/>
      <point x="658.7125" y="9.037500000000001"/>
      <point x="658.7125" y="19.9375" type="curve"/>
      <point x="658.7125" y="131.60000000000002" type="line" smooth="yes"/>
      <point x="658.7125" y="144.22500000000002"/>
      <point x="651.5375" y="148.675"/>
      <point x="638.9125" y="148.675" type="curve"/>
      <point x="324.8625" y="148.675" type="line" smooth="yes"/>
      <point x="316.55" y="148.675"/>
      <point x="307.7875" y="151.675"/>
      <point x="314.2375" y="161.85000000000002" type="curve"/>
      <point x="648.5375" y="640.5875" type="line" smooth="yes"/>
      <point x="660.1625" y="656.8"/>
      <point x="663.8875" y="663.975"/>
      <point x="663.8875" y="677.6" type="curve"/>
      <point x="663.8875" y="723.925" type="line" smooth="yes"/>
      <point x="663.8875" y="734.825"/>
      <point x="657.575" y="742.0"/>
      <point x="646.675" y="742.0" type="curve"/>
      <point x="76.175" y="742.0" type="line" smooth="yes"/>
      <point x="66.1375" y="742.0"/>
      <point x="59.825" y="734.825"/>
      <point x="59.825" y="723.0625" type="curve"/>
      <point x="59.825" y="615.85" type="line" smooth="yes"/>
      <point x="59.825" y="599.6375"/>
      <point x="64.4125" y="594.1875"/>
      <point x="79.7625" y="594.1875" type="curve"/>
      <point x="364.15" y="594.1875" type="line" smooth="yes"/>
      <point x="376.9125" y="594.1875"/>
      <point x="378.9125" y="589.6"/>
      <point x="372.4625" y="579.425" type="curve"/>
      <point x="49.0625" y="109.72500000000001" type="line" smooth="yes"/>
      <point x="31.987499999999997" y="85.475"/>
      <point x="29.987499999999997" y="82.3375"/>
      <point x="29.987499999999997" y="63.400000000000006" type="curve"/>
      <point x="29.987499999999997" y="22.525" type="line" smooth="yes"/>
      <point x="29.987499999999997" y="4.5875"/>
      <point x="35.4375" y="0.0"/>
    </contour>
  </outline>
</glyph>
<glyph name="bracketleft" format="2">
  <advance width="326.65"/>
  <unicode hex="005B"/>
  <outline>
    <contour>
      <point x="54.25" y="722.2" type="curve"/>
      <point x="54.25" y="722.2" type="line"/>
      <point x="54.387499999999996" y="-141.475" type="line" smooth="yes"/>
      <point x="54.387499999999996" y="-155.9625"/>
      <point x="64.2875" y="-165.0"/>
      <point x="80.63749999999999" y="-165.0" type="curve"/>
      <point x="294.8875" y="-165.0" type="line" smooth="yes"/>
      <point x="306.925" y="-165.0"/>
      <point x="311.5125" y="-160.4125"/>
      <point x="311.5125" y="-148.375" type="curve"/>
      <point x="311.5125" y="-82.525" type="line" smooth="yes"/>
      <point x="311.5125" y="-72.35"/>
      <point x="305.925" y="-67.625"/>
      <point x="294.8875" y="-67.625" type="curve"/>
      <point x="216.2375" y="-67.625" type="line" smooth="yes"/>
      <point x="201.75" y="-67.625"/>
      <point x="197.3" y="-64.9"/>
      <point x="197.3" y="-48.6875" type="curve"/>
      <point x="197.4375" y="620.2375" type="line" smooth="yes"/>
      <point x="197.4375" y="637.3125"/>
      <point x="204.6125" y="644.625"/>
      <point x="219.9625" y="644.625" type="curve"/>
      <point x="297.75" y="644.625" type="line" smooth="yes"/>
      <point x="306.0625" y="644.625"/>
      <point x="311.65" y="649.2125"/>
      <point x="311.65" y="657.525" type="curve"/>
      <point x="311.65" y="730.1" type="line" smooth="yes"/>
      <point x="311.65" y="738.4125"/>
      <point x="307.925" y="742.0"/>
      <point x="297.75" y="742.0" type="curve"/>
      <point x="77.775" y="742.0" type="line" smooth="yes"/>
      <point x="60.5625" y="742.0"/>
      <point x="54.25" y="735.6875"/>
    </contour>
  </outline>
</glyph>
<glyph name="backslash" format="2">
  <advance width="372.85"/>
  <unicode hex="005C"/>
  <outline>
    <contour>
      <point x="278.5875" y="-8.25" type="curve"/>
      <point x="278.5875" y="-8.25" type="line"/>
      <point x="354.1625" y="-8.25" type="line" smooth="yes"/>
      <point x="367.7875" y="-8.25"/>
      <point x="372.2375" y="-1.9375"/>
      <point x="368.65" y="8.825000000000003" type="curve"/>
      <point x="119.375" y="725.65" type="line" smooth="yes"/>
      <point x="115.7875" y="735.6875"/>
      <point x="106.75" y="742.0"/>
      <point x="95.85" y="742.0" type="curve"/>
      <point x="20.275" y="742.0" type="line" smooth="yes"/>
      <point x="2.1999999999999993" y="742.0"/>
      <point x="-2.25" y="732.9625"/>
      <point x="4.924999999999999" y="712.1625" type="curve"/>
      <point x="246.8875" y="15.275000000000006" type="line" smooth="yes"/>
      <point x="253.2" y="-2.799999999999997"/>
      <point x="263.2375" y="-8.25"/>
    </contour>
  </outline>
</glyph>
<glyph name="asciicircum" format="2">
  <advance width="475.1375"/>
  <unicode hex="005E"/>
  <outline>
    <contour>
      <point x="247.175" y="338.6625" type="curve"/>
      <point x="331.5" y="131.2" type="line"/>
      <point x="334.3625" y="122.75"/>
      <point x="345.4" y="122.3375"/>
      <point x="356.575" y="122.3375" type="curve"/>
      <point x="428.8375" y="122.3375" type="line" smooth="yes"/>
      <point x="441.7375" y="122.3375"/>
      <point x="448.05" y="127.925"/>
      <point x="442.6" y="141.6875" type="curve"/>
      <point x="288.25" y="504.8625" type="line" smooth="yes"/>
      <point x="267.3875" y="553.1375"/>
      <point x="204.6125" y="550.0"/>
      <point x="184.8875" y="504.0" type="curve"/>
      <point x="30.8125" y="144.6875" type="line" smooth="yes"/>
      <point x="25.225" y="130.925"/>
      <point x="29.95" y="122.6125"/>
      <point x="40.9875" y="122.6125" type="curve"/>
      <point x="116.8375" y="122.6125" type="line" smooth="yes"/>
      <point x="128.7375" y="122.6125"/>
      <point x="136.9125" y="122.8875"/>
      <point x="140.6375" y="131.3375" type="curve"/>
      <point x="225.1" y="338.6625" type="line" smooth="yes"/>
      <point x="230.55" y="351.5625"/>
      <point x="241.5875" y="351.5625"/>
    </contour>
  </outline>
</glyph>
<glyph name="underscore" format="2">
  <advance width="553.6125"/>
  <unicode hex="005F"/>
  <outline>
    <contour>
      <point x="509.4875" y="-126.6375" type="curve"/>
      <point x="509.4875" y="-43.7125" type="line"/>
      <point x="509.4875" y="-32.8125"/>
      <point x="503.0375" y="-25.637499999999996"/>
      <point x="493.0" y="-25.637499999999996" type="curve"/>
      <point x="61.2" y="-25.775" type="line" smooth="yes"/>
      <point x="50.4375" y="-25.775"/>
      <point x="44.125" y="-32.95"/>
      <point x="44.125" y="-46.575" type="curve"/>
      <point x="44.125" y="-129.5" type="line" smooth="yes"/>
      <point x="44.125" y="-144.85"/>
      <point x="49.575" y="-152.025"/>
      <point x="67.65" y="-152.025" type="curve"/>
      <point x="479.65" y="-151.8875" type="line" smooth="yes"/>
      <point x="500.45" y="-151.8875"/>
      <point x="509.4875" y="-144.7125"/>
    </contour>
  </outline>
</glyph>
<glyph name="a" format="2">
  <advance width="568.1875"/>
  <unicode hex="0061"/>
  <anchor x="492.4" y="10.55" name="ogonek"/>
  <anchor x="275.9" y="0.0" name="bottom"/>
  <anchor x="284.1125" y="530.0" name="top"/>
  <outline>
    <contour>
      <point x="326.0625" y="46.125" type="curve"/>
      <point x="326.0625" y="46.125" type="line"/>
      <point x="341.4125" y="59.025"/>
      <point x="348.8625" y="58.025"/>
      <point x="350.725" y="45.849999999999994" type="curve"/>
      <point x="351.8625" y="31.425" type="line" smooth="yes"/>
      <point x="354.45" y="14.075000000000001"/>
      <point x="359.175" y="0.0"/>
      <point x="375.525" y="0.0" type="curve"/>
      <point x="496.1625" y="0.0" type="line" smooth="yes"/>
      <point x="513.375" y="0.0"/>
      <point x="517.375" y="6.3125"/>
      <point x="517.375" y="24.6625" type="curve"/>
      <point x="517.375" y="373.9" type="line" smooth="yes"/>
      <point x="517.375" y="473.275"/>
      <point x="459.7625" y="540.0"/>
      <point x="284.6625" y="540.0" type="curve"/>
      <point x="158.6125" y="540.0"/>
      <point x="70.9125" y="504.2125"/>
      <point x="39.2625" y="422.375" type="curve"/>
      <point x="30.95" y="400.125"/>
      <point x="36.2625" y="395.4"/>
      <point x="45.3" y="393.4" type="curve"/>
      <point x="161.5875" y="368.9125" type="line" smooth="yes"/>
      <point x="177.66250000000002" y="365.9125"/>
      <point x="181.3875" y="368.775"/>
      <point x="186.25" y="378.95" type="curve"/>
      <point x="207.1" y="419.1125"/>
      <point x="242.9875" y="432.1375"/>
      <point x="276.625" y="432.1375" type="curve"/>
      <point x="323.5" y="432.1375"/>
      <point x="348.0" y="406.6"/>
      <point x="348.0" y="363.0" type="curve"/>
      <point x="348.0" y="344.075" type="line" smooth="yes"/>
      <point x="348.0" y="332.4875"/>
      <point x="338.55" y="330.075"/>
      <point x="332.725" y="329.9375" type="curve"/>
      <point x="312.25" y="328.7" type="line" smooth="yes"/>
      <point x="126.6875" y="326.775"/>
      <point x="13.5" y="250.6625"/>
      <point x="13.5" y="135.8625" type="curve"/>
      <point x="13.5" y="51.9"/>
      <point x="74.1875" y="-10.0"/>
      <point x="174.875" y="-10.0" type="curve"/>
      <point x="238.525" y="-10.0"/>
      <point x="287.45" y="12.6875"/>
    </contour>
    <contour>
      <point x="348.0" y="229.775" type="curve"/>
      <point x="348.0" y="229.775" type="line"/>
      <point x="348.0" y="171.0" type="line" smooth="yes"/>
      <point x="348.0" y="153.9375"/>
      <point x="335.7625" y="139.775"/>
      <point x="320.325" y="127.025" type="curve"/>
      <point x="305.6125" y="115.1375"/>
      <point x="283.35" y="103.9"/>
      <point x="254.1875" y="103.9" type="curve"/>
      <point x="212.0" y="103.9"/>
      <point x="186.60000000000002" y="125.92500000000001"/>
      <point x="186.60000000000002" y="159.5625" type="curve"/>
      <point x="186.60000000000002" y="218.45"/>
      <point x="268.2625" y="244.6125"/>
      <point x="317.45" y="246.2625" type="curve"/>
      <point x="333.1375" y="247.225" type="line" smooth="yes"/>
      <point x="344.725" y="247.3625"/>
      <point x="348.0" y="241.6375"/>
    </contour>
  </outline>
</glyph>
<glyph name="b" format="2">
  <advance width="612.7"/>
  <unicode hex="0062"/>
  <outline>
    <contour>
      <point x="72.675" y="0.0" type="curve"/>
      <point x="149.225" y="0.0" type="line"/>
      <point x="162.0875" y="0.0"/>
      <point x="169.4" y="6.45"/>
      <point x="173.7125" y="21.625" type="curve"/>
      <point x="187.7875" y="69.175" type="line" smooth="yes"/>
      <point x="190.375" y="77.3125"/>
      <point x="194.5125" y="78.3125"/>
      <point x="200.375" y="72.175" type="curve"/>
      <point x="235.66250000000002" y="25.849999999999998"/>
      <point x="289.1125" y="-10.0"/>
      <point x="357.6125" y="-10.0" type="curve"/>
      <point x="503.3375" y="-10.0"/>
      <point x="584.75" y="98.5875"/>
      <point x="584.75" y="268.725" type="curve"/>
      <point x="584.75" y="433.25"/>
      <point x="510.4" y="540.0"/>
      <point x="377.2375" y="540.0" type="curve"/>
      <point x="323.85" y="540.0"/>
      <point x="280.7875" y="520.8125"/>
      <point x="244.05" y="485.9375" type="curve"/>
      <point x="234.1875" y="477.9375"/>
      <point x="225.875" y="477.9375"/>
      <point x="225.875" y="493.525" type="curve"/>
      <point x="225.875" y="722.375" type="line" smooth="yes"/>
      <point x="225.875" y="734.6875"/>
      <point x="220.425" y="742.0"/>
      <point x="209.25" y="742.0" type="curve"/>
      <point x="65.5" y="742.0" type="line" smooth="yes"/>
      <point x="55.1875" y="742.0"/>
      <point x="47.875" y="734.6875"/>
      <point x="47.875" y="720.7875" type="curve"/>
      <point x="47.875" y="23.35" type="line" smooth="yes"/>
      <point x="47.875" y="7.3125"/>
      <point x="53.4625" y="0.0"/>
    </contour>
    <contour>
      <point x="225.875" y="183.9" type="curve"/>
      <point x="225.875" y="383.0875" type="line"/>
      <point x="248.625" y="411.25"/>
      <point x="277.2625" y="429.55"/>
      <point x="314.175" y="429.55" type="curve"/>
      <point x="372.6625" y="429.55"/>
      <point x="404.6125" y="384.85"/>
      <point x="404.6125" y="265.275" type="curve"/>
      <point x="404.6125" y="141.8125"/>
      <point x="369.6375" y="96.1375"/>
      <point x="310.4875" y="96.1375" type="curve"/>
      <point x="262.7125" y="96.1375"/>
      <point x="225.875" y="129.6375"/>
    </contour>
  </outline>
</glyph>
<glyph name="c" format="2">
  <advance width="553.3875"/>
  <unicode hex="0063"/>
  <anchor x="297.5875" y="530.0" name="top"/>
  <anchor x="297.0" y="0.0" name="bottom"/>
  <outline>
    <contour>
      <point x="297.725" y="540.0" type="curve"/>
      <point x="297.725" y="540.0" type="line"/>
      <point x="142.0625" y="540.0"/>
      <point x="25.8125" y="427.5875"/>
      <point x="25.8125" y="263.0" type="curve"/>
      <point x="25.8125" y="100.8625"/>
      <point x="140.0625" y="-10.0"/>
      <point x="297.725" y="-10.0" type="curve"/>
      <point x="449.1375" y="-10.0"/>
      <point x="515.9625" y="94.55"/>
      <point x="531.1875" y="150.125" type="curve"/>
      <point x="534.9125" y="163.6125"/>
      <point x="533.05" y="169.3375"/>
      <point x="523.15" y="171.3375" type="curve"/>
      <point x="438.9125" y="188.925" type="line" smooth="yes"/>
      <point x="427.15" y="191.0625"/>
      <point x="423.425" y="189.2"/>
      <point x="420.2875" y="184.0625" type="curve"/>
      <point x="392.675" y="135.9"/>
      <point x="368.8625" y="102.175"/>
      <point x="312.075" y="102.175" type="curve"/>
      <point x="246.1375" y="102.175"/>
      <point x="205.8125" y="149.7375"/>
      <point x="205.8125" y="265.0" type="curve"/>
      <point x="205.8125" y="376.8125"/>
      <point x="243.55" y="426.1"/>
      <point x="302.725" y="426.1" type="curve"/>
      <point x="351.825" y="426.1"/>
      <point x="365.775" y="390.025"/>
      <point x="376.7875" y="359.25" type="curve"/>
      <point x="379.0625" y="349.075"/>
      <point x="383.0625" y="345.4875"/>
      <point x="392.9625" y="346.625" type="curve"/>
      <point x="514.425" y="354.8625" type="line" smooth="yes"/>
      <point x="529.5" y="356.0"/>
      <point x="534.8125" y="363.175"/>
      <point x="529.95" y="378.6625" type="curve"/>
      <point x="509.825" y="454.15"/>
      <point x="433.3" y="540.0"/>
    </contour>
  </outline>
</glyph>
<glyph name="d" format="2">
  <advance width="612.7"/>
  <unicode hex="0064"/>
  <anchor x="307.9625" y="265.0" name="center"/>
  <anchor x="306.3125" y="0.0" name="bottom"/>
  <anchor x="597.675" y="559.15" name="topright"/>
  <outline>
    <contour>
      <point x="412.625" y="0.0" type="curve"/>
      <point x="412.625" y="0.0" type="line"/>
      <point x="539.8875" y="0.0" type="line" smooth="yes"/>
      <point x="559.2375" y="0.0"/>
      <point x="564.825" y="7.3125"/>
      <point x="564.825" y="23.2125" type="curve"/>
      <point x="564.825" y="720.925" type="line" smooth="yes"/>
      <point x="564.825" y="734.6875"/>
      <point x="557.5125" y="742.0"/>
      <point x="547.3375" y="742.0" type="curve"/>
      <point x="404.45" y="742.0" type="line" smooth="yes"/>
      <point x="393.1375" y="742.0"/>
      <point x="387.6875" y="734.6875"/>
      <point x="387.6875" y="722.5125" type="curve"/>
      <point x="387.6875" y="495.5875" type="line" smooth="yes"/>
      <point x="387.6875" y="480.0"/>
      <point x="379.65" y="479.45"/>
      <point x="369.375" y="487.725" type="curve"/>
      <point x="329.75" y="525.525"/>
      <point x="291.0625" y="540.0"/>
      <point x="242.2125" y="540.0" type="curve"/>
      <point x="127.125" y="540.0"/>
      <point x="27.674999999999997" y="430.175"/>
      <point x="27.674999999999997" y="261.9" type="curve"/>
      <point x="27.674999999999997" y="81.45"/>
      <point x="112.5625" y="-10.0"/>
      <point x="231.9375" y="-10.0" type="curve"/>
      <point x="298.6125" y="-10.0"/>
      <point x="339.2625" y="15.362499999999997"/>
      <point x="375.1" y="48.75" type="curve"/>
      <point x="382.2375" y="55.025"/>
      <point x="389.6875" y="54.025"/>
      <point x="389.6875" y="44.75" type="curve"/>
      <point x="389.6875" y="21.35" type="line" smooth="yes"/>
      <point x="389.6875" y="5.725"/>
      <point x="400.45" y="0.0"/>
    </contour>
    <contour>
      <point x="386.825" y="384.6" type="curve"/>
      <point x="386.825" y="384.6" type="line"/>
      <point x="386.825" y="175.175" type="line" smooth="yes"/>
      <point x="386.825" y="133.2875"/>
      <point x="350.1875" y="98.72500000000001"/>
      <point x="303.35" y="98.72500000000001" type="curve"/>
      <point x="245.3375" y="98.72500000000001"/>
      <point x="207.675" y="142.2625"/>
      <point x="207.675" y="263.3125" type="curve"/>
      <point x="207.675" y="384.2625"/>
      <point x="247.825" y="427.825"/>
      <point x="304.45" y="427.825" type="curve"/>
      <point x="339.575" y="427.825"/>
      <point x="361.975" y="412.7625"/>
    </contour>
  </outline>
</glyph>
<glyph name="e" format="2">
  <advance width="588.2125"/>
  <unicode hex="0065"/>
  <anchor x="427.5" y="24.9" name="ogonek"/>
  <anchor x="303.45" y="0.0" name="bottom"/>
  <anchor x="300.45" y="530.0" name="top"/>
  <outline>
    <contour>
      <point x="209.2625" y="215.85" type="curve"/>
      <point x="209.2625" y="215.85" type="line"/>
      <point x="209.2625" y="227.1625"/>
      <point x="213.85000000000002" y="232.4375"/>
      <point x="223.025" y="232.4375" type="curve"/>
      <point x="547.775" y="232.4375" type="line" smooth="yes"/>
      <point x="564.5" y="233.3"/>
      <point x="565.0875" y="240.9875"/>
      <point x="565.0875" y="256.75" type="curve"/>
      <point x="565.0875" y="435.9625"/>
      <point x="453.8" y="540.0"/>
      <point x="299.0" y="540.0" type="curve"/>
      <point x="151.9625" y="540.0"/>
      <point x="25.8125" y="427.375"/>
      <point x="25.8125" y="256.6875" type="curve"/>
      <point x="25.8125" y="99.1375"/>
      <point x="144.65" y="-10.0"/>
      <point x="302.45" y="-10.0" type="curve"/>
      <point x="411.975" y="-10.0"/>
      <point x="480.25" y="18.375"/>
      <point x="548.675" y="115.525" type="curve"/>
      <point x="556.85" y="125.5625"/>
      <point x="554.125" y="133.875"/>
      <point x="545.0875" y="137.6" type="curve"/>
      <point x="463.4375" y="171.575" type="line" smooth="yes"/>
      <point x="451.675" y="176.3"/>
      <point x="448.675" y="175.3"/>
      <point x="443.8125" y="170.1625" type="curve"/>
      <point x="400.9125" y="124.825"/>
      <point x="366.0625" y="109.075"/>
      <point x="325.7375" y="109.075" type="curve"/>
      <point x="260.3125" y="109.075"/>
      <point x="209.2625" y="147.7"/>
    </contour>
    <contour>
      <point x="374.9875" y="326.225" type="curve"/>
      <point x="211.9875" y="327.0875" type="line"/>
      <point x="210.9875" y="394.3125"/>
      <point x="253.1125" y="433.8625"/>
      <point x="306.625" y="433.8625" type="curve"/>
      <point x="365.7" y="433.8625"/>
      <point x="391.9875" y="377.775"/>
      <point x="391.9875" y="340.225" type="curve"/>
      <point x="391.9875" y="328.3625"/>
      <point x="388.125" y="326.225"/>
    </contour>
  </outline>
</glyph>
<glyph name="f" format="2">
  <advance width="410.575"/>
  <unicode hex="0066"/>
  <outline>
    <contour>
      <point x="369.225" y="530.0" type="curve"/>
      <point x="369.225" y="530.0" type="line"/>
      <point x="296.4625" y="530.0" type="line" smooth="yes"/>
      <point x="288.875" y="530.0"/>
      <point x="284.2875" y="532.8625"/>
      <point x="284.2875" y="542.175" type="curve"/>
      <point x="284.2875" y="570.075" type="line" smooth="yes"/>
      <point x="284.2875" y="601.2375"/>
      <point x="305.05" y="625.0625"/>
      <point x="331.7625" y="625.0625" type="curve"/>
      <point x="379.85" y="625.0625" type="line" smooth="yes"/>
      <point x="390.8875" y="625.0625"/>
      <point x="396.475" y="633.1"/>
      <point x="396.475" y="643.275" type="curve"/>
      <point x="395.6125" y="718.6125" type="line" smooth="yes"/>
      <point x="395.6125" y="733.1"/>
      <point x="386.7125" y="742.0"/>
      <point x="369.775" y="742.0" type="curve"/>
      <point x="262.4125" y="742.0" type="line" smooth="yes"/>
      <point x="167.75" y="742.0"/>
      <point x="110.6" y="689.65"/>
      <point x="110.6" y="603.3375" type="curve"/>
      <point x="110.6" y="546.4875" type="line" smooth="yes"/>
      <point x="110.6" y="534.5875"/>
      <point x="107.7375" y="530.0"/>
      <point x="97.5625" y="530.0" type="curve"/>
      <point x="40.625" y="530.0" type="line" smooth="yes"/>
      <point x="25.4125" y="530.0"/>
      <point x="19.1" y="521.1"/>
      <point x="19.1" y="510.2" type="curve"/>
      <point x="19.1" y="425.9625" type="line" smooth="yes"/>
      <point x="19.1" y="413.3375"/>
      <point x="26.275" y="408.75"/>
      <point x="38.9" y="408.75" type="curve"/>
      <point x="102.875" y="408.75" type="line" smooth="yes"/>
      <point x="108.6" y="408.75"/>
      <point x="110.6" y="405.75"/>
      <point x="110.6" y="399.1625" type="curve"/>
      <point x="110.6" y="18.625" type="line" smooth="yes"/>
      <point x="110.6" y="6.45"/>
      <point x="116.9125" y="0.0"/>
      <point x="127.225" y="0.0" type="curve"/>
      <point x="270.975" y="0.0" type="line" smooth="yes"/>
      <point x="282.15" y="0.0"/>
      <point x="288.6" y="6.45"/>
      <point x="288.6" y="20.4875" type="curve"/>
      <point x="288.6" y="397.4375" type="line" smooth="yes"/>
      <point x="288.6" y="405.025"/>
      <point x="293.1875" y="408.75"/>
      <point x="299.9125" y="408.75" type="curve"/>
      <point x="371.675" y="408.75" type="line" smooth="yes"/>
      <point x="383.4375" y="408.75"/>
      <point x="391.475" y="413.3375"/>
      <point x="391.475" y="425.9625" type="curve"/>
      <point x="391.475" y="510.2" type="line" smooth="yes"/>
      <point x="391.475" y="521.1"/>
      <point x="384.3" y="530.0"/>
    </contour>
  </outline>
</glyph>
<glyph name="g" format="2">
  <advance width="643.2375"/>
  <unicode hex="0067"/>
  <anchor x="302.8375" y="530.0" name="top"/>
  <outline>
    <contour>
      <point x="603.725" y="557.6" type="curve"/>
      <point x="603.725" y="557.6" type="line"/>
      <point x="573.7625" y="557.6"/>
      <point x="521.3375" y="530.2875"/>
      <point x="495.3" y="495.45" type="curve"/>
      <point x="488.3" y="486.1375"/>
      <point x="475.675" y="485.275"/>
      <point x="466.0875" y="493.0" type="curve"/>
      <point x="432.95" y="519.4125"/>
      <point x="377.0125" y="538.0"/>
      <point x="302.3875" y="538.0" type="curve"/>
      <point x="129.85" y="538.0"/>
      <point x="40.637499999999996" y="469.825"/>
      <point x="40.637499999999996" y="372.45" type="curve"/>
      <point x="40.637499999999996" y="311.3125"/>
      <point x="76.7125" y="265.1375"/>
      <point x="141.2" y="236.725" type="curve"/>
      <point x="150.7875" y="231.0"/>
      <point x="145.025" y="227.5875"/>
      <point x="138.75" y="224.725" type="curve"/>
      <point x="85.3" y="202.6875"/>
      <point x="35.525" y="170.65"/>
      <point x="35.525" y="127.0875" type="curve"/>
      <point x="35.525" y="88.69999999999999"/>
      <point x="63.775" y="64.9375"/>
      <point x="97.675" y="48.625" type="curve"/>
      <point x="105.5375" y="44.762499999999996"/>
      <point x="107.2625" y="40.762499999999996"/>
      <point x="97.675" y="37.625" type="curve"/>
      <point x="43.3" y="19.875"/>
      <point x="1.3624999999999972" y="-4.012500000000003"/>
      <point x="1.3624999999999972" y="-49.425" type="curve"/>
      <point x="1.3624999999999972" y="-134.6625"/>
      <point x="101.1625" y="-175.0"/>
      <point x="302.6" y="-175.0" type="curve"/>
      <point x="496.725" y="-175.0"/>
      <point x="596.8" y="-101.75"/>
      <point x="596.8" y="-0.02499999999999858" type="curve"/>
      <point x="596.8" y="81.5625"/>
      <point x="533.4125" y="138.4625"/>
      <point x="391.05" y="147.05" type="curve"/>
      <point x="243.45" y="155.775" type="line" smooth="yes"/>
      <point x="207.85" y="158.05"/>
      <point x="190.5125" y="162.7375"/>
      <point x="190.5125" y="178.975" type="curve"/>
      <point x="190.5125" y="196.075"/>
      <point x="218.3375" y="209.0"/>
      <point x="291.075" y="209.0" type="curve"/>
      <point x="455.3625" y="209.0"/>
      <point x="540.5125" y="283.45"/>
      <point x="540.5125" y="373.3125" type="curve"/>
      <point x="540.5125" y="387.7125"/>
      <point x="536.8625" y="400.3625"/>
      <point x="533.3125" y="411.325" type="curve"/>
      <point x="529.45" y="424.3625"/>
      <point x="534.45" y="432.95"/>
      <point x="553.3125" y="434.325" type="curve"/>
      <point x="565.8625" y="435.5625"/>
      <point x="584.0375" y="433.525"/>
      <point x="598.825" y="430.2125" type="curve"/>
      <point x="613.6875" y="426.0375"/>
      <point x="623.5875" y="433.7625"/>
      <point x="623.5875" y="454.8375" type="curve"/>
      <point x="623.5875" y="534.25" type="line" smooth="yes"/>
      <point x="623.5875" y="551.0125"/>
      <point x="615.275" y="557.6"/>
    </contour>
    <contour>
      <point x="289.4875" y="292.7125" type="curve"/>
      <point x="289.4875" y="292.7125" type="line"/>
      <point x="231.925" y="292.7125"/>
      <point x="199.66250000000002" y="327.95"/>
      <point x="199.66250000000002" y="370.1375" type="curve"/>
      <point x="199.66250000000002" y="416.775"/>
      <point x="232.0625" y="452.5625"/>
      <point x="289.4875" y="452.5625" type="curve"/>
      <point x="352.3625" y="452.5625"/>
      <point x="378.9" y="416.9125"/>
      <point x="378.9" y="370.1375" type="curve"/>
      <point x="378.9" y="328.675"/>
      <point x="352.6375" y="292.7125"/>
    </contour>
    <contour>
      <point x="220.0875" y="18.724999999999994" type="curve"/>
      <point x="369.35" y="12.037499999999994" type="line"/>
      <point x="417.9875" y="9.625"/>
      <point x="441.8125" y="-8.850000000000001"/>
      <point x="441.8125" y="-32.8" type="curve"/>
      <point x="441.8125" y="-69.0875"/>
      <point x="396.5125" y="-93.01249999999999"/>
      <point x="312.4625" y="-93.01249999999999" type="curve"/>
      <point x="186.6375" y="-93.01249999999999"/>
      <point x="146.0" y="-68.4"/>
      <point x="146.0" y="-26.45" type="curve"/>
      <point x="146.0" y="0.7374999999999972"/>
      <point x="178.6" y="20.724999999999994"/>
    </contour>
  </outline>
</glyph>
<glyph name="h" format="2">
  <advance width="601.0125"/>
  <unicode hex="0068"/>
  <anchor x="428.5" y="530.0" name="top"/>
  <anchor x="305.5875" y="0.0" name="bottom"/>
  <outline>
    <contour>
      <point x="72.4" y="0.0" type="curve"/>
      <point x="72.4" y="0.0" type="line"/>
      <point x="197.03750000000002" y="0.0" type="line" smooth="yes"/>
      <point x="218.5625" y="0.0"/>
      <point x="226.7375" y="7.3125"/>
      <point x="226.7375" y="26.25" type="curve"/>
      <point x="226.7375" y="357.3875" type="line"/>
      <point x="254.125" y="395.1"/>
      <point x="281.2875" y="413.1625"/>
      <point x="317.7875" y="413.1625" type="curve"/>
      <point x="357.35" y="413.1625"/>
      <point x="379.55" y="391.175"/>
      <point x="379.55" y="354.575" type="curve"/>
      <point x="379.55" y="22.8" type="line" smooth="yes"/>
      <point x="379.55" y="5.5875"/>
      <point x="385.1375" y="0.0"/>
      <point x="400.625" y="0.0" type="curve"/>
      <point x="530.4375" y="0.0" type="line" smooth="yes"/>
      <point x="549.375" y="0.0"/>
      <point x="557.55" y="9.037500000000001"/>
      <point x="557.55" y="27.25" type="curve"/>
      <point x="557.55" y="377.475" type="line" smooth="yes"/>
      <point x="557.55" y="480.8625"/>
      <point x="500.825" y="540.0"/>
      <point x="400.725" y="540.0" type="curve"/>
      <point x="344.975" y="540.0"/>
      <point x="295.6625" y="521.35"/>
      <point x="236.05" y="466.4875" type="curve"/>
      <point x="228.325" y="459.7625"/>
      <point x="223.7375" y="462.4875"/>
      <point x="223.7375" y="470.35" type="curve"/>
      <point x="223.7375" y="722.7875" type="line" smooth="yes"/>
      <point x="223.7375" y="734.825"/>
      <point x="218.28750000000002" y="742.0"/>
      <point x="207.1125" y="742.0" type="curve"/>
      <point x="66.225" y="742.0" type="line" smooth="yes"/>
      <point x="55.05" y="742.0"/>
      <point x="48.7375" y="733.825"/>
      <point x="48.7375" y="720.925" type="curve"/>
      <point x="48.7375" y="22.8" type="line" smooth="yes"/>
      <point x="48.7375" y="6.45"/>
      <point x="55.1875" y="0.0"/>
    </contour>
  </outline>
</glyph>
<glyph name="i" format="2">
  <advance width="273.75"/>
  <unicode hex="0069"/>
  <outline>
    <contour>
      <point x="225.875" y="26.6625" type="curve"/>
      <point x="225.875" y="511.375" type="line"/>
      <point x="225.875" y="522.825"/>
      <point x="219.5625" y="530.0"/>
      <point x="209.1125" y="530.0" type="curve"/>
      <point x="65.5" y="530.0" type="line" smooth="yes"/>
      <point x="54.1875" y="530.0"/>
      <point x="47.875" y="522.825"/>
      <point x="47.875" y="508.7875" type="curve"/>
      <point x="47.875" y="22.9375" type="line" smooth="yes"/>
      <point x="47.875" y="7.175000000000001"/>
      <point x="53.324999999999996" y="0.0"/>
      <point x="71.8125" y="0.0" type="curve"/>
      <point x="195.7625" y="0.0" type="line" smooth="yes"/>
      <point x="216.97500000000002" y="0.0"/>
      <point x="225.875" y="7.175000000000001"/>
    </contour>
    <contour>
      <point x="226.5625" y="610.8375" type="curve"/>
      <point x="226.5625" y="722.1" type="line"/>
      <point x="226.5625" y="734.4125"/>
      <point x="219.8375" y="742.0"/>
      <point x="209.3875" y="742.0" type="curve"/>
      <point x="65.225" y="742.0" type="line" smooth="yes"/>
      <point x="53.9125" y="742.0"/>
      <point x="47.1875" y="734.4125"/>
      <point x="47.1875" y="720.375" type="curve"/>
      <point x="47.1875" y="607.975" type="line" smooth="yes"/>
      <point x="47.1875" y="592.2125"/>
      <point x="52.637499999999996" y="583.625"/>
      <point x="71.125" y="583.625" type="curve"/>
      <point x="196.45" y="583.625" type="line" smooth="yes"/>
      <point x="217.66250000000002" y="583.625"/>
      <point x="226.5625" y="592.2125"/>
    </contour>
  </outline>
</glyph>
<glyph name="l" format="2">
  <advance width="275.475"/>
  <unicode hex="006C"/>
  <anchor x="141.1875" y="742.0" name="top"/>
  <anchor x="141.1875" y="0.0" name="bottom"/>
  <anchor x="322.4125" y="559.15" name="topright"/>
  <outline>
    <contour>
      <point x="226.7375" y="26.6625" type="curve"/>
      <point x="226.7375" y="722.5125" type="line"/>
      <point x="226.7375" y="734.825"/>
      <point x="220.425" y="742.0"/>
      <point x="209.97500000000002" y="742.0" type="curve"/>
      <point x="68.95" y="742.0" type="line" smooth="yes"/>
      <point x="57.637499999999996" y="742.0"/>
      <point x="51.324999999999996" y="734.825"/>
      <point x="51.324999999999996" y="720.7875" type="curve"/>
      <point x="47.012499999999996" y="22.9375" type="line" smooth="yes"/>
      <point x="47.012499999999996" y="7.175000000000001"/>
      <point x="53.324999999999996" y="0.0"/>
      <point x="71.8125" y="0.0" type="curve"/>
      <point x="196.625" y="0.0" type="line" smooth="yes"/>
      <point x="217.8375" y="0.0"/>
      <point x="226.7375" y="7.175000000000001"/>
    </contour>
  </outline>
</glyph>
<glyph name="m" format="2">
  <advance width="923.7375"/>
  <unicode hex="006D"/>
  <guideline x="316.7125" y="347.9125" angle="90.0"/>
  <outline>
    <contour>
      <point x="71.5375" y="0.0" type="curve"/>
      <point x="71.5375" y="0.0" type="line"/>
      <point x="196.175" y="0.0" type="line" smooth="yes"/>
      <point x="217.7" y="0.0"/>
      <point x="225.875" y="7.3125"/>
      <point x="225.875" y="26.25" type="curve"/>
      <point x="225.875" y="357.3875" type="line"/>
      <point x="252.7125" y="395.1"/>
      <point x="280.4625" y="413.1625"/>
      <point x="315.55" y="413.1625" type="curve"/>
      <point x="354.15" y="413.1625"/>
      <point x="375.9375" y="391.175"/>
      <point x="375.9375" y="354.575" type="curve"/>
      <point x="375.9375" y="22.8" type="line" smooth="yes"/>
      <point x="375.9375" y="5.5875"/>
      <point x="382.525" y="0.0"/>
      <point x="397.0125" y="0.0" type="curve"/>
      <point x="525.9625" y="0.0" type="line" smooth="yes"/>
      <point x="544.7625" y="0.0"/>
      <point x="553.075" y="9.037500000000001"/>
      <point x="553.075" y="27.25" type="curve"/>
      <point x="553.075" y="341.25" type="line" smooth="yes"/>
      <point x="553.075" y="350.9375"/>
      <point x="554.625" y="358.6625"/>
      <point x="562.3125" y="368.6625" type="curve"/>
      <point x="580.6125" y="391.175"/>
      <point x="611.15" y="413.1625"/>
      <point x="642.75" y="413.1625" type="curve"/>
      <point x="680.4875" y="413.1625"/>
      <point x="703.1375" y="391.175"/>
      <point x="703.1375" y="354.575" type="curve"/>
      <point x="703.1375" y="22.8" type="line" smooth="yes"/>
      <point x="703.1375" y="5.5875"/>
      <point x="708.725" y="0.0"/>
      <point x="724.2125" y="0.0" type="curve"/>
      <point x="853.1625" y="0.0" type="line" smooth="yes"/>
      <point x="872.1" y="0.0"/>
      <point x="881.1375" y="9.037500000000001"/>
      <point x="881.1375" y="27.25" type="curve"/>
      <point x="881.1375" y="375.75" type="line" smooth="yes"/>
      <point x="881.1375" y="480.0"/>
      <point x="818.7875" y="540.0"/>
      <point x="727.4125" y="540.0" type="curve"/>
      <point x="666.175" y="540.0"/>
      <point x="594.7125" y="498.925"/>
      <point x="552.9" y="447.5125" type="curve"/>
      <point x="547.7625" y="441.65"/>
      <point x="542.4875" y="441.1"/>
      <point x="540.4875" y="446.2375" type="curve"/>
      <point x="518.8625" y="505.2125"/>
      <point x="467.825" y="540.8625"/>
      <point x="398.4875" y="540.8625" type="curve"/>
      <point x="336.3875" y="540.8625"/>
      <point x="282.175" y="507.55"/>
      <point x="235.1875" y="460.45" type="curve"/>
      <point x="227.4625" y="452.8625"/>
      <point x="222.875" y="456.45"/>
      <point x="222.875" y="464.3125" type="curve"/>
      <point x="222.875" y="511.65" type="line" smooth="yes"/>
      <point x="222.875" y="522.825"/>
      <point x="217.425" y="530.0"/>
      <point x="206.25" y="530.0" type="curve"/>
      <point x="65.3625" y="530.0" type="line" smooth="yes"/>
      <point x="55.05" y="530.0"/>
      <point x="47.875" y="521.825"/>
      <point x="47.875" y="508.925" type="curve"/>
      <point x="47.875" y="22.8" type="line" smooth="yes"/>
      <point x="47.875" y="6.45"/>
      <point x="54.324999999999996" y="0.0"/>
    </contour>
  </outline>
</glyph>
<glyph name="n" format="2">
  <advance width="600.15"/>
  <unicode hex="006E"/>
  <anchor x="303.8625" y="530.0" name="top"/>
  <anchor x="302.4875" y="0.0" name="bottom"/>
  <outline>
    <contour>
      <point x="71.5375" y="0.0" type="curve"/>
      <point x="71.5375" y="0.0" type="line"/>
      <point x="196.175" y="0.0" type="line" smooth="yes"/>
      <point x="217.7" y="0.0"/>
      <point x="225.875" y="7.3125"/>
      <point x="225.875" y="26.25" type="curve"/>
      <point x="225.875" y="357.3875" type="line"/>
      <point x="253.2625" y="395.1"/>
      <point x="280.425" y="413.1625"/>
      <point x="316.925" y="413.1625" type="curve"/>
      <point x="356.4875" y="413.1625"/>
      <point x="379.55" y="391.175"/>
      <point x="379.55" y="354.575" type="curve"/>
      <point x="379.55" y="22.8" type="line" smooth="yes"/>
      <point x="379.55" y="5.5875"/>
      <point x="385.1375" y="0.0"/>
      <point x="400.625" y="0.0" type="curve"/>
      <point x="530.4375" y="0.0" type="line" smooth="yes"/>
      <point x="549.375" y="0.0"/>
      <point x="557.55" y="9.037500000000001"/>
      <point x="557.55" y="27.25" type="curve"/>
      <point x="557.55" y="380.0625" type="line" smooth="yes"/>
      <point x="557.55" y="477.4125"/>
      <point x="494.7875" y="540.0"/>
      <point x="399.8625" y="540.0" type="curve"/>
      <point x="336.35" y="540.0"/>
      <point x="282.725" y="507.55"/>
      <point x="236.05" y="460.45" type="curve"/>
      <point x="228.325" y="452.8625"/>
      <point x="223.7375" y="456.45"/>
      <point x="223.7375" y="464.3125" type="curve"/>
      <point x="223.7375" y="511.65" type="line" smooth="yes"/>
      <point x="223.7375" y="522.825"/>
      <point x="218.28750000000002" y="530.0"/>
      <point x="207.1125" y="530.0" type="curve"/>
      <point x="65.3625" y="530.0" type="line" smooth="yes"/>
      <point x="54.1875" y="530.0"/>
      <point x="47.875" y="521.825"/>
      <point x="47.875" y="508.925" type="curve"/>
      <point x="47.875" y="22.8" type="line" smooth="yes"/>
      <point x="47.875" y="6.45"/>
      <point x="54.324999999999996" y="0.0"/>
    </contour>
  </outline>
</glyph>
<glyph name="o" format="2">
  <advance width="599.725"/>
  <unicode hex="006F"/>
  <anchor x="299.8625" y="265.0" name="center"/>
  <anchor x="375.9375" y="10.0" name="ogonek"/>
  <anchor x="300.1375" y="530.0" name="top"/>
  <anchor x="454.875" y="530.0" name="topright"/>
  <anchor x="297.1375" y="0.0" name="bottom"/>
  <outline>
    <contour>
      <point x="299.0" y="-10.0" type="curve"/>
      <point x="299.0" y="-10.0" type="line"/>
      <point x="461.3875" y="-10.0"/>
      <point x="573.9125" y="103.725"/>
      <point x="573.9125" y="262.275" type="curve"/>
      <point x="573.9125" y="423.4125"/>
      <point x="463.975" y="540.0"/>
      <point x="300.0" y="540.0" type="curve"/>
      <point x="143.65" y="540.0"/>
      <point x="25.8125" y="428.45"/>
      <point x="25.8125" y="262.0" type="curve"/>
      <point x="25.8125" y="102.725"/>
      <point x="137.3375" y="-10.0"/>
    </contour>
    <contour>
      <point x="300.1375" y="105.625" type="curve"/>
      <point x="300.1375" y="105.625" type="line"/>
      <point x="237.375" y="105.625"/>
      <point x="205.8125" y="156.6375"/>
      <point x="205.8125" y="265.725" type="curve"/>
      <point x="205.8125" y="375.675"/>
      <point x="237.375" y="427.825"/>
      <point x="300.0" y="427.825" type="curve"/>
      <point x="363.35" y="427.825"/>
      <point x="393.9125" y="375.8125"/>
      <point x="393.9125" y="265.725" type="curve"/>
      <point x="393.9125" y="157.3625"/>
      <point x="363.625" y="105.625"/>
    </contour>
  </outline>
</glyph>
<glyph name="q" format="2">
  <advance width="612.8375"/>
  <unicode hex="0071"/>
  <outline>
    <contour>
      <point x="540.1625" y="530.0" type="curve"/>
      <point x="467.475" y="530.0" type="line"/>
      <point x="455.475" y="530.0"/>
      <point x="448.3" y="522.6875"/>
      <point x="443.85" y="507.5125" type="curve"/>
      <point x="429.5" y="462.2" type="line" smooth="yes"/>
      <point x="426.775" y="453.3375"/>
      <point x="422.9125" y="452.3375"/>
      <point x="416.9125" y="459.2" type="curve"/>
      <point x="381.075" y="504.25"/>
      <point x="329.275" y="540.8625"/>
      <point x="251.05" y="540.8625" type="curve"/>
      <point x="112.675" y="540.8625"/>
      <point x="27.8125" y="431.0"/>
      <point x="27.8125" y="264.55" type="curve"/>
      <point x="27.8125" y="88.2"/>
      <point x="109.775" y="-10.0"/>
      <point x="240.975" y="-10.0" type="curve"/>
      <point x="289.0" y="-10.0"/>
      <point x="333.65" y="11.4125"/>
      <point x="369.5125" y="39.275" type="curve"/>
      <point x="380.7875" y="48.4125"/>
      <point x="386.9625" y="47.1375"/>
      <point x="386.9625" y="28.825" type="curve"/>
      <point x="386.9625" y="-146.2375" type="line" smooth="yes"/>
      <point x="386.9625" y="-158.55"/>
      <point x="393.275" y="-165.0"/>
      <point x="403.5875" y="-165.0" type="curve"/>
      <point x="547.3375" y="-165.0" type="line" smooth="yes"/>
      <point x="557.65" y="-165.0"/>
      <point x="564.9625" y="-158.55"/>
      <point x="564.9625" y="-144.65" type="curve"/>
      <point x="564.9625" y="505.7875" type="line" smooth="yes"/>
      <point x="564.9625" y="521.825"/>
      <point x="559.375" y="530.0"/>
    </contour>
    <contour>
      <point x="386.9625" y="345.2375" type="curve"/>
      <point x="386.9625" y="137.775" type="line"/>
      <point x="364.075" y="113.0625"/>
      <point x="335.575" y="98.72500000000001"/>
      <point x="301.175" y="98.72500000000001" type="curve"/>
      <point x="244.1" y="98.72500000000001"/>
      <point x="207.8125" y="143.875"/>
      <point x="207.8125" y="265.55" type="curve"/>
      <point x="207.8125" y="387.05"/>
      <point x="247.5125" y="436.45"/>
      <point x="304.2125" y="436.45" type="curve"/>
      <point x="353.775" y="436.45"/>
      <point x="386.9625" y="397.95"/>
    </contour>
  </outline>
</glyph>
<glyph name="r" format="2">
  <advance width="440.525"/>
  <unicode hex="0072"/>
  <anchor x="228.0125" y="530.0" name="top"/>
  <anchor x="147.225" y="0.0" name="bottom"/>
  <outline>
    <contour>
      <point x="71.5375" y="0.0" type="curve"/>
      <point x="71.5375" y="0.0" type="line"/>
      <point x="196.175" y="0.0" type="line" smooth="yes"/>
      <point x="216.8375" y="0.0"/>
      <point x="225.875" y="7.3125"/>
      <point x="225.875" y="26.25" type="curve"/>
      <point x="225.875" y="304.625" type="line" smooth="yes"/>
      <point x="225.875" y="344.025"/>
      <point x="275.85" y="381.8375"/>
      <point x="322.6" y="381.8375" type="curve"/>
      <point x="341.325" y="381.8375"/>
      <point x="373.475" y="379.1125"/>
      <point x="400.9" y="372.2125" type="curve"/>
      <point x="411.6625" y="369.625"/>
      <point x="418.8375" y="375.075"/>
      <point x="418.8375" y="386.7" type="curve"/>
      <point x="418.8375" y="521.375" type="line" smooth="yes"/>
      <point x="418.8375" y="534.4125"/>
      <point x="405.3875" y="540.0"/>
      <point x="382.1125" y="540.0" type="curve"/>
      <point x="334.15" y="540.0"/>
      <point x="271.0375" y="502.2"/>
      <point x="235.1875" y="451.0" type="curve"/>
      <point x="228.4625" y="442.4125"/>
      <point x="219.425" y="444.4125"/>
      <point x="219.425" y="454.0" type="curve"/>
      <point x="219.425" y="511.65" type="line" smooth="yes"/>
      <point x="219.425" y="522.825"/>
      <point x="213.1125" y="530.0"/>
      <point x="202.8" y="530.0" type="curve"/>
      <point x="65.3625" y="530.0" type="line" smooth="yes"/>
      <point x="54.1875" y="530.0"/>
      <point x="47.875" y="522.6875"/>
      <point x="47.875" y="508.925" type="curve"/>
      <point x="47.875" y="22.8" type="line" smooth="yes"/>
      <point x="47.875" y="7.3125"/>
      <point x="53.4625" y="0.0"/>
    </contour>
  </outline>
</glyph>
<glyph name="s" format="2">
  <advance width="535.5"/>
  <unicode hex="0073"/>
  <anchor x="264.1875" y="530.0" name="top"/>
  <anchor x="264.425" y="0.0" name="bottom"/>
  <outline>
    <contour>
      <point x="377.2625" y="384.6" type="curve"/>
      <point x="377.2625" y="384.6" type="line"/>
      <point x="384.4375" y="376.425"/>
      <point x="392.75" y="372.1125"/>
      <point x="403.5125" y="377.5625" type="curve"/>
      <point x="486.025" y="417.575" type="line" smooth="yes"/>
      <point x="498.5125" y="423.8875"/>
      <point x="491.75" y="435.375"/>
      <point x="486.1625" y="444.55" type="curve"/>
      <point x="455.7875" y="494.925"/>
      <point x="376.3" y="540.0"/>
      <point x="271.0125" y="540.0" type="curve"/>
      <point x="122.3375" y="540.0"/>
      <point x="36.8875" y="463.75"/>
      <point x="37.75" y="361.5375" type="curve"/>
      <point x="38.6125" y="276.175"/>
      <point x="94.9375" y="226.8625"/>
      <point x="195.8" y="207.2125" type="curve"/>
      <point x="297.9375" y="187.2875" type="line" smooth="yes"/>
      <point x="342.2625" y="177.8125"/>
      <point x="353.8375" y="164.0625"/>
      <point x="353.8375" y="146.6625" type="curve"/>
      <point x="353.8375" y="116.575"/>
      <point x="315.75" y="102.175"/>
      <point x="267.15" y="101.3125" type="curve"/>
      <point x="186.6" y="99.5875"/>
      <point x="154.925" y="133.0"/>
      <point x="130.275" y="163.675" type="curve"/>
      <point x="123.9625" y="170.9875"/>
      <point x="117.375" y="172.7125"/>
      <point x="102.30000000000001" y="165.5375" type="curve"/>
      <point x="24.2375" y="125.6625" type="line" smooth="yes"/>
      <point x="15.0625" y="120.9375"/>
      <point x="15.924999999999999" y="110.175"/>
      <point x="22.2375" y="99.275" type="curve"/>
      <point x="55.2375" y="38.45"/>
      <point x="142.55" y="-10.0"/>
      <point x="266.2875" y="-10.0" type="curve"/>
      <point x="411.3375" y="-10.0"/>
      <point x="512.275" y="54.45"/>
      <point x="512.275" y="165.4625" type="curve"/>
      <point x="512.275" y="239.7125"/>
      <point x="469.1" y="304.4125"/>
      <point x="351.425" y="330.275" type="curve"/>
      <point x="241.4375" y="355.3" type="line" smooth="yes"/>
      <point x="199.66250000000002" y="364.775"/>
      <point x="193.60000000000002" y="377.9375"/>
      <point x="193.60000000000002" y="390.2375" type="curve"/>
      <point x="193.60000000000002" y="418.0125"/>
      <point x="227.275" y="434.725"/>
      <point x="269.15" y="434.725" type="curve"/>
      <point x="321.45" y="434.725"/>
      <point x="355.75" y="410.9"/>
    </contour>
  </outline>
</glyph>
<glyph name="t" format="2">
  <advance width="447.7"/>
  <unicode hex="0074"/>
  <anchor x="217.0625" y="272.2875" name="center"/>
  <anchor x="262.05" y="0.0" name="bottom"/>
  <anchor x="426.5625" y="806.75" name="topright"/>
  <outline>
    <contour>
      <point x="298.8875" y="408.75" type="curve"/>
      <point x="398.2125" y="408.75" type="line"/>
      <point x="413.5625" y="408.75"/>
      <point x="420.6" y="416.7875"/>
      <point x="420.6" y="428.55" type="curve"/>
      <point x="420.6" y="513.65" type="line" smooth="yes"/>
      <point x="420.6" y="525.4125"/>
      <point x="412.5625" y="530.8625"/>
      <point x="400.8" y="530.8625" type="curve"/>
      <point x="302.3375" y="530.8625" type="line" smooth="yes"/>
      <point x="295.6125" y="530.8625"/>
      <point x="291.8875" y="534.5875"/>
      <point x="291.8875" y="541.3125" type="curve"/>
      <point x="291.8875" y="689.5125" type="line" smooth="yes"/>
      <point x="291.8875" y="702.6875"/>
      <point x="284.575" y="710.0"/>
      <point x="274.2625" y="710.0" type="curve"/>
      <point x="145.55" y="710.0" type="line" smooth="yes"/>
      <point x="134.375" y="710.0"/>
      <point x="129.7875" y="703.55"/>
      <point x="128.925" y="691.375" type="curve"/>
      <point x="113.8875" y="541.3125" type="line" smooth="yes"/>
      <point x="113.025" y="533.8625"/>
      <point x="109.3" y="530.0"/>
      <point x="102.7125" y="530.0" type="curve"/>
      <point x="38.9" y="530.0" type="line" smooth="yes"/>
      <point x="26.275" y="530.0"/>
      <point x="19.1" y="524.55"/>
      <point x="19.1" y="512.7875" type="curve"/>
      <point x="19.1" y="428.55" type="line" smooth="yes"/>
      <point x="19.1" y="416.7875"/>
      <point x="25.4125" y="408.75"/>
      <point x="40.625" y="408.75" type="curve"/>
      <point x="94.8125" y="408.75" type="line" smooth="yes"/>
      <point x="105.85" y="408.75"/>
      <point x="108.7125" y="403.3"/>
      <point x="108.7125" y="392.2625" type="curve"/>
      <point x="108.7125" y="131.075" type="line" smooth="yes"/>
      <point x="108.7125" y="45.2125"/>
      <point x="172.525" y="0.0"/>
      <point x="266.325" y="0.0" type="curve"/>
      <point x="307.0625" y="0.0"/>
      <point x="353.75" y="1.0"/>
      <point x="393.4875" y="6.5875" type="curve"/>
      <point x="410.425" y="10.175"/>
      <point x="419.325" y="18.9375"/>
      <point x="419.325" y="33.425" type="curve"/>
      <point x="420.1875" y="104.7625" type="line" smooth="yes"/>
      <point x="420.1875" y="114.9375"/>
      <point x="413.7375" y="122.97500000000001"/>
      <point x="403.5625" y="122.97500000000001" type="curve"/>
      <point x="355.6125" y="122.97500000000001" type="line" smooth="yes"/>
      <point x="307.85" y="122.97500000000001"/>
      <point x="286.7125" y="140.5625"/>
      <point x="286.7125" y="180.925" type="curve"/>
      <point x="286.7125" y="396.575" type="line" smooth="yes"/>
      <point x="286.7125" y="405.025"/>
      <point x="292.1625" y="408.75"/>
    </contour>
  </outline>
</glyph>
<glyph name="u" format="2">
  <advance width="596.875"/>
  <unicode hex="0075"/>
  <anchor x="522.8875" y="10.1375" name="ogonek"/>
  <anchor x="294.7375" y="530.0" name="top"/>
  <anchor x="572.3375" y="530.0" name="topright"/>
  <anchor x="295.6" y="0.0" name="bottom"/>
  <outline>
    <contour>
      <point x="279.6375" y="115.97500000000001" type="curve"/>
      <point x="279.6375" y="115.97500000000001" type="line"/>
      <point x="244.03750000000002" y="115.97500000000001"/>
      <point x="220.4625" y="138.7875"/>
      <point x="220.4625" y="176.25" type="curve"/>
      <point x="220.4625" y="506.3375" type="line" smooth="yes"/>
      <point x="220.4625" y="523.55"/>
      <point x="214.875" y="530.0"/>
      <point x="199.3875" y="530.0" type="curve"/>
      <point x="70.4375" y="530.0" type="line" smooth="yes"/>
      <point x="50.637499999999996" y="530.0"/>
      <point x="42.4625" y="520.9625"/>
      <point x="42.4625" y="502.75" type="curve"/>
      <point x="42.4625" y="154.25" type="line" smooth="yes"/>
      <point x="42.4625" y="50.0"/>
      <point x="106.425" y="-10.0"/>
      <point x="193.525" y="-10.0" type="curve"/>
      <point x="258.4625" y="-10.0"/>
      <point x="311.325" y="13.175"/>
      <point x="362.55" y="68.9625" type="curve"/>
      <point x="369.4125" y="75.6875"/>
      <point x="374.0" y="72.9625"/>
      <point x="374.0" y="65.1" type="curve"/>
      <point x="374.0" y="18.35" type="line" smooth="yes"/>
      <point x="374.0" y="6.3125"/>
      <point x="380.3125" y="0.0"/>
      <point x="390.625" y="0.0" type="curve"/>
      <point x="529.7875" y="0.0" type="line" smooth="yes"/>
      <point x="540.9625" y="0.0"/>
      <point x="547.275" y="7.3125"/>
      <point x="547.275" y="20.2125" type="curve"/>
      <point x="550.725" y="506.3375" type="line" smooth="yes"/>
      <point x="550.725" y="522.6875"/>
      <point x="544.275" y="530.0"/>
      <point x="527.0625" y="530.0" type="curve"/>
      <point x="400.7" y="530.0" type="line" smooth="yes"/>
      <point x="380.0375" y="530.0"/>
      <point x="371.0" y="521.825"/>
      <point x="371.0" y="503.75" type="curve"/>
      <point x="371.0" y="165.775" type="line"/>
      <point x="346.5375" y="137.0"/>
      <point x="314.8625" y="115.97500000000001"/>
    </contour>
  </outline>
</glyph>
<glyph name="v" format="2">
  <advance width="582.6125"/>
  <unicode hex="0076"/>
  <outline>
    <contour>
      <point x="547.7875" y="530.0" type="curve"/>
      <point x="547.7875" y="530.0" type="line"/>
      <point x="448.1625" y="530.0" type="line" smooth="yes"/>
      <point x="436.9875" y="530.0"/>
      <point x="428.8125" y="521.9625"/>
      <point x="424.225" y="511.7875" type="curve"/>
      <point x="325.75" y="250.9875" type="line" smooth="yes"/>
      <point x="319.75" y="236.9875"/>
      <point x="314.75" y="237.85000000000002"/>
      <point x="310.6125" y="249.9875" type="curve"/>
      <point x="209.55" y="511.65" type="line" smooth="yes"/>
      <point x="205.82500000000002" y="521.9625"/>
      <point x="196.78750000000002" y="530.0"/>
      <point x="185.47500000000002" y="530.0" type="curve"/>
      <point x="36.6875" y="530.0" type="line" smooth="yes"/>
      <point x="21.924999999999997" y="530.0"/>
      <point x="14.6125" y="516.5125"/>
      <point x="19.2" y="503.6125" type="curve"/>
      <point x="214.85" y="22.9375" type="line" smooth="yes"/>
      <point x="221.3" y="7.3125"/>
      <point x="230.8875" y="0.0"/>
      <point x="249.5125" y="0.0" type="curve"/>
      <point x="332.5125" y="0.0" type="line" smooth="yes"/>
      <point x="351.0" y="0.0"/>
      <point x="360.45" y="7.3125"/>
      <point x="366.9" y="23.075000000000003" type="curve"/>
      <point x="563.4125" y="503.75" type="line" smooth="yes"/>
      <point x="568.0" y="516.5125"/>
      <point x="562.4125" y="530.0"/>
    </contour>
  </outline>
</glyph>
<glyph name="w" format="2">
  <advance width="825.2625"/>
  <unicode hex="0077"/>
  <anchor x="412.3875" y="530.0" name="top"/>
  <outline>
    <contour>
      <point x="789.75" y="530.0" type="curve"/>
      <point x="789.75" y="530.0" type="line"/>
      <point x="701.1625" y="530.0" type="line" smooth="yes"/>
      <point x="689.9875" y="530.0"/>
      <point x="681.5375" y="521.9625"/>
      <point x="676.95" y="511.7875" type="curve"/>
      <point x="600.0125" y="265.51250000000005" type="line" smooth="yes"/>
      <point x="595.15" y="251.51250000000002"/>
      <point x="588.425" y="252.375"/>
      <point x="585.2875" y="264.51250000000005" type="curve"/>
      <point x="510.875" y="511.65" type="line" smooth="yes"/>
      <point x="508.0125" y="521.9625"/>
      <point x="498.1125" y="530.0"/>
      <point x="487.6625" y="530.0" type="curve"/>
      <point x="390.4875" y="530.0" type="line" smooth="yes"/>
      <point x="379.45" y="530.0"/>
      <point x="369.55" y="522.1"/>
      <point x="366.6875" y="511.925" type="curve"/>
      <point x="291.65" y="265.51250000000005" type="line" smooth="yes"/>
      <point x="286.7875" y="251.51250000000002"/>
      <point x="279.925" y="252.375"/>
      <point x="276.7875" y="264.51250000000005" type="curve"/>
      <point x="198.16250000000002" y="511.65" type="line" smooth="yes"/>
      <point x="195.3" y="521.9625"/>
      <point x="185.4" y="530.0"/>
      <point x="174.0875" y="530.0" type="curve"/>
      <point x="37.2375" y="530.0" type="line" smooth="yes"/>
      <point x="22.475" y="530.0"/>
      <point x="15.162499999999998" y="516.5125"/>
      <point x="19.75" y="503.6125" type="curve"/>
      <point x="181.7875" y="20.35" type="line" smooth="yes"/>
      <point x="186.375" y="5.5875"/>
      <point x="194.1" y="0.0"/>
      <point x="208.4125" y="0.0" type="curve"/>
      <point x="304.825" y="0.0" type="line" smooth="yes"/>
      <point x="319.0" y="0.0"/>
      <point x="324.0" y="4.725"/>
      <point x="327.725" y="17.0375" type="curve"/>
      <point x="405.975" y="261.42499999999995" type="line" smooth="yes"/>
      <point x="409.8375" y="274.875"/>
      <point x="416.2875" y="275.0125"/>
      <point x="421.15" y="261.42499999999995" type="curve"/>
      <point x="495.6" y="20.35" type="line" smooth="yes"/>
      <point x="500.1875" y="5.5875"/>
      <point x="507.9125" y="0.0"/>
      <point x="523.0875" y="0.0" type="curve"/>
      <point x="616.5" y="0.0" type="line" smooth="yes"/>
      <point x="629.8125" y="0.0"/>
      <point x="634.95" y="4.725"/>
      <point x="638.675" y="17.0375" type="curve"/>
      <point x="805.5125" y="503.75" type="line" smooth="yes"/>
      <point x="810.825" y="516.5125"/>
      <point x="804.375" y="530.0"/>
    </contour>
  </outline>
</glyph>
<glyph name="x" format="2">
  <advance width="607.2875"/>
  <unicode hex="0078"/>
  <outline>
    <contour>
      <point x="578.05" y="38.7375" type="curve"/>
      <point x="578.05" y="38.7375" type="line"/>
      <point x="407.3" y="276.9375" type="line" smooth="yes"/>
      <point x="398.125" y="289.7"/>
      <point x="396.2625" y="296.5625"/>
      <point x="406.4375" y="310.325" type="curve"/>
      <point x="548.7625" y="503.8875" type="line" smooth="yes"/>
      <point x="558.6625" y="517.375"/>
      <point x="558.525" y="530.0"/>
      <point x="536.1375" y="530.0" type="curve"/>
      <point x="432.375" y="530.0" type="line" smooth="yes"/>
      <point x="411.575" y="530.0"/>
      <point x="403.5375" y="524.6875"/>
      <point x="395.3625" y="512.0625" type="curve"/>
      <point x="321.8875" y="397.975" type="line" smooth="yes"/>
      <point x="315.1625" y="386.6625"/>
      <point x="310.1625" y="388.525"/>
      <point x="304.4375" y="397.975" type="curve"/>
      <point x="226.1" y="512.0625" type="line" smooth="yes"/>
      <point x="217.925" y="524.6875"/>
      <point x="209.8875" y="530.0"/>
      <point x="189.22500000000002" y="530.0" type="curve"/>
      <point x="47.825" y="530.0" type="line" smooth="yes"/>
      <point x="27.162499999999998" y="530.0"/>
      <point x="20.849999999999998" y="512.0625"/>
      <point x="30.75" y="498.575" type="curve"/>
      <point x="188.6" y="282.9" type="line" smooth="yes"/>
      <point x="198.6375" y="269.1375"/>
      <point x="199.6375" y="262.4125"/>
      <point x="189.4625" y="249.5125" type="curve"/>
      <point x="32.55" y="45.9125" type="line" smooth="yes"/>
      <point x="6.4375" y="11.625"/>
      <point x="20.0625" y="0.0"/>
      <point x="45.3125" y="0.0" type="curve"/>
      <point x="139.3125" y="0.0" type="line" smooth="yes"/>
      <point x="157.3875" y="0.0"/>
      <point x="169.15" y="5.45"/>
      <point x="177.1875" y="17.9375" type="curve"/>
      <point x="268.25" y="147.925" type="line" smooth="yes"/>
      <point x="280.15" y="165.27499999999998"/>
      <point x="282.425" y="164.4125"/>
      <point x="294.325" y="147.0625" type="curve"/>
      <point x="384.2875" y="17.9375" type="line" smooth="yes"/>
      <point x="392.325" y="5.45"/>
      <point x="404.225" y="0.0"/>
      <point x="422.1625" y="0.0" type="curve"/>
      <point x="570.0125" y="0.0" type="line" smooth="yes"/>
      <point x="595.9875" y="0.0"/>
      <point x="598.85" y="9.9"/>
    </contour>
  </outline>
</glyph>
<glyph name="y" format="2">
  <advance width="577.8625"/>
  <unicode hex="0079"/>
  <anchor x="316.2375" y="530.0" name="top"/>
  <anchor x="430.775" y="0.0" name="bottom"/>
  <outline>
    <contour>
      <point x="102.825" y="-165.0" type="curve"/>
      <point x="102.825" y="-165.0" type="line"/>
      <point x="239.1375" y="-165.0"/>
      <point x="296.7625" y="-137.1"/>
      <point x="359.85" y="16.150000000000006" type="curve"/>
      <point x="559.525" y="503.75" type="line" smooth="yes"/>
      <point x="564.975" y="516.375"/>
      <point x="558.525" y="530.0"/>
      <point x="543.9" y="530.0" type="curve"/>
      <point x="444.275" y="530.0" type="line" smooth="yes"/>
      <point x="433.2375" y="530.0"/>
      <point x="425.0625" y="521.9625"/>
      <point x="420.475" y="511.7875" type="curve"/>
      <point x="322.925" y="244.15" type="line" smooth="yes"/>
      <point x="316.925" y="229.875"/>
      <point x="309.925" y="231.60000000000002"/>
      <point x="305.7875" y="243.60000000000002" type="curve"/>
      <point x="208.55" y="511.65" type="line" smooth="yes"/>
      <point x="204.82500000000002" y="521.9625"/>
      <point x="195.65" y="530.0"/>
      <point x="184.47500000000002" y="530.0" type="curve"/>
      <point x="35.825" y="530.0" type="line" smooth="yes"/>
      <point x="20.7875" y="530.0"/>
      <point x="12.75" y="516.375"/>
      <point x="18.3375" y="503.3375" type="curve"/>
      <point x="211.65" y="31.825" type="line" smooth="yes"/>
      <point x="223.1625" y="3.700000000000003"/>
      <point x="191.6875" y="-36.71249999999999"/>
      <point x="143.35" y="-36.71249999999999" type="curve"/>
      <point x="73.8625" y="-36.71249999999999" type="line" smooth="yes"/>
      <point x="51.5875" y="-36.71249999999999"/>
      <point x="45.725" y="-46.474999999999994"/>
      <point x="45.725" y="-54.6125" type="curve"/>
      <point x="45.725" y="-144.65" type="line" smooth="yes"/>
      <point x="45.725" y="-162.55"/>
      <point x="61.2375" y="-165.0"/>
    </contour>
  </outline>
</glyph>
<glyph name="z" format="2">
  <advance width="532.175"/>
  <unicode hex="007A"/>
  <anchor x="273.325" y="530.0" name="top"/>
  <outline>
    <contour>
      <point x="44.5875" y="0.0" type="curve"/>
      <point x="44.5875" y="0.0" type="line"/>
      <point x="483.5875" y="0.0" type="line" smooth="yes"/>
      <point x="499.075" y="0.0"/>
      <point x="506.25" y="8.9"/>
      <point x="506.25" y="20.075000000000003" type="curve"/>
      <point x="506.25" y="94.55" type="line" smooth="yes"/>
      <point x="506.25" y="107.175"/>
      <point x="498.2125" y="111.7625"/>
      <point x="485.5875" y="111.7625" type="curve"/>
      <point x="263.8125" y="111.7625" type="line" smooth="yes"/>
      <point x="251.1875" y="111.7625"/>
      <point x="248.32500000000002" y="118.075"/>
      <point x="256.63750000000005" y="129.1125" type="curve"/>
      <point x="488.8" y="426.25" type="line" smooth="yes"/>
      <point x="499.8375" y="441.7375"/>
      <point x="504.425" y="450.4625"/>
      <point x="504.425" y="464.5" type="curve"/>
      <point x="504.425" y="512.7875" type="line" smooth="yes"/>
      <point x="504.425" y="522.825"/>
      <point x="498.1125" y="530.0"/>
      <point x="487.35" y="530.0" type="curve"/>
      <point x="59.6875" y="530.0" type="line" smooth="yes"/>
      <point x="49.65" y="530.0"/>
      <point x="43.3375" y="522.825"/>
      <point x="43.3375" y="511.7875" type="curve"/>
      <point x="43.3375" y="440.7625" type="line" smooth="yes"/>
      <point x="43.3375" y="424.4125"/>
      <point x="47.925" y="419.9625"/>
      <point x="63.275" y="419.9625" type="curve"/>
      <point x="259.3625" y="419.9625" type="line" smooth="yes"/>
      <point x="272.125" y="419.9625"/>
      <point x="275.85" y="415.2375"/>
      <point x="268.4" y="405.0625" type="curve"/>
      <point x="40.55" y="111.23750000000001" type="line" smooth="yes"/>
      <point x="23.3375" y="88.575"/>
      <point x="21.3375" y="83.575"/>
      <point x="21.3375" y="64.5" type="curve"/>
      <point x="21.3375" y="22.525" type="line" smooth="yes"/>
      <point x="21.3375" y="4.5875"/>
      <point x="26.65" y="0.0"/>
    </contour>
  </outline>
</glyph>
<glyph name="braceleft" format="2">
  <advance width="386.8875"/>
  <unicode hex="007B"/>
  <outline>
    <contour>
      <point x="116.0" y="612.325" type="curve"/>
      <point x="116.0" y="612.325" type="line"/>
      <point x="116.0" y="424.175" type="line" smooth="yes"/>
      <point x="116.0" y="364.175"/>
      <point x="85.9" y="336.6"/>
      <point x="10.9" y="336.4625" type="curve"/>
      <point x="4.5875" y="336.4625"/>
      <point x="0.0" y="331.875"/>
      <point x="0.0" y="318.3875" type="curve"/>
      <point x="0.0" y="268.9625" type="line" smooth="yes"/>
      <point x="0.0" y="255.475"/>
      <point x="4.5875" y="250.8875"/>
      <point x="10.9" y="250.8875" type="curve"/>
      <point x="84.9" y="250.8875"/>
      <point x="116.0" y="215.175"/>
      <point x="116.0" y="167.175" type="curve"/>
      <point x="116.0" y="-35.05" type="line" smooth="yes"/>
      <point x="116.0" y="-124.0"/>
      <point x="207.2375" y="-165.0"/>
      <point x="288.825" y="-165.0" type="curve"/>
      <point x="355.2625" y="-165.0" type="line" smooth="yes"/>
      <point x="367.3" y="-165.0"/>
      <point x="371.8875" y="-160.4125"/>
      <point x="371.8875" y="-148.375" type="curve"/>
      <point x="371.8875" y="-82.525" type="line" smooth="yes"/>
      <point x="371.8875" y="-72.35"/>
      <point x="366.3" y="-67.625"/>
      <point x="355.2625" y="-67.625" type="curve"/>
      <point x="323.325" y="-67.625" type="line" smooth="yes"/>
      <point x="273.325" y="-67.625"/>
      <point x="259.1875" y="-52.349999999999994"/>
      <point x="259.1875" y="-14.349999999999994" type="curve"/>
      <point x="259.1875" y="183.5625" type="line" smooth="yes"/>
      <point x="256.6" y="267.425"/>
      <point x="194.625" y="286.175"/>
      <point x="147.9375" y="290.175" type="curve"/>
      <point x="138.9375" y="291.175"/>
      <point x="139.9375" y="295.3125"/>
      <point x="147.9375" y="296.3125" type="curve"/>
      <point x="195.625" y="302.175"/>
      <point x="256.6" y="325.925"/>
      <point x="259.1875" y="395.7125" type="curve"/>
      <point x="259.1875" y="591.625" type="line" smooth="yes"/>
      <point x="259.1875" y="619.1375"/>
      <point x="261.6625" y="644.625"/>
      <point x="323.1875" y="644.625" type="curve"/>
      <point x="357.9875" y="644.625" type="line" smooth="yes"/>
      <point x="366.3" y="644.625"/>
      <point x="371.8875" y="649.2125"/>
      <point x="371.8875" y="657.525" type="curve"/>
      <point x="371.8875" y="730.1" type="line" smooth="yes"/>
      <point x="371.8875" y="738.4125"/>
      <point x="368.1625" y="742.0"/>
      <point x="357.9875" y="742.0" type="curve"/>
      <point x="286.1" y="742.0" type="line" smooth="yes"/>
      <point x="207.7875" y="742.0"/>
      <point x="116.0" y="699.6875"/>
    </contour>
  </outline>
</glyph>
<glyph name="bar" format="2">
  <advance width="248.025"/>
  <unicode hex="007C"/>
  <outline>
    <contour>
      <point x="85.775" y="-165.0" type="curve"/>
      <point x="169.2875" y="-165.0" type="line"/>
      <point x="180.325" y="-165.0"/>
      <point x="187.5" y="-158.6875"/>
      <point x="187.5" y="-148.375" type="curve"/>
      <point x="187.5" y="829.2375" type="line" smooth="yes"/>
      <point x="187.5" y="840.55"/>
      <point x="180.325" y="847.0"/>
      <point x="166.5625" y="847.0" type="curve"/>
      <point x="82.9125" y="847.0" type="line" smooth="yes"/>
      <point x="67.69999999999999" y="847.0"/>
      <point x="60.525" y="841.4125"/>
      <point x="60.525" y="823.6125" type="curve"/>
      <point x="60.662499999999994" y="-135.85" type="line" smooth="yes"/>
      <point x="60.662499999999994" y="-156.1"/>
      <point x="67.8375" y="-165.0"/>
    </contour>
  </outline>
</glyph>
<glyph name="asciitilde" format="2">
  <advance width="623.075"/>
  <unicode hex="007E"/>
  <outline>
    <contour>
      <point x="565.2875" y="372.8625" type="curve"/>
      <point x="565.2875" y="372.8625" type="line"/>
      <point x="571.0125" y="381.3125"/>
      <point x="572.875" y="392.8"/>
      <point x="567.425" y="401.975" type="curve"/>
      <point x="537.8625" y="451.4375" type="line" smooth="yes"/>
      <point x="529.6875" y="464.475"/>
      <point x="519.7875" y="466.2"/>
      <point x="511.3375" y="454.3" type="curve"/>
      <point x="488.3" y="421.05"/>
      <point x="454.225" y="393.425"/>
      <point x="411.9875" y="393.425" type="curve"/>
      <point x="347.8875" y="393.425"/>
      <point x="307.7875" y="460.85"/>
      <point x="221.9875" y="460.85" type="curve"/>
      <point x="157.6375" y="460.85"/>
      <point x="113.7" y="423.1875"/>
      <point x="61.825" y="371.8625" type="curve"/>
      <point x="51.925" y="362.1"/>
      <point x="49.3375" y="354.925"/>
      <point x="53.925" y="346.475" type="curve"/>
      <point x="91.1125" y="285.2125" type="line" smooth="yes"/>
      <point x="95.8375" y="277.35"/>
      <point x="103.7375" y="277.35"/>
      <point x="109.6" y="284.075" type="curve"/>
      <point x="140.8125" y="317.7375"/>
      <point x="172.5375" y="352.2625"/>
      <point x="219.95" y="352.2625" type="curve"/>
      <point x="287.3625" y="352.2625"/>
      <point x="331.85" y="284.1125"/>
      <point x="415.3" y="284.1125" type="curve"/>
      <point x="469.9875" y="284.1125"/>
      <point x="529.0" y="313.0125"/>
    </contour>
  </outline>
</glyph>
<glyph name="exclamdown" format="2">
  <advance width="270.8125"/>
  <unicode hex="00A1"/>
  <outline>
    <contour>
      <point x="230.66250000000002" y="367.575" type="curve"/>
      <point x="230.66250000000002" y="367.575" type="line"/>
      <point x="230.66250000000002" y="503.475" type="line" smooth="yes"/>
      <point x="230.66250000000002" y="522.6875"/>
      <point x="222.4875" y="530.0"/>
      <point x="200.41250000000002" y="530.0" type="curve"/>
      <point x="65.675" y="530.0" type="line" smooth="yes"/>
      <point x="47.324999999999996" y="530.0"/>
      <point x="41.012499999999996" y="522.6875"/>
      <point x="41.012499999999996" y="507.0625" type="curve"/>
      <point x="41.012499999999996" y="369.4375" type="line" smooth="yes"/>
      <point x="41.012499999999996" y="355.5375"/>
      <point x="48.324999999999996" y="349.225"/>
      <point x="58.3625" y="349.225" type="curve"/>
      <point x="214.175" y="349.225" type="line" smooth="yes"/>
      <point x="225.2125" y="349.225"/>
      <point x="230.66250000000002" y="355.5375"/>
    </contour>
    <contour>
      <point x="237.875" y="-146.0625" type="curve"/>
      <point x="237.875" y="-146.0625" type="line"/>
      <point x="194.9625" y="254.975" type="line" smooth="yes"/>
      <point x="193.2375" y="273.05"/>
      <point x="185.925" y="280.225"/>
      <point x="165.125" y="280.225" type="curve"/>
      <point x="103.6875" y="280.225" type="line" smooth="yes"/>
      <point x="85.6125" y="280.225"/>
      <point x="82.75" y="273.05"/>
      <point x="80.1625" y="257.7" type="curve"/>
      <point x="35.662499999999994" y="-144.2" type="line" smooth="yes"/>
      <point x="33.9375" y="-157.825"/>
      <point x="41.974999999999994" y="-165.0"/>
      <point x="52.7375" y="-165.0" type="curve"/>
      <point x="221.525" y="-165.0" type="line" smooth="yes"/>
      <point x="231.5625" y="-165.0"/>
      <point x="239.60000000000002" y="-157.6875"/>
    </contour>
  </outline>
</glyph>
<glyph name="cent" format="2">
  <advance width="558.0"/>
  <unicode hex="00A2"/>
  <outline>
    <contour>
      <point x="360.2" y="26.8" type="curve"/>
      <point x="360.2" y="26.8" type="line"/>
      <point x="360.2" y="162.1625" type="line" smooth="yes"/>
      <point x="360.2" y="177.5125"/>
      <point x="353.8875" y="185.6875"/>
      <point x="335.8125" y="185.6875" type="curve"/>
      <point x="274.725" y="185.6875" type="line" smooth="yes"/>
      <point x="254.925" y="185.6875"/>
      <point x="246.75" y="177.5125"/>
      <point x="246.75" y="159.4375" type="curve"/>
      <point x="246.75" y="24.075000000000003" type="line" smooth="yes"/>
      <point x="246.75" y="8.3125"/>
      <point x="253.2" y="0.0"/>
      <point x="271.6875" y="0.0" type="curve"/>
      <point x="331.675" y="0.0" type="line" smooth="yes"/>
      <point x="351.8875" y="0.0"/>
      <point x="360.2" y="8.3125"/>
    </contour>
    <contour>
      <point x="360.2" y="583.1125" type="curve"/>
      <point x="360.2" y="583.1125" type="line"/>
      <point x="360.2" y="718.475" type="line" smooth="yes"/>
      <point x="360.2" y="733.825"/>
      <point x="353.8875" y="742.0"/>
      <point x="335.8125" y="742.0" type="curve"/>
      <point x="274.725" y="742.0" type="line" smooth="yes"/>
      <point x="254.925" y="742.0"/>
      <point x="246.75" y="733.825"/>
      <point x="246.75" y="715.75" type="curve"/>
      <point x="246.75" y="580.3875" type="line" smooth="yes"/>
      <point x="246.75" y="564.625"/>
      <point x="253.2" y="556.3125"/>
      <point x="271.6875" y="556.3125" type="curve"/>
      <point x="331.675" y="556.3125" type="line" smooth="yes"/>
      <point x="351.8875" y="556.3125"/>
      <point x="360.2" y="564.625"/>
    </contour>
    <component base="c" yOffset="111.0"/>
  </outline>
</glyph>
<glyph name="sterling" format="2">
  <advance width="654.7875"/>
  <unicode hex="00A3"/>
  <outline>
    <contour>
      <point x="28.625" y="0.0" type="curve"/>
      <point x="28.625" y="0.0" type="line"/>
      <point x="390.225" y="0.0" type="line" smooth="yes"/>
      <point x="510.1375" y="0.0"/>
      <point x="599.15" y="63.325"/>
      <point x="628.2875" y="179.175" type="curve"/>
      <point x="631.15" y="190.9375"/>
      <point x="624.7" y="198.97500000000002"/>
      <point x="611.2125" y="201.8375" type="curve"/>
      <point x="502.1" y="223.775" type="line" smooth="yes"/>
      <point x="489.6125" y="226.5"/>
      <point x="482.8875" y="223.6375"/>
      <point x="479.1625" y="213.60000000000002" type="curve"/>
      <point x="461.925" y="166.0875"/>
      <point x="432.0375" y="146.95"/>
      <point x="376.425" y="146.95" type="curve"/>
      <point x="278.4125" y="146.95" type="line" smooth="yes"/>
      <point x="268.2375" y="146.95"/>
      <point x="264.65" y="151.53750000000002"/>
      <point x="273.82500000000005" y="160.85000000000002" type="curve"/>
      <point x="293.13750000000005" y="178.7125"/>
      <point x="310.575" y="202.66250000000002"/>
      <point x="318.3375" y="241.4875" type="curve"/>
      <point x="324.375" y="267.375"/>
      <point x="327.13750000000005" y="296.75"/>
      <point x="326.0375" y="334.75" type="curve"/>
      <point x="325.9" y="341.475"/>
      <point x="328.9" y="345.2"/>
      <point x="336.4875" y="345.2" type="curve"/>
      <point x="443.15" y="345.2" type="line" smooth="yes"/>
      <point x="450.6" y="345.2"/>
      <point x="454.325" y="348.925"/>
      <point x="454.325" y="356.375" type="curve"/>
      <point x="454.325" y="429.0875" type="line" smooth="yes"/>
      <point x="454.325" y="435.5375"/>
      <point x="450.6" y="439.2625"/>
      <point x="443.15" y="439.2625" type="curve"/>
      <point x="323.0375" y="439.2625" type="line" smooth="yes"/>
      <point x="315.725" y="439.2625"/>
      <point x="311.13750000000005" y="443.9875"/>
      <point x="310.13750000000005" y="450.4375" type="curve"/>
      <point x="303.3125" y="485.4375"/>
      <point x="298.525" y="516.7625"/>
      <point x="298.525" y="540.2625" type="curve"/>
      <point x="298.525" y="586.275"/>
      <point x="324.675" y="613.2625"/>
      <point x="362.65" y="613.2625" type="curve"/>
      <point x="400.0125" y="613.2625"/>
      <point x="418.5875" y="587.4"/>
      <point x="431.2375" y="557.6125" type="curve"/>
      <point x="434.9625" y="550.1625"/>
      <point x="443.275" y="548.3"/>
      <point x="452.5875" y="551.1625" type="curve"/>
      <point x="573.9125" y="587.175" type="line" smooth="yes"/>
      <point x="583.0875" y="590.0375"/>
      <point x="588.8125" y="594.4875"/>
      <point x="585.0875" y="603.8" type="curve"/>
      <point x="540.2125" y="707.5875"/>
      <point x="430.7125" y="752.0"/>
      <point x="335.6375" y="752.0" type="curve"/>
      <point x="200.7375" y="752.0"/>
      <point x="78.625" y="677.5"/>
      <point x="93.1625" y="535.9625" type="curve"/>
      <point x="100.8125" y="452.025" type="line" smooth="yes"/>
      <point x="101.8125" y="442.85"/>
      <point x="97.95" y="439.125"/>
      <point x="89.63749999999999" y="439.125" type="curve"/>
      <point x="27.2" y="439.125" type="line" smooth="yes"/>
      <point x="19.8875" y="439.125"/>
      <point x="15.299999999999997" y="435.4"/>
      <point x="15.299999999999997" y="427.95" type="curve"/>
      <point x="15.299999999999997" y="357.9625" type="line" smooth="yes"/>
      <point x="15.299999999999997" y="349.65"/>
      <point x="19.8875" y="345.0625"/>
      <point x="27.2" y="345.0625" type="curve"/>
      <point x="110.7125" y="345.0625" type="line" smooth="yes"/>
      <point x="117.1625" y="345.0625"/>
      <point x="121.6125" y="342.3375"/>
      <point x="122.6125" y="334.8875" type="curve"/>
      <point x="128.8875" y="278.8875"/>
      <point x="130.4375" y="252.5875"/>
      <point x="130.4375" y="233.8375" type="curve"/>
      <point x="130.4375" y="170.625"/>
      <point x="96.65" y="145.8125"/>
      <point x="45.375" y="145.95" type="curve"/>
      <point x="25.9" y="145.95" type="line" smooth="yes"/>
      <point x="15.725" y="145.95"/>
      <point x="12.0" y="141.3625"/>
      <point x="12.0" y="132.05" type="curve"/>
      <point x="12.0" y="18.35" type="line" smooth="yes"/>
      <point x="12.0" y="7.3125"/>
      <point x="17.5875" y="0.0"/>
    </contour>
  </outline>
</glyph>
